<?xml version="1.0" encoding="UTF-8"?>
<!DOCTYPE svg PUBLIC "-//W3C//DTD SVG 1.1//EN" "http://www.w3.org/Graphics/SVG/1.1/DTD/svg11.dtd">
<!-- Creator: CorelDRAW X8 -->
<svg xmlns="http://www.w3.org/2000/svg" xml:space="preserve" width="0.441925in" height="0.647969in" version="1.1" style="shape-rendering:geometricPrecision; text-rendering:geometricPrecision; image-rendering:optimizeQuality; fill-rule:evenodd; clip-rule:evenodd"
viewBox="0 0 19 27"
 xmlns:xlink="http://www.w3.org/1999/xlink">
 <defs>
  <style type="text/css">
   <![CDATA[
    .fil0 {fill:white}
   ]]>
  </style>
 </defs>
 <g id="Слой_x0020_1">
  <metadata id="CorelCorpID_0Corel-Layer"/>
  <path class="fil0" d="M9 27l1 0c0,0 0,0 1,-1 1,-3 6,-11 7,-13 2,-4 0,-9 -4,-12 -2,-1 -3,-1 -4,-1l-2 0c0,0 -4,0 -7,4 -2,5 -1,9 2,13 1,2 3,6 5,8 0,1 0,1 0,1 1,1 0,1 1,1zm0 -2c1,-1 2,-2 2,-3 1,-1 1,-2 2,-3 1,-2 2,-4 3,-7 3,-7 -5,-13 -11,-9 -1,0 -1,1 -2,2 -2,2 -2,5 -1,8 1,1 5,7 6,9 0,0 1,2 1,3zm-1 -22c-2,1 -5,3 -4,7 0,3 3,5 6,5 3,-1 5,-4 5,-7 -1,-3 -3,-5 -7,-5zm1 2c-2,0 -4,2 -4,5 0,2 2,3 5,3 2,0 4,-2 3,-5 0,-2 -2,-4 -4,-3z"/>
 </g>
</svg>
