<?xml version="1.0" encoding="UTF-8"?>
<!DOCTYPE svg PUBLIC "-//W3C//DTD SVG 1.1//EN" "http://www.w3.org/Graphics/SVG/1.1/DTD/svg11.dtd">
<!-- Creator: CorelDRAW X8 -->
<svg xmlns="http://www.w3.org/2000/svg" xml:space="preserve" width="0.535524in" height="0.535551in" version="1.1" style="shape-rendering:geometricPrecision; text-rendering:geometricPrecision; image-rendering:optimizeQuality; fill-rule:evenodd; clip-rule:evenodd"
viewBox="0 0 33 33"
 xmlns:xlink="http://www.w3.org/1999/xlink">
 <defs>
  <style type="text/css">
   <![CDATA[
    .fil0 {fill:white}
   ]]>
  </style>
 </defs>
 <g id="Слой_x0020_1">
  <metadata id="CorelCorpID_0Corel-Layer"/>
  <path class="fil0" d="M33 30l0 0 0 0c-1,-2 -9,-10 -10,-10l1 -1c0,0 0,0 0,0 0,0 0,0 0,0 0,0 0,0 0,-1l1 0c0,0 0,0 0,0l0 0c0,0 0,0 0,0l0 -2c0,-1 0,-1 1,-2 0,0 0,0 0,-1 0,0 0,-1 0,-1 0,0 0,0 0,-1l-1 0c0,0 1,0 0,0l0 -2c0,0 0,0 0,0l0 -1 -1 -2c0,0 0,0 0,0l0 0c0,0 0,0 0,0l-1 -2 -2 -1c0,0 0,0 0,0l0 0c-1,-1 -1,-1 -1,-1 -1,0 -1,-1 -2,-1l-1 0c0,0 -1,-1 -1,-1 0,0 -1,0 -1,0 -1,0 -1,0 -2,0l0 0c0,0 -1,0 -1,0 0,0 0,0 0,0 -1,0 -1,0 -2,0l-1 1c0,0 0,0 0,0 0,0 0,0 0,0l-1 0c0,0 0,0 0,0 0,0 0,0 0,0l0 0c0,0 0,0 0,0l-2 1 -2 1c0,1 0,1 -1,1l0 1c0,0 0,0 0,0 -1,0 -1,1 -1,1l-1 1c0,0 0,0 0,0l0 1c0,0 0,0 0,0 0,0 0,0 0,0 0,0 0,0 0,0l0 1c0,0 0,0 0,0l0 0c-1,1 -1,1 -1,1l0 2c0,1 0,1 0,2 0,0 0,0 0,0 0,1 0,2 1,2l0 2c0,0 0,0 0,0 0,1 1,1 1,1 0,0 0,0 0,0l1 2c0,0 0,0 0,0 1,1 1,1 1,1l2 2c0,0 0,0 0,0l2 1c0,0 0,0 0,0 0,0 0,0 1,0l0 0c0,0 0,0 0,0 0,0 0,0 0,0 0,0 1,0 1,0l1 0c0,0 0,1 0,1 1,0 2,0 3,0 0,0 1,-1 2,-1l1 0c0,0 0,0 0,0 0,0 1,0 1,0 0,-1 1,-1 1,-1 0,0 0,0 0,0l1 -1c0,1 8,8 9,9 0,0 1,1 1,1 0,0 0,0 0,0 0,0 3,-3 3,-3 0,0 0,0 0,0zm-30 -18c0,1 0,1 0,2 0,0 0,0 0,1l1 2c0,0 0,0 0,0 0,0 0,1 1,1l0 1c0,0 0,0 0,0l0 0c0,0 0,0 0,0l1 1c0,0 0,0 0,0l0 0c0,0 0,0 0,0l2 1c0,0 1,1 1,1l1 0c0,0 0,0 0,0l1 0c0,0 0,0 0,0 1,1 1,1 2,1l1 0c1,-1 1,-1 2,-1l0 0c0,0 0,0 0,0 0,0 0,0 0,0l2 -1c0,0 0,0 0,0 0,0 0,0 0,0l0 0c1,0 1,0 1,0 0,0 0,0 0,-1 0,0 0,0 0,0l1 -1c0,0 0,0 0,0 0,0 0,0 0,0 0,0 0,0 0,0 0,0 0,0 0,0l1 0c0,0 0,0 0,0l0 -1c0,0 1,-1 1,-2l0 -1c0,0 0,0 0,0 0,0 1,0 1,-1l0 -2 0 -1c-1,0 -1,0 -1,-1l0 0c0,-1 0,-1 -1,-2l0 0c0,0 0,0 0,0l0 -1c-1,0 -1,-1 -1,-1l-1 -1c-1,0 -1,0 -1,-1l0 0c-1,0 -2,0 -2,0 0,0 0,0 0,0 -1,-1 -1,-1 -2,-1 -1,0 -2,0 -3,0 0,0 -1,0 -2,1 0,0 0,0 0,0l0 0c0,0 0,0 0,0l-1 1c-1,0 -1,0 -2,0l0 1c0,0 0,0 0,0l0 0c-1,0 -1,1 -1,1l0 0c0,0 0,0 0,0 0,0 0,0 0,0 0,0 0,0 0,0l0 1c0,0 0,0 0,0l-1 0c0,0 0,0 0,0l0 1c0,0 0,0 0,0l0 0c0,0 0,0 0,0l0 0c0,0 0,0 0,0l-1 1c0,0 0,0 0,0 0,1 0,2 0,2l0 0z"/>
 </g>
</svg>
