<?xml version="1.0" encoding="UTF-8"?>
<!DOCTYPE svg PUBLIC "-//W3C//DTD SVG 1.1//EN" "http://www.w3.org/Graphics/SVG/1.1/DTD/svg11.dtd">
<!-- Creator: CorelDRAW 2018 (64-Bit Evaluation Version) -->
<svg xmlns="http://www.w3.org/2000/svg" xml:space="preserve" width="19.9654mm" height="17.6724mm" version="1.1" style="shape-rendering:geometricPrecision; text-rendering:geometricPrecision; image-rendering:optimizeQuality; fill-rule:evenodd; clip-rule:evenodd"
viewBox="0 0 9.61 8.51"
 xmlns:xlink="http://www.w3.org/1999/xlink">
 <defs>
  <style type="text/css">
   <![CDATA[
    .fil0 {fill:white}
   ]]>
  </style>
 </defs>
 <g id="Слой_x0020_1">
  <metadata id="CorelCorpID_0Corel-Layer"/>
  <path class="fil0" d="M-0 0c0,0.03 0.01,0.04 0.02,0.07 0.03,0.06 0.05,0.13 0.09,0.19l0.19 0.42 1.16 -0c0.04,0 0.09,0.01 0.12,0.02 0.09,0.04 0.12,0.07 0.17,0.15 0.03,0.05 0.05,0.1 0.06,0.15 0,0 0,0 0,0.01 0.02,0.06 0.03,0.19 0.05,0.24l0.11 0.53c0.01,0.02 0,0 0.01,0.02l0.07 0.39c0,0 0,0 0,0.01l0.03 0.15c0,0 0,0 0,0.01 0,0 0,0 0,0.01l0.04 0.17c0,0 0,0 0,0.01 0,0.01 0,0.02 0,0.03 0,0 0,0.02 0,0.03l0.02 0.12c0,0 0,0.02 0,0.02l0.04 0.18c0.01,0.04 0.01,0.08 0.02,0.11l0.08 0.41c0.01,0.03 0.01,0.02 0.01,0.04l0.02 0.1c0,0.01 0.01,0.04 0.01,0.05l0.12 0.58c0,0.02 0,0.03 0.01,0.05 0.01,0.03 0.01,0.02 0.01,0.04 0.01,0.03 0.01,0.07 0.02,0.1l0.05 0.24c0.01,0.03 0.01,0.02 0.01,0.04 0.01,0.03 0.01,0.07 0.01,0.1 0,0.02 0,0.01 0.01,0.02l0.01 0.02c0.01,0.03 0.01,0.07 0.02,0.1 0.01,0.03 0.01,0.01 0.01,0.04 0.01,0.04 0.01,0.09 0.02,0.13l0.02 0.12c0.01,0.05 0.02,0.12 0.04,0.17 0.01,0.04 0.01,0.08 0.02,0.12 0.01,0.03 0.01,0.01 0.01,0.04 0,0.02 0,0.03 0.01,0.05l0.03 0.15c0,0 0,0 0,0.01l0.02 0.09c0,0.02 0.01,0.03 0.01,0.05 0.01,0.01 0,-0 0.01,0.02 0.03,0.08 0.06,0.15 0.1,0.22l0.05 0.07c0,0 0,0 0,0l0.04 0.05c0.03,0.04 0.06,0.06 0.09,0.09 0,0 0,0 0,0 0.07,0.05 0.18,0.12 0.26,0.14 0.02,0 0.03,0.01 0.04,0.01l0.12 0.03c0.03,0.01 -0,0 0.02,0.01 0.1,0.02 1.79,0.01 2.02,0.01 0.77,0 1.55,0 2.32,0 0.13,0 0.25,0.01 0.37,-0.03 0.02,-0.01 0,-0 0.02,-0.01l0.04 -0.02c0.04,-0.03 0.08,-0.06 0.11,-0.09l0.03 -0.03c0,-0 0,-0 0,-0l0.01 -0.01c0.03,-0.04 0.05,-0.08 0.08,-0.13l0.05 -0.15c0.02,-0.06 0.03,-0.11 0.03,-0.18 -0.22,0 -4.57,0.01 -4.66,-0 -0.03,-0 -0.06,-0.01 -0.09,-0.02 -0.02,-0.01 -0,-0 -0.02,-0.01l-0.13 -0.05c-0,-0 -0.01,-0 -0.01,-0.01 -0.05,-0.03 -0.07,-0.05 -0.11,-0.08l-0.08 -0.09c-0,-0.01 -0.01,-0.01 -0.01,-0.02 -0.02,-0.03 -0.04,-0.07 -0.06,-0.11 -0.05,-0.1 -0.03,-0.08 -0.06,-0.17l-0.02 -0.09c-0,-0.02 -0,-0.03 -0.01,-0.04l-0.07 -0.32c-0.01,-0.03 -0.01,-0.06 -0.01,-0.09l-0.04 -0.18c-0,-0.01 -0.01,-0.03 -0.01,-0.04l-0.01 -0.05c-0.01,-0.04 -0.01,-0.08 -0.02,-0.12l-0 -0.01c-0,-0 -0,-0 -0,-0.01 -0.02,-0.05 -0.01,-0.07 -0.03,-0.15l5.8 -0.01c0.07,-0.02 0.14,-0.04 0.21,-0.08 0.05,-0.04 0.13,-0.12 0.15,-0.16 0,-0 0,-0 0,-0l0.05 -0.14c0.01,-0.04 0.01,-0.07 0.02,-0.11 0,-0.02 0,-0.04 0,-0.06 0,-0.04 0.01,-0.01 0.01,-0.05 0,-0.04 0.01,-0.08 0.01,-0.12l0.02 -0.14c0.01,-0.05 -0,-0.1 0.01,-0.15 0.01,-0.03 0.01,-0 0.01,-0.05 0,-0.05 0,-0.07 0.01,-0.12 0,-0.03 0,-0.09 0.01,-0.12l0.02 -0.11c0,-0.05 0,-0.08 0.01,-0.12 0,-0.05 0.01,-0.02 0.01,-0.05 0.01,-0.06 0,-0.19 0.02,-0.25 0,-0 0,-0 0,-0.01l0.02 -0.21c0,-0.05 0.02,-0.09 0.02,-0.17 0,-0.07 0.01,-0.18 -0.01,-0.24 -0,-0 -0,-0 -0,-0l-0 -0.01c-0.01,-0.03 -0.01,-0.04 -0.03,-0.06 -0.04,-0.06 -0.09,-0.12 -0.15,-0.17 -0.05,-0.04 -0.16,-0.08 -0.22,-0.1 -0.08,-0.01 -0.14,-0.03 -0.23,-0.03l-2.29 0c-1.36,0 -2.72,0 -4.07,0l-0.01 -0.04c-0,-0 -0,-0 -0,-0.01l-0.04 -0.21c-0,-0 -0,-0.02 -0.01,-0.02l-0.16 -0.56 -0.14 -0.28c-0,-0 -0,-0 -0,-0 -0,-0 -0.01,-0.01 -0.01,-0.01l-0.02 -0.03c-0,-0 -0,-0 -0,-0l-0.09 -0.09c-0.03,-0.03 -0.1,-0.07 -0.16,-0.09 -0.17,-0.06 -0.24,-0.06 -0.44,-0.06l-1.5 0zm3.49 7.72l0 0.11c0,0.01 0.01,0.03 0.02,0.06 0,0.02 0.01,0.06 0.01,0.08 0.02,0.07 0.06,0.17 0.11,0.23l0.06 0.08c0,0 0,0 0,0l0.01 0.01c0.04,0.04 0.08,0.08 0.13,0.11 0.01,0.01 0.02,0.01 0.03,0.02l0.08 0.04c0.03,0.01 0.04,0.01 0.07,0.02 0.02,0.01 0.01,0 0.03,0.01 0.02,0.01 0.05,0.01 0.09,0.02l0.18 0c0.05,-0 0.1,-0.01 0.13,-0.02 0.02,-0.01 0.04,-0.01 0.06,-0.02l0.19 -0.12c0,-0 0,-0 0,-0l0.06 -0.05c0,-0 0,-0 0,-0l0.01 -0.01c0.06,-0.06 0.11,-0.15 0.14,-0.23 0.03,-0.05 0.04,-0.14 0.04,-0.2 0,-0.09 0.01,-0.22 -0.02,-0.3l-0.04 -0.11c-0.01,-0.03 -0.01,-0.03 -0.03,-0.05 -0.02,-0.02 -0.02,-0.03 -0.03,-0.05 -0.03,-0.05 -0.08,-0.09 -0.13,-0.13l-0.07 -0.05c-0.01,-0.01 -0.01,-0.01 -0.03,-0.02 -0.17,-0.07 -0.2,-0.09 -0.41,-0.09 -0.09,0 -0.17,0.01 -0.25,0.05 -0.09,0.04 -0.17,0.08 -0.24,0.15 -0.03,0.03 -0.06,0.05 -0.08,0.09l-0.06 0.09c-0,0 -0,0 -0,0 -0,0 -0.01,0.01 -0.01,0.02l-0.02 0.06c-0.04,0.14 -0.02,0.12 -0.04,0.18 -0.01,0.03 -0.01,0 -0.01,0.03zm3.68 0.78c0.07,-0 0.13,-0.01 0.19,-0.03 0,-0 0.02,-0 0.02,-0.01 0.02,-0 0.03,-0.01 0.04,-0.01 0.06,-0.02 0.12,-0.06 0.17,-0.09 0.08,-0.06 0.16,-0.14 0.2,-0.23l0.02 -0.03c0.01,-0.02 0,0.01 0.01,-0.03l0.05 -0.17c0.02,-0.07 0.02,-0.19 0,-0.26 -0,-0.03 -0,-0.01 -0.01,-0.02 -0,-0 -0,-0 -0,-0.01l-0.04 -0.13c-0.02,-0.04 -0.04,-0.07 -0.06,-0.11l-0.02 -0.04c-0.03,-0.05 -0.07,-0.09 -0.12,-0.13l-0.08 -0.06c-0,-0 -0,-0 -0,-0 -0,-0 -0,-0 -0,-0l-0.12 -0.06c-0.01,-0.01 -0.01,-0 -0.02,-0.01 -0.07,-0.03 -0.12,-0.02 -0.17,-0.03l-0.1 -0.01c-0.05,0 -0.02,0.01 -0.05,0.01 -0.02,0 -0.04,0 -0.07,0.01 -0.02,0 -0.04,0.01 -0.05,0.01 -0.02,0 -0.01,0 -0.02,0.01 -0,0 -0,0 -0.01,0l-0.12 0.05c-0.09,0.05 -0.17,0.11 -0.24,0.2l-0.02 0.02c-0,0 -0,0 -0,0l-0.01 0.01c-0.05,0.08 -0.1,0.17 -0.11,0.27l-0.01 0.03c-0,0 -0,0 -0,0.01 -0,0.01 -0,-0 -0.01,0.02 -0.01,0.04 -0.01,0.16 0.01,0.21 0.02,0.06 0.02,0.11 0.05,0.18l0.06 0.11c0.01,0.01 0.01,0.01 0.02,0.02 0.01,0.01 0.01,0.01 0.01,0.02 0.01,0.01 0.02,0.02 0.03,0.03l0.07 0.07c0.08,0.06 0.09,0.07 0.19,0.12 0.02,0.01 0.01,0.01 0.02,0.01 0.05,0.02 0.14,0.05 0.23,0.05l0.08 0zm-4.34 -6.46l6.16 0 -0.15 1.58 -5.74 0 -0.26 -1.58z"/>
 </g>
</svg>
