<?xml version="1.0" encoding="UTF-8"?>
<!DOCTYPE svg PUBLIC "-//W3C//DTD SVG 1.1//EN" "http://www.w3.org/Graphics/SVG/1.1/DTD/svg11.dtd">
<!-- Creator: CorelDRAW 2018 (64-Bit Evaluation Version) -->
<svg xmlns="http://www.w3.org/2000/svg" xml:space="preserve" width="17.4804mm" height="17.4804mm" version="1.1" style="shape-rendering:geometricPrecision; text-rendering:geometricPrecision; image-rendering:optimizeQuality; fill-rule:evenodd; clip-rule:evenodd"
viewBox="0 0 7.55 7.55"
 xmlns:xlink="http://www.w3.org/1999/xlink">
 <defs>
  <style type="text/css">
   <![CDATA[
    .fil0 {fill:white}
   ]]>
  </style>
 </defs>
 <g id="Слой_x0020_1">
  <metadata id="CorelCorpID_0Corel-Layer"/>
  <path class="fil0" d="M3.77 0.49c1.81,0 3.28,1.47 3.28,3.28 0,1.81 -1.47,3.28 -3.28,3.28 -1.81,0 -3.28,-1.47 -3.28,-3.28 0,-1.81 1.47,-3.28 3.28,-3.28zm0 -0.49c2.08,0 3.77,1.69 3.77,3.77 0,2.08 -1.69,3.77 -3.77,3.77 -2.08,0 -3.77,-1.69 -3.77,-3.77 0,-2.08 1.69,-3.77 3.77,-3.77zm-0.19 3.06l0.37 0c0.1,0 0.18,0.08 0.18,0.18l0 2.62c0,0.1 -0.08,0.18 -0.18,0.18l-0.37 0c-0.1,0 -0.18,-0.08 -0.18,-0.18l0 -2.62c0,-0.1 0.08,-0.18 0.18,-0.18zm0.22 -1.33c0.26,0 0.47,0.21 0.47,0.47 0,0.26 -0.21,0.47 -0.47,0.47 -0.26,0 -0.47,-0.21 -0.47,-0.47 0,-0.26 0.21,-0.47 0.47,-0.47z"/>
 </g>
</svg>
