<?xml version="1.0" encoding="UTF-8"?>
<!DOCTYPE svg PUBLIC "-//W3C//DTD SVG 1.1//EN" "http://www.w3.org/Graphics/SVG/1.1/DTD/svg11.dtd">
<!-- Creator: CorelDRAW 2018 (64-Bit Evaluation Version) -->
<svg xmlns="http://www.w3.org/2000/svg" xml:space="preserve" width="19.914mm" height="17.0679mm" version="1.1" style="shape-rendering:geometricPrecision; text-rendering:geometricPrecision; image-rendering:optimizeQuality; fill-rule:evenodd; clip-rule:evenodd"
viewBox="0 0 8.72 7.47"
 xmlns:xlink="http://www.w3.org/1999/xlink">
 <defs>
  <style type="text/css">
   <![CDATA[
    .fil0 {fill:white}
   ]]>
  </style>
 </defs>
 <g id="Слой_x0020_1">
  <metadata id="CorelCorpID_0Corel-Layer"/>
  <path class="fil0" d="M-0 3.13c0,0.07 0.01,0.17 0.02,0.23 0.1,0.86 0.62,1.52 1.31,2 0.05,0.04 0.1,0.07 0.15,0.1 0.05,0.03 0.11,0.07 0.16,0.09 -0.01,0.1 -0.13,0.4 -0.18,0.5 -0.17,0.36 -0.17,0.32 -0.4,0.61 -0.06,0.08 -0.25,0.27 -0.33,0.36 -0.05,0.06 -0.12,0.14 -0.12,0.23 0,0.1 0.1,0.23 0.2,0.23 0.33,0 1.09,-0.24 1.39,-0.37 0.21,-0.09 0.49,-0.23 0.68,-0.35l0.44 -0.3c0.03,-0.02 0.31,-0.25 0.33,-0.26 0.02,-0 0.24,0.02 0.27,0.02 0.35,0.04 1.09,-0.01 1.42,-0.06 0.47,-0.08 0.8,-0.18 1.24,-0.36 0.31,-0.13 0.75,-0.38 1.01,-0.59 0.17,-0.14 0.22,-0.2 0.36,-0.33 0.26,-0.26 0.51,-0.63 0.62,-0.97 0.13,-0.38 0.18,-0.78 0.1,-1.21 -0.03,-0.15 -0.1,-0.4 -0.16,-0.53 -0.09,-0.18 -0.13,-0.27 -0.26,-0.45 -0.37,-0.51 -0.85,-0.88 -1.4,-1.16 -1.27,-0.64 -2.97,-0.72 -4.31,-0.28 -0.41,0.14 -0.76,0.3 -1.12,0.53l-0.46 0.35 -0.4 0.42c-0.18,0.23 -0.32,0.46 -0.43,0.75 -0.04,0.11 -0.08,0.24 -0.1,0.37 -0.01,0.07 -0.02,0.14 -0.03,0.21l-0.01 0.23zm0.4 0.01c0,0.06 0.01,0.12 0.01,0.18 0.08,0.74 0.55,1.3 1.15,1.72 0.05,0.03 0.09,0.06 0.14,0.09 0.04,0.03 0.09,0.06 0.13,0.08l0.23 0.12 -0.02 0.26c-0.01,0.17 -0.14,0.48 -0.22,0.64 -0.06,0.13 -0.13,0.27 -0.21,0.39 -0.07,0.1 -0.15,0.2 -0.23,0.29 -0.02,0.03 -0.05,0.06 -0.07,0.09 0.28,-0.08 0.59,-0.18 0.75,-0.25 0.2,-0.09 0.44,-0.2 0.62,-0.32l0.42 -0.29c0.13,-0.1 0.32,-0.29 0.47,-0.32 0.1,-0.02 0.29,0 0.4,0.02 0.2,0.02 0.43,0.01 0.63,0 0.22,-0.01 0.46,-0.03 0.67,-0.06 0.42,-0.07 0.76,-0.17 1.16,-0.33 0.29,-0.12 0.66,-0.33 0.91,-0.53 0.12,-0.1 0.22,-0.19 0.33,-0.3 0.22,-0.21 0.43,-0.54 0.53,-0.82 0.11,-0.33 0.15,-0.66 0.08,-1.01 -0.02,-0.12 -0.08,-0.32 -0.13,-0.42 -0.07,-0.14 -0.13,-0.26 -0.22,-0.39 -0.33,-0.45 -0.76,-0.79 -1.26,-1.04 -1.18,-0.59 -2.76,-0.67 -4.01,-0.25 -0.36,0.12 -0.69,0.27 -1.02,0.48l-0.42 0.32 -0.36 0.39c-0.15,0.19 -0.27,0.39 -0.36,0.62 -0.04,0.1 -0.06,0.2 -0.08,0.3 -0.01,0.06 -0.02,0.12 -0.02,0.17l-0.01 0.2z"/>
 </g>
</svg>
