<?xml version="1.0" encoding="UTF-8"?>
<!DOCTYPE svg PUBLIC "-//W3C//DTD SVG 1.1//EN" "http://www.w3.org/Graphics/SVG/1.1/DTD/svg11.dtd">
<!-- Creator: CorelDRAW 2018 (64-Bit Evaluation Version) -->
<svg xmlns="http://www.w3.org/2000/svg" xml:space="preserve" width="13.6023mm" height="13.603mm" version="1.1" style="shape-rendering:geometricPrecision; text-rendering:geometricPrecision; image-rendering:optimizeQuality; fill-rule:evenodd; clip-rule:evenodd"
viewBox="0 0 83.82 83.82"
 xmlns:xlink="http://www.w3.org/1999/xlink">
 <defs>
  <style type="text/css">
   <![CDATA[
    .fil0 {fill:white}
   ]]>
  </style>
 </defs>
 <g id="Слой_x0020_1">
  <metadata id="CorelCorpID_0Corel-Layer"/>
  <path class="fil0" d="M83.82 76.52l0 -0.67 -0.69 -0.9c-2.94,-2.93 -23.15,-23.32 -23.77,-23.73l1.53 -2.41c0.2,-0.27 0.05,0.04 0.18,-0.36 0.09,-0.29 0.36,-0.57 0.51,-0.87 0.13,-0.26 0.21,-0.41 0.33,-0.67l0.64 -1.46c0.04,-0.08 0.12,-0.25 0.16,-0.32l0.03 -0.09c0,-0.01 0.01,-0.03 0.01,-0.04l1.37 -4.19c0.4,-1.51 0.59,-3.04 0.84,-4.67 0.1,-0.66 0.06,-1.47 0.17,-1.89 0.17,-0.68 0.15,-2.91 -0,-3.55 -0.08,-0.32 -0,-0.88 -0.13,-1.56l-0.23 -1.56c-0.03,-0.18 0,-0.29 -0.07,-0.71l-0.88 -3.69c-0,-0.01 -0.01,-0.03 -0.01,-0.04l-1.26 -3.5 -2.58 -4.77c-0.01,-0.01 -0.02,-0.03 -0.02,-0.04l-0.06 -0.12c-0,-0.01 -0.02,-0.03 -0.02,-0.04l-2.57 -3.33 -4.37 -4.26c-0.01,-0.01 -0.03,-0.02 -0.04,-0.02l-0.19 -0.12c-0.91,-0.67 -1.28,-1.07 -2.37,-1.72 -1.4,-0.84 -2.79,-1.68 -4.3,-2.32l-2.37 -0.98c-0.57,-0.29 -2.23,-0.71 -3.01,-0.93 -1.07,-0.31 -2.18,-0.48 -3.37,-0.65 -1.27,-0.18 -2.93,-0.34 -4.42,-0.34l-0.71 0.02c-0.34,0.02 -0.67,-0 -1.01,0 -0.45,0.01 -0.49,0.08 -0.92,0.09 -1.69,0.05 -3.5,0.31 -5.12,0.74l-2.73 0.79c-0.2,0.08 -0.05,0.03 -0.14,0.06 -0.2,0.07 0.1,-0.03 -0.14,0.04l-0.75 0.28c-0.02,0.01 -0.08,0.03 -0.1,0.04 -0.01,0 -0.03,0.01 -0.05,0.01l-1.72 0.69c-0.08,0.03 0.03,-0.03 -0.13,0.05l-4.18 2.26 -4.73 3.65c-1.07,1.08 -1.37,1.32 -2.36,2.5l-1.32 1.64c-0.01,0.02 -0.06,0.09 -0.09,0.13 -0.77,0.94 -1.51,1.94 -2.08,3.03l-1.46 2.8c-0,0.01 -0.01,0.03 -0.02,0.04l-0.21 0.41c-0.01,0.01 -0.02,0.04 -0.02,0.05 -0.03,0.07 -0.05,0.11 -0.07,0.17 -0.06,0.15 -0.08,0.18 -0.16,0.35l-0.9 2.39c-0,0.01 -0.01,0.04 -0.02,0.05l-0.28 0.92c-0.34,0.98 -0.56,2.01 -0.77,3.04l-0.57 4.63c-0.11,1.22 -0.05,2.98 0.04,3.88 0.06,0.59 0.13,1.43 0.15,1.78 0.08,1.36 0.61,4.05 1.11,5.31l1.32 3.63c0.12,0.26 0.19,0.46 0.3,0.7 0.46,0.95 0.92,1.99 1.42,2.76 0.08,0.12 0.11,0.18 0.2,0.31l3.44 4.78c0.11,0.15 0.11,0.14 0.23,0.26 0.69,0.73 1.85,1.96 2.56,2.56l3.94 3.01c0.12,0.07 0.01,-0 0.15,0.1l5.64 2.91c0.27,0.12 0.4,0.17 0.73,0.28 0.11,0.04 0.28,0.12 0.34,0.14l0.64 0.21c0.06,0.02 0.19,0.06 0.31,0.1 0.02,0.01 0.08,0.03 0.1,0.04 1.11,0.37 2.25,0.61 3.37,0.87l1.39 0.23c0.18,0.03 0.48,0.11 0.84,0.14 2.08,0.19 4.08,0.35 6.13,0.21 1.86,-0.13 3.58,-0.36 5.42,-0.72l2.67 -0.73c0.01,-0 0.03,-0.01 0.04,-0.01 1.06,-0.29 2.07,-0.72 3.19,-1.18 0.84,-0.35 1.58,-0.79 2.39,-1.19 0.25,-0.12 0.41,-0.2 0.65,-0.36l2.47 -1.55c0.39,0.59 19.81,19.85 22.1,22.14 0.6,0.6 1.84,2.24 2.71,2.33 0.36,0.04 0.59,-0.06 0.8,-0.2 0.37,-0.26 6.92,-6.81 6.95,-7.04 0,-0.03 0.02,-0.04 0.03,-0.05zm-76.07 -45.32c0,0.98 -0.1,2.24 0.04,3.15 0.16,1.03 0.2,2 0.37,2.97l1.6 5.16c0,0.01 0.01,0.03 0.02,0.04 0.51,1.32 1.32,2.47 2.01,3.69l0.9 1.32c0.01,0.01 0.03,0.03 0.04,0.05l0.28 0.31c0.14,0.16 0.08,0.09 0.17,0.25l1.47 1.71c0.22,0.23 0.24,0.16 0.44,0.4l0.53 0.56c0.01,0.01 0.03,0.03 0.04,0.04l4.39 3.24c0.59,0.4 1.97,1.11 2.66,1.36l2.64 0.95c0.02,0.01 0.08,0.03 0.09,0.04l1.78 0.46c0.27,0.05 0.39,0.1 0.66,0.15 1.79,0.33 3.56,0.52 5.33,0.45l2.98 -0.27c0.89,-0.09 2.61,-0.39 3.49,-0.79l0.87 -0.3c0.1,-0.03 0.22,-0.05 0.33,-0.09 0.18,-0.06 0.36,-0.15 0.6,-0.23l3.97 -1.9c0.02,-0.01 0.07,-0.06 0.09,-0.07 0.13,-0.09 0.05,-0.03 0.16,-0.1l1.22 -0.8c0.12,-0.09 0.1,-0.08 0.24,-0.18 0.22,-0.15 0.92,-0.62 1.36,-1.07 0.06,-0.07 0.1,-0.11 0.17,-0.17l2.57 -2.46c0.01,-0.01 0.03,-0.03 0.04,-0.04 0.01,-0.01 0.03,-0.03 0.04,-0.04 0.01,-0.01 0.03,-0.03 0.04,-0.04 0.17,-0.21 0.15,-0.25 0.37,-0.47l0.38 -0.43c0.01,-0.01 0.02,-0.03 0.02,-0.04l1.14 -1.58c1.17,-1.67 2.19,-3.72 2.76,-5.58l0.56 -1.66c0.01,-0.02 0.01,-0.04 0.02,-0.06 0.33,-1.07 0.53,-2.2 0.63,-3.22l0.21 -4.19 -0.24 -2.75c-0.12,-1.12 -0.42,-2.25 -0.73,-3.32l-0.03 -0.08c-0.82,-2.39 -1.05,-2.87 -2.09,-4.95l-0.04 -0.08c-0,-0.01 -0.01,-0.03 -0.02,-0.04l-2.24 -3.33c-0.36,-0.46 -0.77,-0.84 -1.09,-1.32l-3.62 -3.26c-0.65,-0.38 -1.24,-0.9 -1.91,-1.27l-1.02 -0.58c-1.26,-0.7 -2.58,-1.25 -3.93,-1.74 -0.01,-0 -0.04,-0.01 -0.05,-0.02 -1.23,-0.42 -2.6,-0.76 -3.88,-0.94 -2.54,-0.36 -5.25,-0.41 -7.78,-0.02 -1.6,0.25 -3.57,0.74 -5.1,1.34 -0.01,0 -0.03,0.01 -0.04,0.02l-0.79 0.32c-0.01,0 -0.03,0.01 -0.04,0.02l-3.4 1.78c-1.12,0.8 -2.2,1.44 -3.22,2.4l-0.46 0.4c-0,0 -0.1,0.11 -0.11,0.11l-1.42 1.43c-0.53,0.64 -1.09,1.2 -1.57,1.87l-0.07 0.1c-0.01,0.01 -0.03,0.03 -0.04,0.05 -0.01,0.01 -0.03,0.03 -0.04,0.04 -0.08,0.09 -0.05,0.05 -0.12,0.14l-0.7 1.06c-0.09,0.15 -0.03,0.05 -0.09,0.16l-0.28 0.42c-0,0.01 -0.01,0.03 -0.02,0.04l-1.15 2.14c-0,0.01 -0.01,0.03 -0.02,0.04l-0.21 0.42c-0.01,0.01 -0.02,0.03 -0.02,0.04l-0.13 0.25c-0,0.01 -0.01,0.03 -0.01,0.04l-1.2 3.46c-0.06,0.19 -0.09,0.36 -0.12,0.52 -0.25,1.38 -0.57,2.61 -0.63,4l-0.08 0.59z"/>
 </g>
</svg>
