<?xml version="1.0" encoding="UTF-8"?>
<!DOCTYPE svg PUBLIC "-//W3C//DTD SVG 1.1//EN" "http://www.w3.org/Graphics/SVG/1.1/DTD/svg11.dtd">
<!-- Creator: CorelDRAW 2018 (64-Bit Evaluation Version) -->
<svg xmlns="http://www.w3.org/2000/svg" xml:space="preserve" width="14.0641mm" height="15.2707mm" version="1.1" style="shape-rendering:geometricPrecision; text-rendering:geometricPrecision; image-rendering:optimizeQuality; fill-rule:evenodd; clip-rule:evenodd"
viewBox="0 0 4.69 5.1"
 xmlns:xlink="http://www.w3.org/1999/xlink">
 <defs>
  <style type="text/css">
   <![CDATA[
    .fil0 {fill:white}
   ]]>
  </style>
 </defs>
 <g id="Слой_x0020_1">
  <metadata id="CorelCorpID_0Corel-Layer"/>
  <path class="fil0" d="M3.94 0c-0.17,0 -0.31,0.02 -0.45,0.1 -0.08,0.05 -0.14,0.1 -0.2,0.17 -0.02,0.02 -0.03,0.03 -0.04,0.05 -0.03,0.04 -0.05,0.07 -0.07,0.12 -0.08,0.17 -0.1,0.38 -0.05,0.57 0.01,0.02 0.01,0.04 0.02,0.06l-0.54 0.31c-0.11,0.06 -0.42,0.23 -0.49,0.27 -0.06,0.04 -0.13,0.07 -0.19,0.11 -0.01,0 -0.02,0.01 -0.03,0.02l-0.38 0.21c-0.03,0.02 -0.07,0.06 -0.12,0.06 -0.01,-0.02 -0.03,-0.04 -0.05,-0.05 -0.05,-0.06 -0.11,-0.1 -0.17,-0.14 -0.17,-0.1 -0.29,-0.1 -0.48,-0.1 -0.09,0 -0.23,0.05 -0.29,0.09l-0.05 0.04c-0.06,0.04 -0.13,0.09 -0.17,0.15 -0.08,0.1 -0.11,0.15 -0.15,0.28 -0.06,0.18 -0.04,0.4 0.03,0.57 0.04,0.09 0.09,0.16 0.16,0.23 0.02,0.02 0.03,0.03 0.05,0.05 0.05,0.04 0.11,0.09 0.17,0.12 0.17,0.08 0.4,0.11 0.59,0.05 0.06,-0.02 0.1,-0.04 0.15,-0.07 0.04,-0.02 0.22,-0.15 0.23,-0.2 0.04,0 0.13,0.06 0.17,0.09l0.49 0.27c0.01,0.01 0.02,0.01 0.03,0.02l0.19 0.11c0.16,0.09 0.33,0.18 0.49,0.28l0.27 0.15c0.04,0.02 0.07,0.04 0.11,0.06l-0.03 0.11c-0.06,0.28 0.03,0.55 0.23,0.74l0.05 0.04c0.06,0.04 0.11,0.08 0.18,0.11 0.09,0.04 0.2,0.06 0.3,0.07l0.05 0c0.05,-0 0.1,-0.01 0.14,-0.02 0.16,-0.05 0.26,-0.09 0.39,-0.21 0.07,-0.07 0.12,-0.14 0.16,-0.23 0.02,-0.04 0.04,-0.1 0.05,-0.15 0.03,-0.1 0.03,-0.25 0,-0.35 -0.03,-0.14 -0.09,-0.25 -0.18,-0.36 -0.04,-0.04 -0.13,-0.12 -0.19,-0.16 -0.1,-0.07 -0.24,-0.11 -0.38,-0.11 -0.1,0 -0.17,0.01 -0.26,0.03l-0.08 0.03c-0.02,0.01 -0.05,0.02 -0.07,0.04 -0.05,0.03 -0.09,0.06 -0.13,0.09 -0.02,0.02 -0.04,0.03 -0.05,0.05 -0.02,0.02 -0.05,0.04 -0.05,0.06 -0.03,-0 -0.38,-0.2 -0.44,-0.24 -0.02,-0.01 -0.03,-0.02 -0.05,-0.03l-0.17 -0.09c-0.03,-0.02 -0.07,-0.04 -0.11,-0.06 -0.02,-0.01 -0.03,-0.02 -0.05,-0.03l-0.16 -0.09c-0.11,-0.06 -0.22,-0.11 -0.32,-0.18l-0.11 -0.06c-0.02,-0.01 -0.04,-0.02 -0.05,-0.03 -0.04,-0.02 -0.24,-0.14 -0.27,-0.15 0,-0.03 0.02,-0.08 0.03,-0.12 0.05,-0.26 -0.03,-0.38 -0.03,-0.45 0.02,-0.01 0.03,-0.02 0.06,-0.03 0.01,-0.01 0.02,-0.01 0.03,-0.02l0.4 -0.23c0.16,-0.09 0.33,-0.18 0.49,-0.27 0.02,-0.01 0.04,-0.02 0.05,-0.03 0.03,-0.02 0.05,-0.03 0.08,-0.05 0.02,-0.01 0.01,-0.01 0.03,-0.01 0.13,-0.07 0.25,-0.15 0.38,-0.22l0.11 -0.06c0.03,-0.02 0.07,-0.05 0.11,-0.06 0.01,0.03 0.08,0.09 0.11,0.11 0.14,0.11 0.29,0.19 0.48,0.19 0.18,0 0.3,-0.03 0.44,-0.11 0.04,-0.02 0.08,-0.06 0.11,-0.09 0.09,-0.07 0.16,-0.17 0.21,-0.28 0.07,-0.17 0.09,-0.39 0.03,-0.57 -0.01,-0.03 -0.01,-0.05 -0.02,-0.08 -0.02,-0.04 -0.04,-0.08 -0.07,-0.12 -0.03,-0.04 -0.06,-0.08 -0.09,-0.11 -0.07,-0.07 -0.13,-0.12 -0.22,-0.16 -0.09,-0.04 -0.21,-0.08 -0.31,-0.08zm0.51 0.8c0,0.31 -0.25,0.55 -0.55,0.55 -0.31,0 -0.55,-0.25 -0.55,-0.55 0,-0.31 0.25,-0.55 0.55,-0.55 0.31,0 0.55,0.25 0.55,0.55zm0 3.49c0,0.31 -0.25,0.55 -0.55,0.55 -0.31,0 -0.55,-0.25 -0.55,-0.55 0,-0.31 0.25,-0.55 0.55,-0.55 0.31,0 0.55,0.25 0.55,0.55zm-3.12 -1.76c0,0.31 -0.25,0.55 -0.55,0.55 -0.31,0 -0.55,-0.25 -0.55,-0.55 0,-0.31 0.25,-0.55 0.55,-0.55 0.31,0 0.55,0.25 0.55,0.55z"/>
 </g>
</svg>
