<?xml version="1.0" encoding="UTF-8"?>
<!DOCTYPE svg PUBLIC "-//W3C//DTD SVG 1.1//EN" "http://www.w3.org/Graphics/SVG/1.1/DTD/svg11.dtd">
<!-- Creator: CorelDRAW X8 -->
<svg xmlns="http://www.w3.org/2000/svg" xml:space="preserve" width="0.548831in" height="0.58789in" version="1.1" style="shape-rendering:geometricPrecision; text-rendering:geometricPrecision; image-rendering:optimizeQuality; fill-rule:evenodd; clip-rule:evenodd"
viewBox="0 0 25 27"
 xmlns:xlink="http://www.w3.org/1999/xlink">
 <defs>
  <style type="text/css">
   <![CDATA[
    .fil0 {fill:white}
   ]]>
  </style>
 </defs>
 <g id="Слой_x0020_1">
  <metadata id="CorelCorpID_0Corel-Layer"/>
  <path class="fil0" d="M11 27l11 0c1,0 1,0 2,-1 1,-1 1,-2 1,-4l0 -17c0,-1 0,-2 -1,-3 -1,-2 -1,-2 -2,-2l-11 0c-1,0 -1,0 -1,0 -1,1 -2,2 -2,3 -1,0 -1,5 -1,6 1,1 2,1 2,0 0,-1 0,-3 0,-3 0,-1 0,-2 0,-3 1,-1 1,-1 2,-1 0,0 8,0 9,0 1,0 2,-1 2,0 2,1 1,3 1,5 0,3 1,17 0,17 0,1 -1,1 -2,1l-9 0c-3,0 -3,0 -3,-3 0,-1 0,-2 0,-3 0,0 0,-1 0,-1 -1,0 -1,0 -1,0 -1,1 -1,3 -1,3 0,1 0,2 0,3 1,2 3,3 4,3zm5 -15c-1,0 -11,0 -13,0 -1,0 -3,0 -3,1 0,1 1,1 2,1l15 0 -4 4c-1,1 0,2 0,2 1,0 3,-3 3,-3l3 -3c1,-1 -1,-1 -2,-3 -1,-1 -2,-2 -3,-2 0,-1 -1,-2 -1,-1 -1,1 1,2 2,3l1 1z"/>
 </g>
</svg>
