<?xml version="1.0" encoding="UTF-8"?>
<!DOCTYPE svg PUBLIC "-//W3C//DTD SVG 1.1//EN" "http://www.w3.org/Graphics/SVG/1.1/DTD/svg11.dtd">
<!-- Creator: CorelDRAW 2018 (64-Bit Evaluation Version) -->
<svg xmlns="http://www.w3.org/2000/svg" xml:space="preserve" width="11.2249mm" height="16.4584mm" version="1.1" style="shape-rendering:geometricPrecision; text-rendering:geometricPrecision; image-rendering:optimizeQuality; fill-rule:evenodd; clip-rule:evenodd"
viewBox="0 0 47.04 68.97"
 xmlns:xlink="http://www.w3.org/1999/xlink">
 <defs>
  <style type="text/css">
   <![CDATA[
    .fil0 {fill:white}
   ]]>
  </style>
 </defs>
 <g id="Слой_x0020_1">
  <metadata id="CorelCorpID_0Corel-Layer"/>
  <path class="fil0" d="M22.73 68.97l1.75 0c1.73,-1.3 1.52,-1.47 2.96,-4.08 3.95,-7.14 14.97,-26.01 17.48,-31.66 4.93,-11.07 0.91,-23.31 -8.59,-29.43 -5.2,-3.35 -8.65,-2.99 -10.27,-3.8l-5.03 0c-1.66,0.85 -11.3,1.12 -17.28,10.82 -7.03,11.42 -3.16,21.02 3.33,31.5 3.84,6.19 8.85,15.65 12.71,22.42 0.46,0.8 0.78,1.36 1.25,2.19 0.85,1.49 0.54,1.03 1.69,2.03zm1.03 -5.84c1.15,-2.43 2.94,-5.31 4.31,-7.73 1.47,-2.59 2.99,-5.29 4.4,-7.88 2.87,-5.24 6.2,-10.29 8.68,-15.89 8.08,-18.26 -12.04,-33.95 -27.29,-24.92 -2.78,1.65 -4.66,3.46 -6.38,5.91 -4.07,5.79 -4.28,12.43 -1.41,19.3 1.12,2.69 10.92,19.57 13.16,23.48 0.9,1.58 3.58,6.81 4.53,7.74zm-2.28 -54.97c-7.43,1.1 -13.78,7.69 -12.5,16.48 1.07,7.35 7.93,13.62 16.59,12.33 7.27,-1.08 13.55,-7.95 12.25,-16.52 -1.1,-7.21 -7.76,-13.56 -16.34,-12.29zm0.39 4.07c-5.27,0.87 -9.86,5.61 -8.8,12.06 0.84,5.12 5.77,9.7 12.14,8.59 5.08,-0.88 9.56,-5.76 8.53,-12.06 -0.83,-5.07 -5.76,-9.6 -11.87,-8.59z"/>
 </g>
</svg>
