<?xml version="1.0" encoding="UTF-8"?>
<!DOCTYPE svg PUBLIC "-//W3C//DTD SVG 1.1//EN" "http://www.w3.org/Graphics/SVG/1.1/DTD/svg11.dtd">
<!-- Creator: CorelDRAW 2018 (64-Bit Evaluation Version) -->
<svg xmlns="http://www.w3.org/2000/svg" xml:space="preserve" width="17.0347mm" height="14.8511mm" version="1.1" style="shape-rendering:geometricPrecision; text-rendering:geometricPrecision; image-rendering:optimizeQuality; fill-rule:evenodd; clip-rule:evenodd"
viewBox="0 0 6.76 5.89"
 xmlns:xlink="http://www.w3.org/1999/xlink">
 <defs>
  <style type="text/css">
   <![CDATA[
    .fil0 {fill:white}
   ]]>
  </style>
 </defs>
 <g id="Слой_x0020_1">
  <metadata id="CorelCorpID_0Corel-Layer"/>
  <path class="fil0" d="M3.38 5.89l0.23 -0.18c0.07,-0.06 0.15,-0.12 0.23,-0.19 0.08,-0.06 0.15,-0.12 0.23,-0.19 0.2,-0.17 0.58,-0.48 0.74,-0.63l0.82 -0.76c0.42,-0.41 0.86,-0.92 1.03,-1.5 0.27,-0.9 -0.06,-1.87 -0.91,-2.27 -0.62,-0.3 -1.4,-0.22 -1.94,0.22 -0.04,0.04 -0.07,0.06 -0.11,0.09 -0.04,0.03 -0.07,0.07 -0.11,0.1l-0.21 0.21c-0.04,-0.03 -0.06,-0.07 -0.1,-0.11 -0.15,-0.13 -0.14,-0.15 -0.33,-0.3 -0.54,-0.44 -1.32,-0.52 -1.95,-0.23 -0.7,0.33 -1.23,1.2 -0.91,2.27 0.13,0.45 0.45,0.89 0.72,1.17l0.85 0.83 0.56 0.49c0.03,0.03 0.08,0.06 0.11,0.09l1.04 0.86zm0 -0.52c0.18,-0.13 1.38,-1.14 1.51,-1.27 0.04,-0.04 0.06,-0.06 0.1,-0.09l0.38 -0.36c0.37,-0.38 0.76,-0.8 0.91,-1.33 0.43,-1.49 -1.07,-2.4 -2.16,-1.67 -0.04,0.03 -0.07,0.05 -0.1,0.08 -0.11,0.09 -0.3,0.26 -0.38,0.37l-0.25 0.29c-0.01,0.01 -0.01,0.01 -0.02,0.02l-0.26 -0.3c-0.11,-0.14 -0.33,-0.35 -0.48,-0.45 -0.31,-0.21 -0.74,-0.33 -1.19,-0.22 -0.74,0.18 -1.24,0.95 -0.98,1.88 0.11,0.38 0.41,0.82 0.63,1.04 0.03,0.03 0.06,0.07 0.09,0.1 0.07,0.07 0.12,0.13 0.19,0.19l0.98 0.89c0.07,0.06 0.13,0.12 0.2,0.17 0.03,0.03 0.06,0.05 0.1,0.08 0.14,0.12 0.61,0.51 0.72,0.59z"/>
 </g>
</svg>
