<?xml version="1.0" encoding="UTF-8"?>
<!DOCTYPE svg PUBLIC "-//W3C//DTD SVG 1.1//EN" "http://www.w3.org/Graphics/SVG/1.1/DTD/svg11.dtd">
<!-- Creator: CorelDRAW X8 -->
<svg xmlns="http://www.w3.org/2000/svg" xml:space="preserve" width="2.57145in" height="0.65952in" version="1.1" style="shape-rendering:geometricPrecision; text-rendering:geometricPrecision; image-rendering:optimizeQuality; fill-rule:evenodd; clip-rule:evenodd"
viewBox="0 0 1137 292"
 xmlns:xlink="http://www.w3.org/1999/xlink">
 <defs>
  <style type="text/css">
   <![CDATA[
    .fil0 {fill:white}
   ]]>
  </style>
 </defs>
 <g id="Слой_x0020_1">
  <metadata id="CorelCorpID_0Corel-Layer"/>
  <path class="fil0" d="M1052 13c73,33 105,120 72,193 -33,73 -120,106 -193,73 -73,-34 -106,-120 -72,-193 33,-74 119,-106 193,-73zm-52 141c35,16 51,57 35,92 -16,35 -57,51 -92,35 -2,-1 -3,-1 -4,-2 28,-3 53,-21 65,-48 12,-26 9,-55 -4,-77 0,0 0,0 0,0zm-16 -16c-35,-16 -51,-57 -35,-92 16,-35 57,-51 92,-35 2,1 3,1 4,2 -28,4 -53,21 -65,48 -12,26 -9,55 4,77 0,0 0,0 0,0zm11 -3c-4,-38 24,-72 62,-76 39,-4 73,24 76,63 0,1 1,2 1,3 -17,-22 -45,-35 -74,-32 -29,3 -52,19 -65,43 0,-1 0,-1 0,-1zm-6 22c4,38 -24,72 -62,76 -39,4 -73,-24 -76,-62 0,-2 -1,-3 -1,-4 17,22 45,35 74,32 29,-3 52,-19 65,-42 0,0 0,0 0,0zm14 -14c31,-22 75,-15 97,16 22,31 15,75 -16,97 -1,1 -2,2 -3,2 11,-25 8,-56 -9,-80 -17,-23 -43,-35 -69,-35 0,0 0,0 0,0zm-22 6c-31,23 -75,15 -97,-16 -22,-31 -15,-75 16,-97 1,-1 2,-1 3,-2 -11,26 -8,56 9,80 17,23 43,35 69,35 0,0 0,0 0,0zm-928 32l-6 51 -46 0 15 -131c-2,-4 -10,-3 -16,-1l4 -37c15,-6 40,-6 51,2 31,-16 75,-7 84,23 14,50 -25,104 -86,93zm9 -83l0 0 -4 45c43,15 53,-58 4,-45zm280 -38l-7 59c36,-17 64,4 66,38 4,67 -62,98 -121,66l18 -163 44 0zm-10 138c10,3 21,-5 22,-16l2 -21c0,-6 -5,-9 -11,-9 -6,-1 -14,8 -15,16l-2 19c-1,7 -1,10 4,11zm138 -138l-15 137c1,4 10,1 13,4l-5 33c-31,3 -57,2 -53,-35l16 -139 44 0zm176 101l-41 6c-1,-7 1,-16 -5,-17 -18,2 -20,39 -9,47 12,9 29,-5 42,-7l6 31c-41,30 -98,14 -99,-38 -1,-16 4,-40 18,-54 23,-23 98,-26 88,32zm127 -45l-9 82c1,3 9,0 10,3l-4 33c-18,3 -39,1 -44,-13 -13,13 -41,21 -59,8 -25,-18 -20,-73 1,-97 16,-18 46,-24 65,-13 3,-2 6,-3 10,-3l30 0zm-554 66l7 -66c14,0 29,0 43,0l-9 82c1,4 9,0 10,3l-4 33c-18,3 -39,1 -44,-13 -15,12 -42,22 -59,10 -7,-5 -13,-12 -12,-25l6 -53c0,-4 -6,-3 -10,-3l3 -34c16,-1 37,-4 45,3 6,6 8,14 7,23l-6 49c-1,12 21,7 23,-9zm314 -66l-10 81c1,4 8,1 10,4 -2,11 -3,22 -5,33 -16,2 -52,6 -49,-26l10 -92 44 0zm186 35c-10,-3 -21,5 -22,17l-2 21c-1,6 5,10 11,10 6,0 14,-8 15,-17l3 -19c0,-8 0,-11 -5,-12zm-202 -96c16,0 28,12 28,26 -1,14 -14,26 -30,26 -16,0 -28,-12 -28,-26 1,-14 14,-26 30,-26z"/>
 </g>
</svg>
