<?xml version="1.0" standalone="no"?>
<!DOCTYPE svg PUBLIC "-//W3C//DTD SVG 1.1//EN" "http://www.w3.org/Graphics/SVG/1.1/DTD/svg11.dtd" >
<svg xmlns="http://www.w3.org/2000/svg">
<metadata>Generated by IcoMoon</metadata>
<defs>
<font id="icomoon" horiz-adv-x="1024">
<font-face units-per-em="1024" ascent="960" descent="-64" />
<missing-glyph horiz-adv-x="1024" />
<glyph unicode="&#x20;" horiz-adv-x="512" d="" />
<glyph unicode="&#xe900;" glyph-name="burger" horiz-adv-x="1198" d="M0 961.312h1197.729v-128.328h-1197.729v128.328zM0 533.552h1197.729v-171.104h-1197.729v171.104zM0 63.016h1197.729v-128.328h-1197.729v128.328z" />
<glyph unicode="&#xe901;" glyph-name="buy" horiz-adv-x="1157" d="M0 960.222c0-3.611 1.204-4.815 2.408-8.427 3.611-7.223 6.019-15.65 10.834-22.872l22.872-50.56h139.642c4.815 0 10.834-1.204 14.446-2.408 10.834-4.815 14.446-8.427 20.465-18.057 3.611-6.019 6.019-12.038 7.223-18.057 0 0 0 0 0-1.204 2.408-7.223 3.611-22.872 6.019-28.892l13.242-63.802c1.204-2.408 0 0 1.204-2.408l8.427-46.949c0 0 0 0 0-1.204l3.611-18.057c0 0 0 0 0-1.204 0 0 0 0 0-1.204l4.815-20.465c0 0 0 0 0-1.204s0-2.408 0-3.611c0 0 0-2.408 0-3.611l2.408-14.446c0 0 0-2.408 0-2.408l4.815-21.669c1.204-4.815 1.204-9.631 2.408-13.242l9.631-49.356c1.204-3.611 1.204-2.408 1.204-4.815l2.408-12.038c0-1.204 1.204-4.815 1.204-6.019l14.446-69.821c0-2.408 0-3.611 1.204-6.019 1.204-3.611 1.204-2.408 1.204-4.815 1.204-3.611 1.204-8.427 2.408-12.038l6.019-28.892c1.204-3.611 1.204-2.408 1.204-4.815 1.204-3.611 1.204-8.427 1.204-12.038 0-2.408 0-1.204 1.204-2.408l1.204-2.408c1.204-3.611 1.204-8.427 2.408-12.038s1.204-1.204 1.204-4.815c1.204-4.815 1.204-10.834 2.408-15.65l2.408-14.446c1.204-6.019 2.408-14.446 4.815-20.465 1.204-4.815 1.204-9.631 2.408-14.446 1.204-3.611 1.204-1.204 1.204-4.815 0-2.408 0-3.611 1.204-6.019l3.611-18.057c0 0 0 0 0-1.204l2.408-10.834c0-2.408 1.204-3.611 1.204-6.019 1.204-1.204 0 0 1.204-2.408 3.611-9.631 7.223-18.057 12.038-26.484l6.019-8.427c0 0 0 0 0 0l4.815-6.019c3.611-4.815 7.223-7.223 10.834-10.834 0 0 0 0 0 0 8.427-6.019 21.669-14.446 31.299-16.853 2.408 0 3.611-1.204 4.815-1.204l14.446-3.611c3.611-1.204 0 0 2.408-1.204 12.038-2.408 215.483-1.204 243.17-1.204 92.694 0 186.591 0 279.285 0 15.65 0 30.095-1.204 44.541 3.611 2.408 1.204 0 0 2.408 1.204l4.815 2.408c4.815 3.611 9.631 7.223 13.242 10.834l3.611 3.611c0 0 0 0 0 0l1.204 1.204c3.611 4.815 6.019 9.631 9.631 15.65l6.019 18.057c2.408 7.223 3.611 13.242 3.611 21.669-26.484 0-550.143-1.204-560.977 0-3.611 0-7.223 1.204-10.834 2.408-2.408 1.204 0 0-2.408 1.204l-15.65 6.019c0 0-1.204 0-1.204 1.204-6.019 3.611-8.427 6.019-13.242 9.631l-9.631 10.834c0 1.204-1.204 1.204-1.204 2.408-2.408 3.611-4.815 8.427-7.223 13.242-6.019 12.038-3.611 9.631-7.223 20.465l-2.408 10.834c0 2.408 0 3.611-1.204 4.815l-8.427 38.522c-1.204 3.611-1.204 7.223-1.204 10.834l-4.815 21.669c0 1.204-1.204 3.611-1.204 4.815l-1.204 6.019c-1.204 4.815-1.204 9.631-2.408 14.446v1.204c0 0 0 0 0 1.204-2.408 6.019-1.204 8.427-3.611 18.057l698.212 1.204c8.427 2.408 16.853 4.815 25.28 9.631 6.019 4.815 15.65 14.446 18.057 19.261 0 0 0 0 0 0l6.019 16.853c1.204 4.815 1.204 8.427 2.408 13.242 0 2.408 0 4.815 0 7.223 0 4.815 1.204 1.204 1.204 6.019s1.204 9.631 1.204 14.446l2.408 16.853c1.204 6.019 0 12.038 1.204 18.057 1.204 3.611 1.204 0 1.204 6.019s0 8.427 1.204 14.446c0 3.611 0 10.834 1.204 14.446l2.408 13.242c0 6.019 0 9.631 1.204 14.446 0 6.019 1.204 2.408 1.204 6.019 1.204 7.223 0 22.872 2.408 30.095 0 0 0 0 0 1.204l2.408 25.28c0 6.019 2.408 10.834 2.408 20.465 0 8.427 1.204 21.669-1.204 28.892 0 0 0 0 0 0v1.204c-1.204 3.611-1.204 4.815-3.611 7.223-4.815 7.223-10.834 14.446-18.057 20.465-6.019 4.815-19.261 9.631-26.484 12.038-9.631 1.204-16.853 3.611-27.688 3.611h-275.673c-163.719 0-327.437 0-489.952 0l-1.204 4.815c0 0 0 0 0 1.204l-4.815 25.28c0 0 0 2.408-1.204 2.408l-19.261 67.414-16.853 33.707c0 0 0 0 0 0s-1.204 1.204-1.204 1.204l-2.408 3.611c0 0 0 0 0 0l-10.834 10.834c-3.611 3.611-12.038 8.427-19.261 10.834-20.465 7.223-28.892 7.223-52.968 7.223h-180.572zM420.131 30.879v-13.242c0-1.204 1.204-3.611 2.408-7.223 0-2.408 1.204-7.223 1.204-9.631 2.408-8.427 7.223-20.465 13.242-27.688l7.223-9.631c0 0 0 0 0 0l1.204-1.204c4.815-4.815 9.631-9.631 15.65-13.242 1.204-1.204 2.408-1.204 3.611-2.408l9.631-4.815c3.611-1.204 4.815-1.204 8.427-2.408 2.408-1.204 1.204 0 3.611-1.204s6.019-1.204 10.834-2.408h21.669c6.019 0 12.038 1.204 15.65 2.408 2.408 1.204 4.815 1.204 7.223 2.408l22.872 14.446c0 0 0 0 0 0l7.223 6.019c0 0 0 0 0 0l1.204 1.204c7.223 7.223 13.242 18.057 16.853 27.688 3.611 6.019 4.815 16.853 4.815 24.076 0 10.834 1.204 26.484-2.408 36.114l-4.815 13.242c-1.204 3.611-1.204 3.611-3.611 6.019s-2.408 3.611-3.611 6.019c-3.611 6.019-9.631 10.834-15.65 15.65l-8.427 6.019c-1.204 1.204-1.204 1.204-3.611 2.408-20.465 8.427-24.076 10.834-49.356 10.834-10.834 0-20.465-1.204-30.095-6.019-10.834-4.815-20.465-9.631-28.892-18.057-3.611-3.611-7.223-6.019-9.631-10.834l-7.223-10.834c0 0 0 0 0 0s-1.204-1.204-1.204-2.408l-2.408-7.223c-4.815-16.853-2.408-14.446-4.815-21.669-1.204-3.611-1.204 0-1.204-3.611zM863.134-63.019c8.427 0 15.65 1.204 22.872 3.611 0 0 2.408 0 2.408 1.204 2.408 0 3.611 1.204 4.815 1.204 7.223 2.408 14.446 7.223 20.465 10.834 9.631 7.223 19.261 16.853 24.076 27.688l2.408 3.611c1.204 2.408 0-1.204 1.204 3.611l6.019 20.465c2.408 8.427 2.408 22.872 0 31.299 0 3.611 0 1.204-1.204 2.408 0 0 0 0 0 1.204l-4.815 15.65c-2.408 4.815-4.815 8.427-7.223 13.242l-2.408 4.815c-3.611 6.019-8.427 10.834-14.446 15.65l-9.631 7.223c0 0 0 0 0 0s0 0 0 0l-14.446 7.223c-1.204 1.204-1.204 0-2.408 1.204-8.427 3.611-14.446 2.408-20.465 3.611l-12.038 1.204c-6.019 0-2.408-1.204-6.019-1.204-2.408 0-4.815 0-8.427-1.204-2.408 0-4.815-1.204-6.019-1.204-2.408 0-1.204 0-2.408-1.204 0 0 0 0-1.204 0l-14.446-6.019c-10.834-6.019-20.465-13.242-28.892-24.076l-2.408-2.408c0 0 0 0 0 0l-1.204-1.204c-6.019-9.631-12.038-20.465-13.242-32.503l-1.204-3.611c0 0 0 0 0-1.204s0 0-1.204-2.408c-1.204-4.815-1.204-19.261 1.204-25.28 2.408-7.223 2.408-13.242 6.019-21.669l7.223-13.242c1.204-1.204 1.204-1.204 2.408-2.408s1.204-1.204 1.204-2.408c1.204-1.204 2.408-2.408 3.611-3.611l8.427-8.427c9.631-7.223 10.834-8.427 22.872-14.446 2.408-1.204 1.204-1.204 2.408-1.204 6.019-2.408 16.853-6.019 27.688-6.019h9.631zM340.679 714.645h741.549l-18.057-190.202h-690.989l-31.299 190.202z" />
<glyph unicode="&#xe902;" glyph-name="clock" d="M511.984-64c-282.318 0-511.984 229.666-511.984 512.016 0 282.285 229.666 511.984 511.984 511.984s511.984-229.699 511.984-511.984c0.033-282.351-229.666-512.016-511.984-512.016zM511.984 901.479c-250.041 0-453.463-203.422-453.463-453.463 0-250.074 203.422-453.496 453.463-453.496s453.463 203.422 453.463 453.496c0.033 250.041-203.389 453.463-453.463 453.463zM669.017 261.739c-7.517 0-14.968 2.835-20.705 8.572l-157.001 157.001c-5.506 5.506-8.572 12.924-8.572 20.705v332.168c0 16.155 13.089 29.244 29.277 29.244 16.155 0 29.244-13.056 29.244-29.244v-320.068l148.429-148.429c11.44-11.44 11.44-29.969 0-41.377-5.737-5.737-13.221-8.572-20.672-8.572z" />
<glyph unicode="&#xe903;" glyph-name="comments" horiz-adv-x="1195" d="M-1.37 529.523l1.37 31.513c1.37 9.591 2.74 19.182 4.11 28.773 2.74 17.812 8.221 35.623 13.701 50.695 15.071 39.734 34.253 71.247 58.916 102.76l54.805 57.545 63.026 47.955c49.325 31.513 97.279 53.435 153.455 72.617 183.597 60.286 416.52 49.325 590.526-38.364 75.357-38.364 141.123-89.058 191.818-158.935 17.812-24.662 23.292-36.994 35.623-61.656 8.221-17.812 17.812-52.065 21.922-72.617 10.961-58.916 4.11-113.721-13.701-165.786-15.071-46.584-49.325-97.279-84.948-132.903-19.182-17.812-26.032-26.032-49.325-45.214-35.623-28.773-95.909-63.026-138.383-80.838-60.286-24.662-105.5-38.364-169.896-49.325-45.214-6.851-146.604-13.701-194.559-8.221-4.11 0-34.253 2.74-36.994 2.74-2.74-1.37-41.104-32.883-45.214-35.623l-60.286-41.104c-26.032-16.442-64.396-35.623-93.169-47.955-41.104-17.812-145.234-50.695-190.448-50.695-13.701 0-27.403 17.812-27.403 31.513 0 12.331 9.591 23.292 16.442 31.513 10.961 12.331 36.994 38.364 45.214 49.325 31.513 39.734 31.513 34.253 54.805 83.578 6.851 13.701 23.292 54.805 24.662 68.507-6.851 2.74-15.071 8.221-21.922 12.331s-13.701 8.221-20.552 13.701c-94.539 65.766-165.786 156.195-179.487 274.026-1.37 8.221-2.74 21.922-2.74 31.513zM54.805 529.523c0-8.221 1.37-16.442 1.37-24.662 10.961-101.39 75.357-178.117 157.565-235.662 6.851-4.11 12.331-8.221 19.182-12.331 5.481-4.11 12.331-8.221 17.812-10.961l31.513-16.442-2.74-35.623c-1.37-23.292-19.182-65.766-30.143-87.688-8.221-17.812-17.812-36.994-28.773-53.435-9.591-13.701-20.552-27.403-31.513-39.734-2.74-4.11-6.851-8.221-9.591-12.331 38.364 10.961 80.838 24.662 102.76 34.253 27.403 12.331 60.286 27.403 84.948 43.844l57.545 39.734c17.812 13.701 43.844 39.734 64.396 43.844 13.701 2.74 39.734 0 54.805-2.74 27.403-2.74 58.916-1.37 86.318 0 30.143 1.37 63.026 4.11 91.799 8.221 57.545 9.591 104.13 23.292 158.935 45.214 39.734 16.442 90.429 45.214 124.682 72.617 16.442 13.701 30.143 26.032 45.214 41.104 30.143 28.773 58.916 73.987 72.617 112.351 15.071 45.214 20.552 90.429 10.961 138.383-2.74 16.442-10.961 43.844-17.812 57.545-9.591 19.182-17.812 35.623-30.143 53.435-45.214 61.656-104.13 108.24-172.636 142.494-161.675 80.838-378.156 91.799-549.422 34.253-49.325-16.442-94.539-36.994-139.753-65.766l-57.545-43.844-49.325-53.435c-20.552-26.032-36.994-53.435-49.325-84.948-5.481-13.701-8.221-27.403-10.961-41.104-1.37-8.221-2.74-16.442-2.74-23.292l-1.37-27.403z" />
<glyph unicode="&#xe904;" glyph-name="crown" horiz-adv-x="1438" d="M470.8 763.909c-47.255 9.334-81.675 37.337-87.509 85.759-13.418 110.262 135.931 151.099 184.353 57.756 23.336-46.088 2.917-105.595-29.17-122.513 4.667-14.001 30.92-46.088 40.838-60.090 12.835-19.252 26.836-37.921 40.838-57.756 13.418-18.669 27.42-37.337 41.421-57.756 12.835-18.085 25.086-40.838 58.923-40.254 33.254 0.583 43.755 23.336 57.756 42.004 15.168 21.002 117.262 161.017 121.346 173.852-32.087 16.335-51.922 77.008-28.586 121.93 16.918 33.254 62.423 65.924 116.679 48.422 88.676-29.17 98.594-168.018-19.835-191.354 1.75-64.173 13.418-158.684 19.252-229.274 2.334-29.17 7.001-43.755 25.086-56.589 33.837-24.503 75.258 2.334 123.096 25.086 37.921 17.502 76.425 32.67 113.179 50.755-28.003 129.514 97.427 168.601 162.184 103.844 67.090-67.090 4.084-193.687-109.678-156.933-12.251-11.668-158.684-345.37-169.768-359.371-23.919 10.501-70.591 57.756-178.519 96.844-155.183 56.006-311.533 56.589-467.3 0-45.505-16.918-119.013-53.089-158.1-82.259-7.584-5.834-11.668-11.085-21.002-13.418-29.17 54.839-56.006 121.346-84.592 180.853-11.668 23.336-76.425 169.768-84.592 177.352-113.179-36.754-176.769 89.843-109.678 156.933 65.924 65.924 190.187 23.336 162.184-103.844 51.922-25.669 117.262-51.339 171.518-77.592 47.838-22.752 85.176-1.167 90.426 61.84 5.251 68.257 16.918 163.934 19.252 225.774zM186.103 506.631l137.681-299.282c12.251 4.084 82.259 51.922 173.852 81.675 186.103 60.673 409.543 41.421 575.811-58.923 12.835-7.584 28.003-17.502 40.254-23.336l139.431 299.282c-16.335-3.5-47.838-19.252-63.59-26.836-21.586-10.501-42.004-18.669-62.423-28.003-45.505-21.586-88.676-43.755-138.848-10.501-42.004 28.586-43.755 69.424-48.422 132.431-4.667 54.839-7.001 111.428-14.585 166.268-14.585-14.001-30.92-41.421-43.755-58.923l-87.509-120.763c-17.502-16.918-35.004-34.42-73.508-34.42-63.59-0.583-87.509 47.838-119.013 92.76-14.001 19.252-77.008 111.428-88.676 121.346-5.834-54.256-9.918-112.012-14.001-166.851-5.251-61.257-7.584-103.844-49.005-131.264-51.339-34.42-92.76-12.251-138.848 9.918-20.419 9.334-40.838 18.085-62.423 28.003-15.752 7.584-47.255 23.336-62.423 27.42zM328.452 85.42c35.587 35.004 109.095 78.175 167.434 101.511 67.090 26.836 142.932 43.755 224.607 43.171 131.847 0 298.115-56.589 389.708-145.265l-72.341-148.766-638.234 1.167-71.174 148.182zM383.291 71.418l43.171-90.426 581.645-0.583c10.501 8.168 39.671 75.258 46.672 91.010-18.669 24.503-103.261 65.924-144.682 80.509-57.756 21.586-120.763 34.42-189.603 34.42-67.674 0-134.181-13.418-190.77-33.837-41.421-14.585-127.764-56.589-146.432-81.092zM466.133 913.258c-71.758-22.752-36.754-123.096 30.92-103.261 65.34 19.835 37.337 124.847-30.92 103.261zM942.767 913.258c-68.257-19.252-39.087-123.096 30.337-103.261 23.919 7.001 46.672 34.42 35.587 67.674-7.584 23.919-32.087 44.921-65.924 35.587zM1325.474 642.562c-67.674-19.835-39.087-125.43 30.92-103.261 65.34 21.002 36.754 123.096-30.92 103.261zM82.842 641.979c-69.424-22.169-35.587-121.93 30.337-102.678 25.086 7.001 46.672 34.42 36.171 67.674-7.001 24.503-35.004 44.921-66.507 35.004z" />
<glyph unicode="&#xe905;" glyph-name="enter" horiz-adv-x="956" d="M405.807-64h434.862c22.254 8.872 33.381 5.263 58.643 19.698 67.064 38.344 55.937 106.159 55.937 178.636v627.181c0 55.786 3.458 90.671-24.359 133.376-34.133 52.478-60.448 48.869-91.423 65.109h-432.606c-12.781-6.165-27.968-8.12-41.802-15.488-33.682-17.593-64.959-53.531-76.687-92.927-7.218-24.209-9.022-189.914-5.112-220.889 4.812-38.644 56.538-37.291 60.448 2.707 3.007 30.976 0.15 79.243 0.15 112.174 0 33.532-5.263 75.033 8.872 102.55 10.676 20.901 33.682 44.96 61.951 49.471 22.705 3.609 294.419 1.203 341.333 1.203 35.336 0 73.229 5.413 100.144-11.428 50.824-32.028 38.043-116.835 38.043-189.763 0-103.453 7.218-647.481-7.218-671.69-15.789-26.164-49.922-28.87-86.010-28.72h-336.070c-119.993 0-121.046 15.789-120.895 105.107 0 38.344 0 76.838 0.15 115.181 0 20.6-0.752 36.539-14.135 44.208-14.886 8.721-32.179 2.707-39.998-7.067-13.984-16.991-7.067-81.649-7.067-107.663 0-30.976-3.007-81.8 1.353-110.369 12.932-86.311 99.393-92.325 121.797-100.746zM611.208 487.095c-34.434-4.060-419.524-1.053-488.843-1.053-40.749 0-136.082 15.037-120.745-39.998 6.616-23.908 33.532-21.202 59.996-21.051l576.207 0.15-150.217-156.833c-25.562-25.412-9.022-60.448 21.502-57.14 18.646 2.105 90.822 80.597 107.663 97.588l104.054 103.904c29.773 35.336-21.803 67.515-69.77 116.083-35.186 35.787-68.417 68.868-103.904 104.054-11.729 11.578-37.592 46.313-63.906 20.6-31.276-30.675 34.885-70.221 76.386-113.678l51.426-52.628z" />
<glyph unicode="&#xe906;" glyph-name="exit" horiz-adv-x="956" d="M421.094-64h417.185c37.926 0 37.926 0 75.852 37.926s37.926 75.852 37.926 151.704v644.741c0 37.926 0 75.852-37.926 113.778-37.926 75.852-37.926 75.852-75.852 75.852h-417.185c-37.926 0-37.926 0-37.926 0-37.926-37.926-75.852-75.852-75.852-113.778-37.926 0-37.926-189.63-37.926-227.556 37.926-37.926 75.852-37.926 75.852 0s0 113.778 0 113.778c0 37.926 0 75.852 0 113.778 37.926 37.926 37.926 37.926 75.852 37.926 0 0 303.407 0 341.333 0s75.852 37.926 75.852 0c75.852-37.926 37.926-113.778 37.926-189.63 0-113.778 37.926-644.741 0-644.741 0-37.926-37.926-37.926-75.852-37.926h-341.333c-113.778 0-113.778 0-113.778 113.778 0 37.926 0 75.852 0 113.778 0 0 0 37.926 0 37.926-37.926 0-37.926 0-37.926 0-37.926-37.926-37.926-113.778-37.926-113.778 0-37.926 0-75.852 0-113.778 37.926-75.852 113.778-113.778 151.704-113.778zM610.724 504.889c-37.926 0-417.185 0-493.037 0-37.926 0-113.778 0-113.778-37.926s37.926-37.926 75.852-37.926h568.889l-151.704-151.704c-37.926-37.926 0-75.852 0-75.852 37.926 0 113.778 113.778 113.778 113.778l113.778 113.778c37.926 37.926-37.926 37.926-75.852 113.778-37.926 37.926-75.852 75.852-113.778 75.852 0 37.926-37.926 75.852-37.926 37.926-37.926-37.926 37.926-75.852 75.852-113.778l37.926-37.926z" />
<glyph unicode="&#xe907;" glyph-name="geo" horiz-adv-x="698" d="M337.463-63.852c-17.074 14.847-12.472 8.017-25.091 30.139-6.978 12.323-11.729 20.637-18.559 32.515-57.31 100.514-131.693 240.967-188.706 332.871-96.357 155.597-153.815 298.128-49.441 467.682 88.785 144.016 231.911 148.025 256.557 160.645h74.681c24.052-12.026 75.274-6.681 152.479-56.419 141.047-90.864 200.732-272.592 127.536-436.948-37.266-83.886-200.88-364.049-259.526-470.057-21.38-38.751-18.262-41.275-43.947-60.576h-25.982zM352.756 22.707c17.074 36.078 43.65 78.838 63.991 114.768 21.825 38.454 44.393 78.541 65.327 116.995 42.611 77.798 92.052 152.776 128.872 235.919 119.964 271.107-178.758 504.057-405.176 369.988-41.275-24.498-69.187-51.371-94.724-87.746-60.427-85.964-63.545-184.549-20.934-286.548 16.629-39.939 162.13-290.556 195.387-348.608 13.362-23.458 53.152-101.108 67.257-114.916zM318.904 838.848c127.388 18.856 226.269-75.423 242.601-182.47 19.301-127.239-73.938-229.238-181.876-245.273-128.575-19.153-230.426 73.938-246.312 183.064-19.004 130.505 75.274 228.347 185.588 244.679zM324.695 778.421c-78.244-12.917-146.392-83.292-130.654-179.055 12.472-76.017 85.667-144.016 180.243-127.536 75.423 13.065 141.938 85.519 126.645 179.055-12.323 75.274-85.519 142.532-176.234 127.536z" />
<glyph unicode="&#xe908;" glyph-name="info" d="M511.322 893.542c-245.489 0-444.864-199.375-444.864-444.864s199.375-444.864 444.864-444.864c245.489 0 444.864 199.375 444.864 444.864s-199.375 444.864-444.864 444.864zM511.322 960c282.109 0 511.322-229.213 511.322-511.322s-229.213-511.322-511.322-511.322c-282.109 0-511.322 229.213-511.322 511.322s229.213 511.322 511.322 511.322zM485.552 544.975h50.183c13.563 0 24.413-10.85 24.413-24.413v-355.348c0-13.563-10.85-24.413-24.413-24.413h-50.183c-13.563 0-24.413 10.85-24.413 24.413v355.348c0 13.563 10.85 24.413 24.413 24.413zM515.391 725.362c35.264 0 63.746-28.482 63.746-63.746s-28.482-63.746-63.746-63.746c-35.264 0-63.746 28.482-63.746 63.746s28.482 63.746 63.746 63.746z" />
<glyph unicode="&#xe909;" glyph-name="linke" horiz-adv-x="1175" d="M585.543-58.486l-180.702 149.426c-5.213 5.213-13.9 10.425-19.113 15.638l-97.301 85.138-147.689 144.214c-46.913 48.65-102.514 125.101-125.101 203.29-55.601 185.914 36.488 337.078 158.114 394.416 109.464 50.388 244.99 36.488 338.816-39.963 33.013-26.063 31.275-29.538 57.338-52.126 6.95-6.95 10.425-13.9 17.375-19.113l36.488 36.488c6.95 5.213 12.163 12.163 19.113 17.375s12.163 8.688 19.113 15.638c93.826 76.451 229.352 90.351 337.078 38.225 147.689-69.501 205.027-238.040 158.114-394.416-29.538-100.776-105.989-189.389-178.964-260.628l-142.476-132.051c-27.8-26.063-93.826-79.926-128.576-109.464-13.9-12.163-26.063-22.588-39.963-33.013-13.9-12.163-27.8-22.588-39.963-33.013l-39.963-31.275zM587.281 26.652c31.275 22.588 239.777 198.077 262.365 220.665 6.95 6.95 10.425 10.425 17.375 15.638l66.026 62.551c64.288 66.026 132.051 139.001 158.114 231.090 74.713 258.89-185.914 417.004-375.304 290.165-6.95-5.213-12.163-8.688-17.375-13.9-19.113-15.638-52.126-45.175-66.026-64.288l-43.438-50.388c-1.738-1.738-1.738-1.738-3.475-3.475l-45.175 52.126c-19.113 24.325-57.338 60.813-83.401 78.188-53.863 36.488-128.576 57.338-206.765 38.225-128.576-31.275-215.452-165.064-170.277-326.653 19.113-66.026 71.238-142.476 109.464-180.702 5.213-5.213 10.425-12.163 15.638-17.375 12.163-12.163 20.85-22.588 33.013-33.013l170.277-154.639c12.163-10.425 22.588-20.85 34.75-29.538 5.213-5.213 10.425-8.688 17.375-13.9 24.325-20.85 105.989-88.613 125.101-102.514z" />
<glyph unicode="&#xe90a;" glyph-name="search" d="M1024.558 25.203c-0.122-0.122-0.366-0.244-0.366-0.611-0.366-2.81-80.381-82.825-84.901-86.001-2.565-1.71-5.375-2.932-9.773-2.443-10.628 1.099-25.776 21.134-33.105 28.463-27.975 27.975-265.21 263.255-269.974 270.463l-30.174-18.935c-2.932-1.955-4.886-2.932-7.94-4.398-9.895-4.886-18.935-10.261-29.196-14.537-13.682-5.619-26.020-10.872-38.969-14.415-0.122 0-0.366-0.122-0.489-0.122l-32.617-8.918c-22.477-4.398-43.489-7.207-66.211-8.796-25.043-1.71-49.475 0.244-74.884 2.565-4.398 0.366-8.063 1.344-10.261 1.71l-16.98 2.81c-13.682 3.176-27.608 6.108-41.168 10.628-0.244 0.122-0.977 0.366-1.222 0.489-1.466 0.489-3.054 0.977-3.787 1.222l-7.818 2.565c-0.733 0.244-2.81 1.222-4.153 1.71-4.031 1.344-5.619 1.955-8.918 3.42l-68.898 35.549c-1.71 1.222-0.366 0.366-1.832 1.222l-48.131 36.77c-8.673 7.33-22.844 22.355-31.273 31.273-1.466 1.466-1.466 1.344-2.81 3.176l-42.023 58.393c-1.099 1.588-1.466 2.321-2.443 3.787-6.108 9.406-11.727 22.111-17.347 33.716-1.344 2.932-2.199 5.375-3.665 8.551l-16.125 44.344c-6.108 15.392-12.583 48.253-13.56 64.867-0.244 4.276-1.099 14.537-1.832 21.745-1.099 10.994-1.832 32.495-0.489 47.398l6.963 56.56c2.565 12.583 5.253 25.165 9.406 37.137l3.42 11.239c0.122 0.122 0.244 0.489 0.244 0.611l10.994 29.196c0.977 2.077 1.222 2.443 1.955 4.276 0.244 0.733 0.489 1.222 0.855 2.077 0 0.122 0.122 0.489 0.244 0.611l2.565 5.009c0.122 0.122 0.244 0.366 0.244 0.489l17.835 34.205c6.963 13.315 16.003 25.531 25.409 37.015 0.366 0.489 0.977 1.344 1.099 1.588l16.125 20.034c12.094 14.415 15.759 17.347 28.83 30.54l57.782 44.588 51.063 27.608c1.955 0.977 0.611 0.244 1.588 0.611l21.012 8.429c0.244 0 0.489 0.122 0.611 0.122 0.244 0.122 0.977 0.366 1.222 0.489l9.162 3.42c2.932 0.855-0.733-0.366 1.71 0.489 1.099 0.366-0.733-0.244 1.71 0.733l33.35 9.651c19.79 5.253 41.901 8.429 62.546 9.040 5.253 0.122 5.742 0.977 11.239 1.099 4.153 0 8.185-0.244 12.338 0l8.673 0.244c18.202 0 38.48-1.955 53.995-4.153 14.537-2.077 28.097-4.153 41.168-7.94 9.529-2.688 29.807-7.818 36.77-11.361l28.952-11.972c18.446-7.818 35.426-18.080 52.529-28.341 13.315-7.94 17.835-12.827 28.952-21.012l2.321-1.466c0.122 0 0.366-0.122 0.489-0.244l53.384-52.040 31.395-40.679c0-0.122 0.244-0.366 0.244-0.489l0.733-1.466c0-0.122 0.122-0.366 0.244-0.489l31.517-58.27 15.392-42.756c0-0.122 0.122-0.366 0.122-0.489l10.75-45.077c0.855-5.131 0.489-6.474 0.855-8.673l2.81-19.057c1.588-8.307 0.611-15.148 1.588-19.057 1.832-7.818 2.077-35.060 0-43.367-1.344-5.131-0.855-15.026-2.077-23.088-3.054-19.912-5.375-38.603-10.261-57.049l-16.736-51.185c0-0.122-0.122-0.366-0.122-0.489l-0.366-1.099c-0.489-0.855-1.466-2.932-1.955-3.909l-7.818-17.835c-1.466-3.176-2.443-5.009-4.031-8.185-1.832-3.665-5.131-7.085-6.23-10.628-1.588-4.886 0.244-1.099-2.199-4.398l-18.691-29.441c7.574-5.009 254.46-254.093 290.375-289.886l8.429-10.994v-8.185zM94.674 578.834c0-11.972-1.222-27.364 0.489-38.48 1.955-12.583 2.443-24.432 4.52-36.282l19.546-63.035c0-0.122 0.122-0.366 0.244-0.489 6.23-16.125 16.125-30.174 24.554-45.077l10.994-16.125c0.122-0.122 0.366-0.366 0.489-0.611l3.42-3.787c1.71-1.955 0.977-1.099 2.077-3.054l17.958-20.889c2.688-2.81 2.932-1.955 5.375-4.886l6.474-6.841c0.122-0.122 0.366-0.366 0.489-0.489l53.628-39.58c7.207-4.886 24.066-13.56 32.495-16.614l32.25-11.605c0.244-0.122 0.977-0.366 1.099-0.489l21.745-5.619c3.298-0.611 4.764-1.222 8.063-1.832 21.867-4.031 43.489-6.352 65.111-5.497l36.404 3.298c10.872 1.099 31.884 4.764 42.634 9.651l10.628 3.665c1.222 0.366 2.688 0.611 4.031 1.099 2.199 0.733 4.398 1.832 7.33 2.81l48.498 23.21c0.244 0.122 0.855 0.733 1.099 0.855 1.588 1.099 0.611 0.366 1.955 1.222l14.904 9.773c1.466 1.099 1.222 0.977 2.932 2.199 2.688 1.832 11.239 7.574 16.614 13.071 0.733 0.855 1.222 1.344 2.077 2.077l31.395 30.051c0.122 0.122 0.366 0.366 0.489 0.489s0.366 0.366 0.489 0.489c0.122 0.122 0.366 0.366 0.489 0.489 2.077 2.565 1.832 3.054 4.52 5.742l4.642 5.253c0.122 0.122 0.244 0.366 0.244 0.489l13.926 19.301c14.293 20.401 26.753 45.444 33.716 68.165l6.841 20.279c0.122 0.244 0.122 0.489 0.244 0.733 4.031 13.071 6.474 26.875 7.696 39.336l2.565 51.185-2.932 33.594c-1.466 13.682-5.131 27.486-8.918 40.557l-0.366 0.977c-10.017 29.196-12.827 35.060-25.531 60.469l-0.489 0.977c0 0.122-0.122 0.366-0.244 0.489l-27.364 40.679c-4.398 5.619-9.406 10.261-13.315 16.125l-44.222 39.824c-7.94 4.642-15.148 10.994-23.333 15.514l-12.46 7.085c-15.392 8.551-31.517 15.27-48.009 21.256-0.122 0-0.489 0.122-0.611 0.244-15.026 5.131-31.762 9.284-47.398 11.483-31.029 4.398-64.134 5.009-95.041 0.244-19.546-3.054-43.611-9.040-62.302-16.369-0.122 0-0.366-0.122-0.489-0.244l-9.651-3.909c-0.122 0-0.366-0.122-0.489-0.244l-41.534-21.745c-13.682-9.773-26.875-17.591-39.336-29.318l-5.619-4.886c0 0-1.222-1.344-1.344-1.344l-17.347-17.469c-6.474-7.818-13.315-14.659-19.179-22.844l-0.855-1.222c-0.122-0.122-0.366-0.366-0.489-0.611-0.122-0.122-0.366-0.366-0.489-0.489-0.977-1.099-0.611-0.611-1.466-1.71l-8.551-12.949c-1.099-1.832-0.366-0.611-1.099-1.955l-3.42-5.131c0-0.122-0.122-0.366-0.244-0.489l-14.048-26.142c0-0.122-0.122-0.366-0.244-0.489l-2.565-5.131c-0.122-0.122-0.244-0.366-0.244-0.489l-1.588-3.054c0-0.122-0.122-0.366-0.122-0.489l-14.659-42.267c-0.733-2.321-1.099-4.398-1.466-6.352-3.054-16.858-6.963-31.884-7.696-48.864l-0.977-7.207z" />
<glyph unicode="&#xe90b;" glyph-name="share" horiz-adv-x="943" d="M791.796 960c-34.133 0-62.243-4.016-90.353-20.078-16.063-10.039-28.11-20.078-40.157-34.133-4.016-4.016-6.024-6.024-8.031-10.039-6.024-8.031-10.039-14.055-14.055-24.094-16.063-34.133-20.078-76.298-10.039-114.447 2.008-4.016 2.008-8.031 4.016-12.047l-108.424-62.243c-22.086-12.047-84.329-46.18-98.384-54.212-12.047-8.031-26.102-14.055-38.149-22.086-2.008 0-4.016-2.008-6.024-4.016l-76.298-42.165c-6.024-4.016-14.055-12.047-24.094-12.047-2.008 4.016-6.024 8.031-10.039 10.039-10.039 12.047-22.086 20.078-34.133 28.11-34.133 20.078-58.227 20.078-96.376 20.078-18.071 0-46.18-10.039-58.227-18.071l-10.039-8.031c-12.047-8.031-26.102-18.071-34.133-30.118-16.063-20.078-22.086-30.118-30.118-56.22-12.047-36.141-8.031-80.314 6.024-114.447 8.031-18.071 18.071-32.125 32.125-46.18 4.016-4.016 6.024-6.024 10.039-10.039 10.039-8.031 22.086-18.071 34.133-24.094 34.133-16.063 80.314-22.086 118.463-10.039 12.047 4.016 20.078 8.031 30.118 14.055 8.031 4.016 44.173 30.118 46.18 40.157 8.031 0 26.102-12.047 34.133-18.071l98.384-54.212c2.008-2.008 4.016-2.008 6.024-4.016l38.149-22.086c32.125-18.071 66.259-36.141 98.384-56.22l54.212-30.118c8.031-4.016 14.055-8.031 22.086-12.047l-6.024-22.086c-12.047-56.22 6.024-110.431 46.18-148.58l10.039-8.031c12.047-8.031 22.086-16.063 36.141-22.086 18.071-8.031 40.157-12.047 60.235-14.055h10.039c10.039 0 20.078 2.008 28.11 4.016 32.125 10.039 52.204 18.071 78.306 42.165 14.055 14.055 24.094 28.11 32.125 46.18 4.016 8.031 8.031 20.078 10.039 30.118 6.024 20.078 6.024 50.196 0 70.275-6.024 28.11-18.071 50.196-36.141 72.282-8.031 8.031-26.102 24.094-38.149 32.125-20.078 14.055-48.188 22.086-76.298 22.086-20.078 0-34.133-2.008-52.204-6.024l-16.063-6.024c-4.016-2.008-10.039-4.016-14.055-8.031-10.039-6.024-18.071-12.047-26.102-18.071-4.016-4.016-8.031-6.024-10.039-10.039-4.016-4.016-10.039-8.031-10.039-12.047-6.024 0-76.298 40.157-88.345 48.188-4.016 2.008-6.024 4.016-10.039 6.024l-34.133 18.071c-6.024 4.016-14.055 8.031-22.086 12.047-4.016 2.008-6.024 4.016-10.039 6.024l-32.125 18.071c-22.086 12.047-44.173 22.086-64.251 36.141l-22.086 12.047c-4.016 2.008-8.031 4.016-10.039 6.024-8.031 4.016-48.188 28.11-54.212 30.118 0 6.024 4.016 16.063 6.024 24.094 10.039 52.204-6.024 76.298-6.024 90.353 4.016 2.008 6.024 4.016 12.047 6.024 2.008 2.008 4.016 2.008 6.024 4.016l80.314 46.18c32.125 18.071 66.259 36.141 98.384 54.212 4.016 2.008 8.031 4.016 10.039 6.024 6.024 4.016 10.039 6.024 16.063 10.039 4.016 2.008 2.008 2.008 6.024 2.008 26.102 14.055 50.196 30.118 76.298 44.173l22.086 12.047c6.024 4.016 14.055 10.039 22.086 12.047 2.008-6.024 16.063-18.071 22.086-22.086 28.11-22.086 58.227-38.149 96.376-38.149 36.141 0 60.235 6.024 88.345 22.086 8.031 4.016 16.063 12.047 22.086 18.071 18.071 14.055 32.125 34.133 42.165 56.22 14.055 34.133 18.071 78.306 6.024 114.447-2.008 6.024-2.008 10.039-4.016 16.063-4.016 8.031-8.031 16.063-14.055 24.094s-12.047 16.063-18.071 22.086c-14.055 14.055-26.102 24.094-44.173 32.125s-42.165 16.063-62.243 16.063zM894.196 799.373c0-62.243-50.196-110.431-110.431-110.431-62.243 0-110.431 50.196-110.431 110.431 0 62.243 50.196 110.431 110.431 110.431 62.243 0 110.431-50.196 110.431-110.431zM894.196 98.635c0-62.243-50.196-110.431-110.431-110.431-62.243 0-110.431 50.196-110.431 110.431 0 62.243 50.196 110.431 110.431 110.431 62.243 0 110.431-50.196 110.431-110.431zM267.749 452.016c0-62.243-50.196-110.431-110.431-110.431-62.243 0-110.431 50.196-110.431 110.431 0 62.243 50.196 110.431 110.431 110.431 62.243 0 110.431-50.196 110.431-110.431z" />
<glyph unicode="&#xe90c;" glyph-name="temp" d="M1023.613 448.911c0-17.38-1.232-29.43-1.684-47.158-0.461-18.202-11.35-67.273-15.421-82.262-5.036-18.544-15.26-54.762-23.571-72.367l-17.702-36.372c-0.797-1.591-0.871-1.933-1.665-3.565-2.2-4.52-2.42-4.381-4.397-7.811-3.358-5.817-5.623-9.556-9.182-15.241-1.878-3-2.487-4.733-4.317-7.891-2.558-4.413-2.42-3.346-5.007-7.204-8.498-12.66-20.070-30.546-29.975-41.541l-33.598-37.918c-6.301-8.353-14.763-14.028-22.474-21.135l-28.755-23.574c-3.552-2.716-1-0.778-3.81-3.165l-85.108-52.694c-5.768-2.91-9.966-5.13-15.344-7.33-12.027-4.914-22.319-9.695-34.646-14.195-31.433-11.482-84.369-25.448-116.967-27.81-14.15-1.026-32.569-0.487-46.264-2.578-27.984-4.268-98.409 4.733-127.849 13.166-6.007 1.723-13.108 2.462-20.041 4.378-5.972 1.652-13.363 3.955-18.554 5.868l-51.855 19.661c-27.639 12.431-52.068 26.807-77.794 42.567-26.174 16.038-70.412 53.188-89.873 77.578l-43.861 53.82c-13.382 18.544-27.104 38.563-36.443 59.495-7.449 16.705-15.941 31.665-22.219 49.3-4.349 12.221-9.559 23.871-12.879 35.959-3.281 11.943-6.449 24.658-9.679 37.418-23.168 91.509-13.453 201.042 19.88 290.815 9.253 24.919 18.202 38.644 25.797 57.93 8.304 21.093 44.309 71.722 61.537 91.963l12.376 13.789c3.868 5.065 7.046 7.927 11.772 12.647l43.502 40.221c33.343 28.11 71.177 50.494 110.434 69.235l25.758 10.872c3.352 1.032 4.914 1.813 8.94 3.271 32.733 11.84 40.599 13.67 73.761 22.177 7.666 1.965 11.208 1.581 19.903 2.771 33.85 4.633 53.146 8.004 87.934 8.004 34.982 0 81.117-4.823 115.499-13.579 24.842-6.33 48.768-14.595 72.7-23.238l44.386-20.154c29.078-14.476 82.265-48.797 104.272-71.903l1.726-1.765c18.051-17.483 18.419-16.176 37.653-37.35l28.459-34.34c13.079-18.731 27.468-37.292 38.366-57.572l39.644-87.692c6.198-16.076 9.643-33.049 13.653-49.142 9.279-37.224 12.982-74.655 12.982-114.353zM86.918 476.825v-5.233c16.963 0 65.954 3.271 80.246-3.481 21.454-10.137 15.563-41.87-13.963-41.87h-66.283c0-10.998 0.552-17.993 1.449-26.461 0.516-4.897 0.097-8.085 0.987-12.966l7.588-36.021c4.42-22.79 11.763-44.693 20.864-66.351 2.971-7.065 6.14-13.269 8.895-19.012 3.613-7.533 5.694-12.534 9.779-19.874 3.684-6.617 6.017-11.756 10.24-17.67 4.123-5.778 8.233-12.398 11.605-18.047l31.081-40.434c16.46-17.535 32.488-36.443 51.981-50.936 11.427-8.495 21.083-17.112 33.162-24.4l35.727-21.838c24.713-13.705 53.826-25.99 81.904-33.22l46.583-10.982c6.172-1.007 46.354-8.101 49.629-4.826 10.353 10.35-14.995 96.038 20.648 96.038 27.978 0 24.423-19.461 24.423-41.863 0-18.073-1.797-40.625 1.742-55.817 60.414 5.026 115.283 19.148 159.317 41.28 11.189 5.623 22.906 10.395 33.275 17.309 18.357 12.231 48.077 29.736 63.989 45.903l21.796 20.070c13.328 11.134 35.517 41.167 46.335 54.833 9.472 11.969 22.438 32.294 28.655 46.351 10.708 24.206 23.329 45.622 29.678 71.493 2.058 8.385 3.871 12.605 6.165 19.999 5.517 17.786 13.24 65.66 13.724 87.444h-69.77c-30.894 0-38.463 45.351 8.72 45.351h61.050c-0.568 25.468-6.304 62.556-13.724 85.701-8.004 24.974-15.137 50.468-26.955 74.216l-27.010 47.997c-3.423 5.459-6.785 10.524-10.534 15.628l-15.692 20.938c-2.484 3.107-3.775 3.939-6.511 7.443-4.626 5.914-6.543 7.662-11.672 12.75-5.326 5.281-7.036 8.814-12.137 14.028l-68.848 54.997c-4.201 2.539-3.897 2.633-7.253 4.959-3.223 2.226-5.591 3.188-8.891 5.062-48.839 27.733-50.252 25.639-106.717 45.038-11.824 4.062-29.113 6.83-41.599 8.988-12.889 2.226-31.988 4.078-45.393 5.191-8.156-34.998 12.737-102.913-22.674-102.913-6.501 0-14.579 4.694-18.041 9.866-8.517 12.734-4.236 65.96-4.446 82.795-0.171 13.721-1.894 11.269-42.58 5.549-35.776-5.030-38.45-9.198-69.102-16.37-20.203-4.73-42.638-16.999-61.176-26.042-3.239-1.581-5.807-2.478-9.601-4.352l-44.757-28.504c-28.142-22.371-34.453-27.071-61.243-53.881-19.838-19.851-35.169-42.886-50.813-66.057-4.475-6.627-7.811-11.973-11.227-18.425-28.497-53.846-52.626-115.56-52.626-179.368zM514.273 473.337c-36.576 0-18.496-16.283-40.686-5.859l-194.812 77.358c-13.363 5.317-22.951 11.689-35.553 4.213-5.659-3.358-9.782-10.224-9.782-18.151 0-17.693 14.047-20.832 26.19-26.139l187.534-74.113c32.827-11.56 25.003-13.037 30.307-22.022 10.698-18.135 40.283-28.926 65.744-6.091 8.543 7.662 4.733 9.175 10.079 19.577 3.965 7.717 16.618 10.269 29.513 15.841l186.276 80.604c7.014 3.497 13.87 4.684 18.012 11.663 9.34 15.725-1.871 44.199-34.453 29.201l-204.985-88.082c-19.219-7.507-4.494-4.381-22.429 0.736-2.778 0.794-6.094 1.268-10.953 1.268z" />
<glyph unicode="&#xe90d;" glyph-name="exchange2" d="M972.8 755.2h-563.2v102.4c0 20.702-12.476 39.372-31.608 47.308-6.332 2.612-12.988 3.892-19.576 3.892-13.33 0-26.42-5.206-36.216-15.002l-307.2-307.2c-14.644-14.644-19.030-36.66-11.094-55.79 7.922-19.132 26.592-31.608 47.294-31.608h921.6c28.28 0 51.2 22.92 51.2 51.2v153.6c0 28.28-22.92 51.2-51.2 51.2zM972.8 550.4h-921.6l307.2 307.2v-153.6h614.4v-153.6zM1020.092 365.192c-7.918 19.132-26.59 31.608-47.292 31.608h-921.6c-28.28 0-51.2-22.92-51.2-51.2v-153.6c0-28.28 22.92-51.2 51.2-51.2h563.2v-102.4c0-20.702 12.476-39.372 31.608-47.308 6.332-2.612 12.988-3.892 19.576-3.892 13.328 0 26.42 5.206 36.216 15.002l307.2 307.2c14.642 14.642 19.028 36.658 11.092 55.79zM665.6 38.4v153.6h-614.4v153.6h921.6l-307.2-307.2z" />
<glyph unicode="&#xe90e;" glyph-name="exchange" d="M82.038 513.44c5.33-2.132 11.511-2.132 16.84 0.426l166.477 75.672c10.657 5.116 15.134 17.905 10.018 28.562-4.902 10.232-17.052 14.922-27.497 10.232l-116.598-53.076c55.634 166.477 210.6 277.745 389.013 277.745 186.94 0 350.431-124.911 397.538-303.75 2.984-11.297 14.708-18.119 26.005-15.134 11.297 2.984 18.119 14.708 15.134 26.005-52.011 197.383-232.342 335.509-438.678 335.509-196.744 0-367.911-122.779-429.726-306.521l-49.026 122.565c-3.623 11.085-15.773 17.266-26.858 13.643s-17.266-15.773-13.643-26.858c0.214-0.853 0.639-1.705 1.065-2.558l67.998-170.525c2.132-5.33 6.395-9.806 11.938-11.936zM1022.703 198.819c-0.214 0.426-0.426 0.853-0.426 1.279l-67.998 170.525c-2.132 5.33-6.395 9.806-11.936 11.936-5.33 2.132-11.511 1.918-16.84-0.426l-166.477-75.672c-10.871-4.476-15.987-17.052-11.511-27.923s17.052-15.987 27.923-11.511c0.426 0.214 0.853 0.426 1.279 0.639l116.598 53.076c-56.060-166.477-211.24-277.745-389.439-277.745-186.94 0-350.431 124.911-397.538 303.75-2.984 11.297-14.708 18.119-26.005 15.134s-18.119-14.708-15.134-26.005c51.797-197.597 232.342-335.509 438.678-335.509 196.744 0 367.697 122.779 429.726 306.521l49.026-122.565c4.051-11.085 16.201-16.84 27.284-12.789 11.083 4.049 16.838 16.199 12.789 27.284z" />
<glyph unicode="&#xe90f;" glyph-name="exchange1" d="M1013.379 565.298l-162.507 162.507c-14.166 14.162-37.12 14.162-51.287 0-14.162-14.162-14.162-37.12 0-51.283l100.607-100.603h-491.744c-20.029 0-36.262-16.233-36.262-36.262s16.233-36.262 36.262-36.262h491.744l-100.607-100.607c-14.162-14.162-14.162-37.12 0-51.283 7.083-7.083 16.362-10.621 25.641-10.621s18.558 3.542 25.641 10.621l162.507 162.507c14.166 14.17 14.166 37.128 0.004 51.287zM615.551 392.605h-491.744l100.607 100.607c14.162 14.162 14.162 37.12 0 51.283-14.166 14.166-37.12 14.162-51.287 0l-162.507-162.515c-14.162-14.162-14.162-37.12 0-51.283l162.507-162.507c7.083-7.079 16.362-10.621 25.641-10.621s18.558 3.542 25.641 10.621c14.162 14.162 14.162 37.12 0 51.283l-100.607 100.603h491.744c20.029 0 36.262 16.233 36.262 36.262s-16.233 36.266-36.258 36.266z" />
<glyph unicode="&#xe910;" glyph-name="like1" d="M949.288 811.46c-50.506 57.308-120.572 88.868-197.288 88.868-107.896 0-176.206-64.44-214.51-118.5-9.938-14.028-18.392-28.094-25.49-41.33-7.098 13.236-15.55 27.302-25.49 41.33-38.304 54.060-106.614 118.5-214.51 118.5-76.716 0-146.782-31.562-197.29-88.87-48.176-54.668-74.71-127.884-74.71-206.16 0-85.206 33.266-164.456 104.69-249.4 63.834-75.92 155.668-154.176 262.010-244.794 39.626-33.768 80.604-68.688 124.23-106.858l1.31-1.148c5.656-4.952 12.708-7.426 19.76-7.426s14.104 2.476 19.76 7.426l1.31 1.148c43.626 38.17 84.604 73.088 124.236 106.862 106.336 90.612 198.17 168.868 262.004 244.79 71.424 84.946 104.69 164.194 104.69 249.4 0 78.276-26.534 151.492-74.712 206.162zM618.386 156.772c-34.16-29.108-69.316-59.066-106.386-91.292-37.068 32.222-72.226 62.182-106.392 91.296-208.118 177.346-345.608 294.508-345.608 448.522 0 63.66 21.21 122.788 59.724 166.49 38.956 44.198 93.034 68.54 152.276 68.54 82.258 0 135.432-50.676 165.552-93.188 27.018-38.128 41.116-76.564 45.924-91.318 4.022-12.35 15.536-20.708 28.524-20.708s24.502 8.358 28.524 20.708c4.808 14.754 18.906 53.19 45.924 91.32 30.12 42.51 83.294 93.186 165.552 93.186 59.242 0 113.32-24.342 152.274-68.54 38.516-43.702 59.726-102.83 59.726-166.49 0-154.014-137.49-271.176-345.614-448.526z" />
<glyph unicode="&#xe911;" glyph-name="like2" d="M941.29 814.55c-53.62 53.62-124.608 82.927-200.371 82.927s-146.968-29.524-200.588-83.144l-28.004-28.004-28.438 28.438c-53.62 53.62-125.042 83.361-200.805 83.361-75.546 0-146.751-29.524-200.154-82.927-53.62-53.62-83.144-124.825-82.927-200.588 0-75.763 29.741-146.751 83.361-200.371l407.689-407.689c5.644-5.644 13.242-8.683 20.623-8.683s14.979 2.822 20.623 8.466l408.557 407.038c53.62 53.62 83.144 124.825 83.144 200.588 0.217 75.763-29.090 146.968-82.71 200.588zM899.609 454.837l-387.934-386.414-387.066 387.066c-42.549 42.549-65.994 98.992-65.994 159.125s23.228 116.576 65.777 158.907c42.332 42.332 98.774 65.777 158.69 65.777 60.133 0 116.793-23.445 159.342-65.994l49.062-49.062c11.506-11.506 29.958-11.506 41.464 0l48.627 48.627c42.549 42.549 99.209 65.994 159.125 65.994s116.358-23.445 158.907-65.777c42.549-42.549 65.777-98.992 65.777-159.125 0.217-60.133-23.228-116.576-65.777-159.125z" />
<glyph unicode="&#xe912;" glyph-name="like3" d="M512-7.031c-14.578 0-28.633 5.281-39.586 14.875-41.367 36.172-81.25 70.164-116.438 100.148l-0.18 0.156c-103.164 87.914-192.25 163.836-254.234 238.625-69.289 83.609-101.563 162.883-101.563 249.484 0 84.141 28.852 161.766 81.234 218.586 53.008 57.492 125.742 89.156 204.828 89.156 59.109 0 113.242-18.688 160.891-55.539 24.047-18.602 45.844-41.367 65.047-67.922 19.211 26.555 41 49.32 65.055 67.922 47.648 36.852 101.781 55.539 160.891 55.539 79.078 0 151.82-31.664 204.828-89.156 52.383-56.82 81.227-134.445 81.227-218.586 0-86.602-32.266-165.875-101.555-249.477-61.984-74.797-151.063-150.711-254.211-238.617-35.25-30.031-75.195-64.078-116.656-100.336-10.945-9.578-25.008-14.859-39.578-14.859zM286.063 844.016c-62.133 0-119.211-24.797-160.734-69.828-42.141-45.711-65.352-108.898-65.352-177.93 0-72.836 27.070-137.977 87.766-211.211 58.664-70.789 145.922-145.148 246.953-231.25l0.188-0.156c35.32-30.102 75.359-64.227 117.031-100.664 41.922 36.508 82.023 70.688 117.414 100.836 101.023 86.102 188.273 160.445 246.938 231.234 60.688 73.234 87.758 138.375 87.758 211.211 0 69.031-23.211 132.219-65.352 177.93-41.516 45.031-98.602 69.828-160.727 69.828-45.516 0-87.305-14.469-124.203-43-32.883-25.438-55.789-57.594-69.219-80.094-6.906-11.57-19.063-18.477-32.523-18.477s-25.617 6.906-32.523 18.477c-13.422 22.5-36.328 54.656-69.219 80.094-36.898 28.531-78.688 43-124.195 43z" />
<glyph unicode="&#xe913;" glyph-name="like" d="M1022.306 640.139c-14.947 164.519-131.395 283.881-277.126 283.881-97.089 0-185.985-52.247-236.006-135.983-49.568 84.82-134.821 136.003-230.354 136.003-145.712 0-262.179-119.362-277.106-283.881-1.182-7.267-6.026-45.512 8.705-107.881 21.23-89.96 70.266-171.786 141.773-236.577l356.747-323.741 362.871 323.721c71.507 64.811 120.544 146.618 141.773 236.597 14.731 62.349 9.886 100.594 8.724 107.861zM975.239 541.298c-19.378-82.161-64.299-157.016-129.78-216.332l-336.285-300.030-330.515 299.951c-65.599 59.435-110.5 134.27-129.898 216.431-13.943 59.021-8.212 92.362-8.192 92.579l0.295 1.989c12.801 144.136 112.863 248.768 237.956 248.768 92.303 0 173.558-56.717 212.118-147.996l18.138-42.991 18.138 42.991c37.949 89.881 123.498 147.977 217.987 147.977 125.073 0 225.155-104.631 238.212-250.638 0.039-0.315 5.77-33.676-8.173-92.697z" />
</font>
</defs>
</svg>
