<?xml version="1.0" encoding="UTF-8"?>
<!DOCTYPE svg PUBLIC "-//W3C//DTD SVG 1.1//EN" "http://www.w3.org/Graphics/SVG/1.1/DTD/svg11.dtd">
<!-- Creator: CorelDRAW 2018 (64-Bit Evaluation Version) -->
<svg xmlns="http://www.w3.org/2000/svg" xml:space="preserve" width="72.0039mm" height="61.563mm" version="1.1" style="shape-rendering:geometricPrecision; text-rendering:geometricPrecision; image-rendering:optimizeQuality; fill-rule:evenodd; clip-rule:evenodd"
viewBox="0 0 59760.27 51094.75"
 xmlns:xlink="http://www.w3.org/1999/xlink">
 <defs>
  <style type="text/css">
   <![CDATA[
    .fil0 {fill:#00CCFF}
    .fil2 {fill:#00CCFF;fill-rule:nonzero}
    .fil1 {fill:white;fill-rule:nonzero}
   ]]>
  </style>
 </defs>
 <g id="Слой_x0020_1">
  <metadata id="CorelCorpID_0Corel-Layer"/>
  <g id="_2619186003936">
   <path class="fil0" d="M31054.4 16955.39c168.9,-363.36 310.32,-2086.52 273.31,-2569.05l-220.02 50.46c-72.62,214.88 46.31,-195.29 -19.84,58.68 -123.66,476.23 -216.2,2146.77 -33.45,2459.91zm1572.02 -6545.97c217.86,-51.29 722.48,-537.32 844.57,-683.97 217.78,-261.52 466.35,-555.82 643.55,-885.65 -144.58,-320.53 -850.54,-960.1 -1140.28,-1251.74 -115.7,-116.19 -271.15,-329.99 -474.49,-358.87 -183.17,341.11 -376.47,1158.04 -384.02,1648.96 -10.04,632.26 216.12,1137.04 510.67,1531.27zm4323.92 -8876.24c-185.66,-77.6 -452.99,-234.3 -710.11,-344.85 -1574.68,-676.42 -2344.38,-869.8 -4016.59,-1105.17 -609.77,-85.82 -1565.3,-100.09 -2176.15,-65.9 -702.48,39.17 -1405.78,117.52 -2103.2,263.93 -198.94,41.83 -369.5,91.21 -586.45,139.77 -516.15,115.53 -1204.02,361.12 -1710.79,560.72 -957.27,377.13 -1843.75,871.12 -2704.67,1460.23 -181.01,124 -343.02,255.79 -521.63,384.35 -514.99,370.66 -1025.58,885.98 -1487.87,1337.73 -103.99,101.59 -185.83,266.67 -267.33,330.24 -70.13,54.69 -22.91,-2.49 -73.53,42.74 -65.73,58.84 -18.18,71.96 -87.48,145.49 -67.81,72.12 -60.5,22.57 -119.27,86.73 -80.26,87.64 7.55,37.51 -170.22,214.88 -16.1,16.18 -54.94,64.9 -64.4,76.77 -1064.84,1320.88 -1751.79,2662.67 -2311.77,4262.75 -166.99,476.81 -80.75,365.68 -107.06,454.32 -10.87,36.52 -68.06,117.27 -98.27,225 -238.03,846.14 -389.58,1807.82 -433.9,2601.01 -11.37,204.83 -18.67,408.26 -29.3,619.56 -5.64,111.21 -4.07,206.99 -2.74,312.81 14.94,1123.76 122.34,2202.54 410.5,3298.84 50.46,192.05 101.75,355.64 158.94,581.88 141.18,557.32 627.45,1720.5 892.62,2232.17 527.6,1017.94 1183.85,2033.9 1960.61,2882.94 76.11,83.33 145.24,166.07 229.57,251.23 842.57,851.79 1185.51,1164.1 2188.35,1882.76 372.4,266.75 990.06,658.24 1415.74,850.04 239.69,107.98 463.28,249.07 705.13,349.74 1011.3,420.96 1618.34,661.56 2710.81,894.36 1726.81,367.59 3256.92,397.47 4992.62,136.11 215.71,-32.45 662.89,-110.97 890.55,-174.79 110.88,-31.12 199.61,-47.64 293.64,-68.64 207.9,-46.89 370.58,-109.8 581.3,-165.49 571.26,-150.97 1635.93,-573.5 2232.34,-888.8 1789.39,-946.15 3267.22,-2088.18 4558.55,-3764.28 82.5,-107.15 156.78,-206.16 230.73,-306.84 470.84,-639.98 697.08,-1045.91 1068.24,-1734.53 642.55,-1191.99 1185.1,-2791.9 1369.76,-4074.43 138.27,-960.51 191.47,-1576.76 175.2,-2532.95 -11.2,-651.93 -102.33,-1456.08 -221.52,-2098.63 -83.83,-453.07 -217.12,-1041.43 -358.46,-1465.87l-339.04 -988.9c-8.47,-22.49 -13.69,-36.6 -23.74,-65.15l-531.17 -1178.04c-392.32,-752.52 -803.32,-1424.87 -1342.13,-2124.86 -867.31,-1127 -1879.52,-2073.49 -3056.82,-2887.84 -363.44,-251.39 -996.03,-670.52 -1409.6,-843.16zm-8421.18 1185.18l5.56 236.21c84.16,27.31 255.96,48.55 291.4,68.47 -244.59,175.7 -619.9,262.27 -989.23,228.57l329.99 123.66c161.18,12.28 274.38,-4.9 422.12,-28.47 -55.28,203.59 -158.69,449.42 -302.02,547.52 -233.97,160.02 -428.34,27.8 -416.31,-219.61 -144.5,72.7 -216.45,192.97 -126.65,355.22 94.62,170.89 237.78,127.65 416.56,200.02 -165.83,38.1 -320.28,90.96 -488.02,29.13 46.73,170.72 394.98,106.98 531.51,103.58 -208.65,252.39 -526.61,500.05 -982.42,388.92 86.15,227.49 307.75,234.21 591.1,240.61 -199.44,179.52 -561.97,261.93 -669.86,507.93l1248.92 -521.3c173.63,-64.9 291.98,-139.93 435.15,-187.24 -411.91,395.14 -1463.3,441.37 -1361.63,1132.98 113.04,-191.06 57.43,-228.74 289.99,-326.26 258.7,-108.48 579.89,-103.25 941.01,-314.97 219.36,-128.73 263.93,-219.19 390.16,-306.5 -335.05,744.39 -1255.73,179.19 -1217.55,2055.14 11.12,540.05 -9.96,1070.56 26.72,1612.28 48.64,720.99 -77.35,784.15 -170.39,1405.78 -148.48,991.55 -23.24,2112.66 -216.45,3046.53 -134.29,649.19 -370.66,1562.81 741.65,1487.29 291.65,-19.75 161.76,-34.94 115.28,-122.25 -26.89,-50.71 -64.4,99.18 -39.76,-146.99 9.79,-99.18 26.81,-48.55 70.38,-179.35 -134.04,-78.43 -134.54,-51.96 -153.46,-262.6 -12.2,-135.78 -8.22,-281.69 -24.15,-418.96 -29.63,-252.06 -145.99,-405.52 -176.45,-682.64 -51.21,-465.27 157.69,-1087.99 258.37,-1517.58 74.78,-318.95 341.2,-1270.5 342.61,-1429.44 3.15,-376.14 -55.52,-1379.31 102.75,-1648.71 708.12,2407.96 51.96,2210.68 47.06,4476.8 -1.08,513.16 103.33,1111.31 -59.01,1558l296.13 47.06c134.62,970.72 336.3,2019.21 521.71,2983.29 211.81,1101.02 209.07,604.21 41.66,1516.92 -65.9,358.79 200.44,1124.35 288.83,1453.01 146.49,545.37 100.18,965.49 209.81,1518.74 48.72,245.67 57.6,510.76 92.46,773.27 54.2,408.59 115.36,333.73 49.38,754.35 -38.26,243.34 -57.43,510.42 -91.3,766.72 -37.93,285.09 -117.27,493.24 -148.15,755.59 -33.78,286.67 8.3,482.29 108.48,601.55 -353.15,-21.74 -710.11,-59.18 -1085.5,-106.98 -406.51,-51.79 -709.12,-129.39 -1092.14,-207.16 -112.87,-22.91 -161.18,-45.81 -276.79,-80.42 -89.88,-26.72 -175.45,-28.14 -286.67,-62.25l-845.31 -291.32c-467.43,-187.07 -970.39,-401.95 -1420.64,-637.74 -498.89,-261.02 -1327.6,-801.66 -1760.84,-1161.86 -2033.73,-1690.46 -3456.45,-3724.77 -4111.7,-6325.61 -197.7,-784.31 -390,-1885.5 -379.46,-2709.9 0.91,-74.53 -12.03,-78.1 -16.77,-123.41l69.8 -1325.36c195.21,-2050.66 1020.68,-4287.32 2386.96,-6026.66 736.92,-938.35 1165.26,-1366.03 2065.77,-2097.47 141.34,-114.87 274.8,-218.03 424.36,-321.69 592.18,-410.66 1149.08,-765.3 1814.46,-1071.81 637.49,-293.81 1235.56,-529.51 1897.12,-712.02 902.08,-248.99 1721.58,-387.67 2547.97,-431.58 -360.53,210.64 -615.25,551.84 -928.97,860.42 -166.07,163.42 -425.19,394.98 -575.58,170.56zm2414.68 22681.03c41.33,-145.24 120.34,-507.35 140.76,-630.27 36.27,-217.2 -80.17,-478.31 -84.16,-720.32 -25.15,-1546.79 511.67,-2873.15 846.23,-4336.87 336.13,-1470.85 -311.4,-1342.79 715.59,-4433.06 72.54,-218.11 143.75,-422.95 212.14,-651.6 158.11,-528.19 6.31,-222.1 385.18,-469.76 13.61,-238.2 -44.49,-549.76 -42.08,-837.26 5.89,-686.87 91.05,-967.48 -134.45,-1632.36 -76.44,-225 -202.43,-453.41 -249.32,-647.2 432.49,-399.54 917.52,-716.34 1329.93,-1097.62 117.44,-108.56 195.46,-166.49 310.82,-278.62 121.92,-118.44 218.94,-173.88 331.24,-297.71 505.11,-557.48 -9.96,-932.29 -480.8,-1515.01l-1089.98 -1348.85c-357.88,-427.26 -286.83,-217.78 -288.74,-934.45 391.16,21.74 913.95,4.81 1057.95,-266.25 -255.71,72.7 -830.62,74.2 -1033.38,-170.14 331.24,56.94 1162.86,227.91 1345.94,-103 -337.79,92.62 -887.31,75.36 -1185.76,-160.68 497.73,71.54 981.26,176.53 1219.13,-239.36 -282.77,74.7 -380.87,177.69 -739.08,83.83 -168.56,-44.24 -527.69,-205.33 -575.83,-336.3 174.87,-1.49 454.98,32.78 549.35,-18.43 -274.05,-85.32 -567.94,-143.17 -818.84,-253.97 775.76,67.48 729.53,74.86 1096.13,343.77 -58.68,-495.65 -336.63,-536.15 -648.36,-749.87 243.18,2.32 454.98,83 633.34,150.47 -116.78,-297.54 -737.17,-294.55 -1011.8,-471.58 110.97,-64.24 111.05,-14.61 221.02,-117.94l-191.39 -25.31c-830.62,-67.64 -945.57,-1089.15 -1396.32,-1538.08 411.08,25.15 834.69,70.3 1280.46,133.79l551.92 97.27c284.43,55.94 848.8,221.85 1134.97,315.38 574.66,187.65 1272.66,448.68 1807.65,755.93 86.65,49.47 153.87,65.9 261.52,128.73 752.44,439.63 1211.16,719.91 1893.55,1296.48l878.43 785.56c98.43,59.01 99.43,123.33 177.61,209.81 183.09,201.93 382.44,408.92 543.54,621.64 674.92,890.46 660.15,871.46 1183.85,1755.2 161.34,272.06 327.25,623.47 453.07,915.53 826.97,1919.45 1160.03,3767.85 975.28,5959.52 -101.09,1198.63 -383.69,2192.09 -819.5,3329.71 -277.7,724.3 -793.19,1673.45 -1260.79,2322.31 -263.68,366.01 -485.77,658.41 -783.23,998.19 -138.85,158.69 -257.04,288.99 -393.98,435.98 -388.25,417.05 -1229,1153.64 -1685.56,1450.44 -244.34,158.94 -420.96,291.98 -676.25,442.53 -46.39,27.31 -61.25,41.58 -109.31,69.72 -1259.79,741.4 -2266.29,1097.29 -3652.98,1420.14 -91.79,21.33 -153.96,29.8 -242.43,49.38 -339.45,75.36 -642.97,99.35 -998.11,143 -326.67,40.09 -638.32,61.33 -944.16,67.56z"/>
   <g>
    <path class="fil1" d="M59760.27 39747.47l-3041.13 0 -2218.15 -3546 -395.39 527.19 0 3018.81 -2551.29 0 0 -11339.06 2551.29 0 0 6355.91 2424.48 -3192.93 3021.3 0 -2872.16 3523.67 3081.06 4652.42zm-9672.09 0l-2551.29 0 0 -4053.19c0,-330.74 -12.45,-658.99 -39.76,-987.15 -27.39,-328.33 -77.1,-569.52 -151.72,-723.72 -86.98,-184 -213.8,-318.29 -380.45,-397.8 -166.57,-79.59 -387.92,-119.35 -666.37,-119.35 -211.31,0 -422.7,39.76 -639.15,116.86 -213.8,77.1 -445.02,201.43 -688.78,370.49l0 5793.86 -2551.29 0 0 -8176.09 2551.29 0 0 905.15c417.8,-355.55 825.64,-631.6 1221.04,-830.46 395.31,-199.02 835.44,-298.45 1315.32,-298.45 835.6,0 1474.67,263.59 1917.2,790.78 442.62,524.62 663.97,1288.1 663.97,2287.7l0 5321.36zm-11678.76 -867.8c-174.04,146.65 -330.74,278.53 -467.43,395.31 -139.27,114.45 -323.27,231.31 -556.99,348.17 -226.33,111.88 -447.6,198.94 -663.97,258.62 -213.88,59.67 -514.74,89.55 -902.66,89.55 -721.15,0 -1320.38,-243.68 -1795.37,-731.11 -477.39,-487.43 -716.17,-1099.03 -716.17,-1840.1 0,-609.19 121.84,-1101.6 363.11,-1474.59 241.19,-375.56 589.27,-673.93 1044.34,-892.7 460.05,-223.84 1009.64,-380.45 1648.71,-467.52 638.99,-86.98 1325.28,-154.12 2061.37,-203.84l0 -44.82c0,-450 -166.57,-763.4 -497.31,-934.95 -330.74,-171.64 -828.05,-258.7 -1489.53,-258.7 -300.86,0 -651.52,54.86 -1051.89,164.25 -400.21,109.39 -793.19,248.66 -1176.05,417.72l-216.45 0 0 -1979.37c253.72,-72.12 659.07,-159.19 1223.53,-258.62 561.97,-99.43 1131.4,-149.23 1703.32,-149.23 1407.44,0 2431.95,233.72 3075.91,703.72 644.05,470.01 964.83,1186.09 964.83,2150.92l0 5575.08 -2551.29 0 0 -867.8zm0 -1268.18l0 -1713.37c-427.68,44.82 -775.85,82.08 -1039.36,114.45 -266.08,29.8 -524.7,91.96 -780.83,186.41 -221.35,77.19 -392.9,196.45 -517.23,353.15 -121.92,159.1 -184,370.49 -184,634.09 0,385.43 102,649.03 305.84,793.27 206.41,144.25 507.27,216.37 907.64,216.37 221.27,0 447.6,-52.29 678.82,-154.21 231.31,-102 440.13,-246.17 629.11,-430.17zm-8296.85 -1230.91c0,-335.64 -67.14,-596.74 -203.92,-785.8 -136.78,-191.47 -340.7,-333.23 -611.76,-430.08 -166.57,-64.74 -392.82,-99.51 -681.31,-107.06 -290.9,-7.39 -676.42,-9.88 -1163.77,-9.88l-502.29 0 0 2715.38 146.74 0c708.7,0 1198.54,-4.98 1472.1,-14.94 270.98,-9.88 547.03,-74.53 830.54,-196.45 246.17,-106.9 427.68,-263.59 542.05,-470.01 114.37,-206.33 171.64,-440.13 171.64,-701.15zm-686.29 -4416.21c0,-174.13 -44.82,-355.72 -134.37,-539.64 -89.47,-184.08 -228.74,-318.29 -420.21,-400.37 -179.02,-79.51 -390.41,-121.92 -636.58,-129.31 -246.17,-7.47 -611.76,-9.96 -1096.54,-9.96l-189.06 0 0 2297.66 343.1 0c465.11,0 790.78,-4.9 979.77,-14.94 186.57,-9.96 378.05,-59.59 579.39,-154.21 216.37,-101.92 368.09,-241.1 450.17,-422.7 82,-179.02 124.33,-387.92 124.33,-626.54zm3491.14 4460.95c0,539.64 -101.92,1012.13 -305.76,1422.38 -204,407.76 -480.05,743.48 -823.15,1012.13 -410.25,318.29 -857.85,547.03 -1345.2,683.72 -489.92,136.78 -1111.65,203.92 -1862.51,203.92l-4346.66 0 0 -10846.65 3836.9 0c798.17,0 1402.38,29.8 1812.8,91.96 412.74,59.67 798.17,186.41 1158.79,380.37 387.84,208.9 678.74,489.92 870.21,838.09 191.47,350.57 288.41,753.44 288.41,1210.99 0,527.19 -131.71,999.6 -397.8,1412.34 -263.59,412.9 -631.6,716.25 -1096.62,910.13l0 59.67c668.95,141.76 1203.61,427.76 1606.39,862.83 402.86,435.23 604.21,1022.01 604.21,1758.1z"/>
    <path class="fil2" d="M20545.05 35676.86c0,-482.46 -39.84,-885.32 -121.84,-1206.01 -79.68,-323.27 -191.47,-579.39 -333.23,-773.36 -149.23,-203.84 -320.78,-345.68 -512.25,-425.19 -188.98,-79.68 -407.92,-119.43 -651.52,-119.43 -228.74,0 -437.64,34.86 -621.72,104.49 -186.41,69.63 -358.04,203.92 -514.66,402.86 -144.25,188.98 -263.59,447.51 -350.66,775.76 -87.06,330.74 -131.71,743.48 -131.71,1240.87 0,499.8 42.24,902.66 124.33,1208.5 82,308.33 191.47,552.09 323.19,736.01 136.78,189.06 305.84,325.84 512.25,412.82 203.92,87.06 432.74,131.8 681.4,131.8 203.84,0 412.74,-44.73 626.54,-131.8 211.47,-86.98 380.54,-216.37 507.27,-390.41 151.72,-208.82 266.08,-457.56 345.68,-750.95 77.1,-293.47 116.94,-698.74 116.94,-1215.97zm2610.88 -14.94c0,1345.28 -368,2404.56 -1104.09,3177.91 -738.5,773.36 -1777.94,1161.28 -3125.62,1161.28 -1337.81,0 -2377.33,-387.92 -3118.32,-1161.28 -740.99,-773.36 -1111.48,-1832.63 -1111.48,-3177.91 0,-1357.65 370.49,-2421.99 1111.48,-3190.36 740.99,-768.29 1780.51,-1153.81 3118.32,-1153.81 1342.79,0 2382.15,387.92 3120.73,1161.28 738.5,773.36 1108.99,1835.12 1108.99,3182.89zm-8411.3 -1673.45l-211.31 0c-96.94,-34.86 -238.78,-62.25 -425.19,-79.59 -184.08,-17.43 -390.41,-24.9 -614.25,-24.9 -268.49,0 -549.52,39.76 -842.99,116.86 -295.88,77.1 -581.88,169.15 -860.34,276.04l0 5470.59 -2551.29 0 0 -8176.09 2551.29 0 0 1171.24c116.86,-106.9 278.45,-241.19 487.35,-402.86 206.41,-164.08 395.39,-293.39 564.45,-390.33 186.57,-111.96 402.86,-206.41 649.03,-288.58 246.17,-79.51 477.48,-119.27 698.83,-119.27 82,0 173.96,2.49 275.96,7.47 101.92,4.9 196.37,12.45 278.45,22.33l0 2417.09zm-9194.53 -1598.92c0,-305.92 -72.04,-566.94 -218.78,-788.29 -144.25,-218.78 -318.29,-370.49 -522.21,-452.58 -256.13,-111.88 -502.37,-176.62 -738.5,-193.96 -233.72,-17.43 -552.01,-24.82 -954.87,-24.82l-385.43 0 0 3237.59 188.98 0c256.04,0 499.8,-2.49 726.05,-7.55 228.82,-4.9 427.68,-22.33 596.82,-49.63 144.25,-24.9 298.45,-72.21 462.54,-141.76 161.59,-72.21 285.92,-149.23 372.98,-236.29 184,-179.02 308.33,-365.51 375.47,-559.48 64.65,-193.96 96.94,-455.07 96.94,-783.23zm2804.93 -67.14c0,504.78 -79.51,984.66 -241.19,1442.22 -159.1,455.07 -390.33,838.01 -691.36,1143.85 -183.92,188.98 -387.84,363.11 -609.11,524.7 -221.35,159.19 -465.11,295.96 -731.11,407.76 -268.57,109.39 -556.99,198.94 -870.29,261.19 -313.31,62.08 -663.97,94.45 -1054.38,94.45l-1427.28 0 0 3550.9 -2730.32 0 0 -10846.65 4214.78 0c626.7,0 1166.18,57.18 1621.24,171.47 455.15,114.45 865.4,293.47 1235.97,542.13 407.76,270.98 723.64,634.09 947.31,1089.15 223.84,452.58 335.72,992.13 335.72,1618.83z"/>
   </g>
  </g>
  <path class="fil1" d="M13290.54 50989.34l-681.65 0 0 -4504.35 -2339.99 0 0 4504.35 -681.65 0 0 -5108.65 3703.28 0 0 5108.65zm4657.73 -4520.7c194.38,223.67 345.43,501.21 453.24,832.7 107.73,331.4 161.59,709.7 161.59,1134.89 0,414.56 -52.7,788.13 -158.11,1121.94 -105.4,333.81 -257.7,613.67 -456.73,840.91 -208.49,237.78 -452.08,412.24 -730.86,525.86 -277.54,113.62 -584.37,169.81 -918.18,169.81 -346.67,0 -658.16,-58.6 -934.62,-174.54 -277.54,-117.11 -516.48,-290.4 -715.59,-521.13 -196.7,-227.24 -347.84,-505.94 -453.24,-837.43 -105.4,-331.4 -158.11,-706.21 -158.11,-1125.42 0,-429.84 52.7,-806.97 159.27,-1131.4 106.65,-324.43 258.86,-603.13 455.65,-836.18 196.7,-227.24 434.48,-399.38 713.18,-516.48 278.78,-118.27 589.1,-176.86 933.45,-176.86 347.84,0 661.73,60.92 940.43,181.51 279.95,121.84 516.48,291.65 708.62,511.84zm-94.86 1967.58c0,-337.3 -36.35,-636 -110.14,-895.94 -72.62,-261.19 -175.7,-476.73 -308,-647.7 -135.86,-175.7 -298.7,-306.84 -489.59,-394.65 -190.89,-87.89 -405.19,-132.38 -642.97,-132.38 -247.08,0 -463.78,43.32 -647.62,128.81 -183.92,85.49 -346.67,217.86 -489.59,398.21 -134.62,173.38 -237.7,391.16 -310.32,653.51 -71.46,263.51 -107.73,559.81 -107.73,890.13 0,668.7 140.51,1180.53 421.62,1535.34 282.27,354.89 659.32,532.92 1133.64,532.92 473.16,0 850.29,-178.03 1130.24,-532.92 279.86,-354.81 420.46,-866.64 420.46,-1535.34zm4669.43 -1015.45c0,222.51 -39.84,432.16 -118.27,630.1 -78.51,197.95 -187.4,366.59 -325.59,505.94 -175.7,173.38 -381.86,305.67 -619.56,394.73 -236.62,88.97 -536.4,133.46 -899.43,133.46l-573.92 0 0 1904.34 -681.65 0 0 -5108.65 1280.13 0c302.19,0 558.65,24.57 770.62,74.95 211.97,50.38 399.38,132.38 562.13,243.59 188.57,131.22 337.3,296.3 445.11,496.56 106.57,200.27 160.43,441.54 160.43,724.97zm-709.78 16.43c0,-174.54 -30.38,-326.75 -90.13,-455.56 -60.92,-130.05 -152.3,-235.46 -274.05,-316.21 -107.73,-71.46 -231.89,-120.68 -373.65,-149.97 -141.67,-29.21 -318.54,-44.49 -530.51,-44.49l-558.65 0 0 2023.77 460.3 0c272.89,0 493.08,-22.24 661.73,-66.73 167.4,-43.32 306.84,-123 419.21,-235.38 99.6,-103.08 172.22,-213.22 217.86,-333.81 45.65,-120.68 67.89,-261.19 67.89,-421.62zm2560.26 3552.14l0 -4504.35 -1714.61 0 0 -604.29 4110.79 0 0 604.29 -1714.61 0 0 4504.35 -681.56 0zm7427.55 -2608.23c0,317.46 -47.97,597.32 -144,840.91 -96.11,243.59 -229.57,448.59 -401.78,614.92 -185,183.84 -412.24,324.35 -682.72,423.94 -270.57,99.51 -549.35,152.21 -837.43,159.27l0 625.37 -681.65 0 0 -625.37c-285.75,-9.38 -564.45,-60.92 -833.86,-154.62 -270.48,-93.7 -500.05,-234.21 -689.78,-421.62 -172.22,-166.32 -304.51,-373.56 -399.38,-619.56 -94.86,-247.08 -142.92,-528.19 -142.92,-843.24 0,-297.46 45.73,-564.45 137.03,-801.08 91.38,-236.54 220.19,-440.29 384.19,-611.35 176.86,-182.67 396.97,-326.75 662.89,-432.16 265.84,-104.24 559.81,-161.59 881.83,-170.97l0 -569.19 681.65 0 0 569.19c322.11,7.05 617.24,63.24 885.4,169.81 268.24,106.57 489.59,249.49 666.37,429.84 164,169.81 291.65,371.24 380.7,606.7 88.97,235.38 133.46,504.78 133.46,809.21zm-709.7 -32.78c0,-226 -31.62,-432.16 -96.03,-618.32 -63.24,-186.24 -158.11,-344.35 -284.59,-474.32 -118.27,-123 -256.54,-214.38 -413.4,-274.05 -158.19,-59.76 -345.51,-91.38 -562.21,-96.11l0 3014.66c205,-4.73 388.84,-38.68 549.27,-100.76 161.68,-63.24 293.97,-147.57 399.38,-251.81 139.35,-137.03 242.43,-304.51 308,-500.05 66.81,-196.78 99.6,-429.84 99.6,-699.24zm-2037.88 1551.86l0 -3014.66c-216.62,2.41 -404.02,34.03 -562.13,96.11 -156.95,62 -295.13,153.38 -413.4,274.05 -126.49,127.65 -221.35,286.92 -284.59,475.48 -64.4,189.73 -96.03,395.81 -96.03,617.16 0,269.4 32.78,502.46 99.51,700.4 65.57,197.95 168.65,364.19 308,498.89 105.4,99.6 237.78,183.92 399.38,249.49 160.51,66.73 344.35,100.67 549.27,103.08zm7104.36 -3431.55c194.38,223.67 345.43,501.21 453.24,832.7 107.73,331.4 161.59,709.7 161.59,1134.89 0,414.56 -52.7,788.13 -158.11,1121.94 -105.4,333.81 -257.7,613.67 -456.73,840.91 -208.49,237.78 -452.08,412.24 -730.86,525.86 -277.54,113.62 -584.37,169.81 -918.18,169.81 -346.67,0 -658.16,-58.6 -934.62,-174.54 -277.54,-117.11 -516.48,-290.4 -715.59,-521.13 -196.7,-227.24 -347.84,-505.94 -453.24,-837.43 -105.4,-331.4 -158.11,-706.21 -158.11,-1125.42 0,-429.84 52.7,-806.97 159.27,-1131.4 106.65,-324.43 258.86,-603.13 455.65,-836.18 196.7,-227.24 434.48,-399.38 713.18,-516.48 278.78,-118.27 589.1,-176.86 933.45,-176.86 347.84,0 661.73,60.92 940.43,181.51 279.95,121.84 516.48,291.65 708.62,511.84zm-94.86 1967.58c0,-337.3 -36.35,-636 -110.14,-895.94 -72.62,-261.19 -175.7,-476.73 -308,-647.7 -135.86,-175.7 -298.7,-306.84 -489.59,-394.65 -190.89,-87.89 -405.19,-132.38 -642.97,-132.38 -247.08,0 -463.78,43.32 -647.62,128.81 -183.92,85.49 -346.67,217.86 -489.59,398.21 -134.62,173.38 -237.7,391.16 -310.32,653.51 -71.46,263.51 -107.73,559.81 -107.73,890.13 0,668.7 140.51,1180.53 421.62,1535.34 282.27,354.89 659.32,532.92 1133.64,532.92 473.16,0 850.29,-178.03 1130.24,-532.92 279.86,-354.81 420.46,-866.64 420.46,-1535.34zm5175.37 2553.12l-681.65 0 0 -4504.35 -1728.64 0c-7.05,257.7 -16.35,510.67 -26.89,755.43 -11.79,246 -21.08,466.1 -28.14,660.56 -17.6,482.54 -46.89,880.67 -86.65,1195.72 -39.84,316.21 -91.38,579.73 -155.78,792.94 -62.08,207.24 -133.54,375.89 -216.7,503.54 -83.16,127.73 -174.46,235.46 -272.89,322.11 -101.84,93.7 -211.97,164 -329.08,210.81 -117.11,46.81 -254.13,70.3 -408.75,70.3 -47.97,0 -96.03,-1.16 -145.16,-4.73 -49.22,-3.49 -87.89,-5.81 -114.78,-5.81l0 -657.08 47.97 0c23.4,1.16 42.16,3.57 58.6,4.73 16.35,1.16 39.84,2.32 72.62,2.32 81.92,0 159.27,-12.86 230.73,-37.51 70.21,-25.73 131.13,-64.4 181.51,-117.11 155.78,-152.21 270.48,-425.1 341.94,-817.43 72.62,-391.16 124.16,-918.18 153.46,-1581.07 11.7,-223.76 23.4,-520.05 35.11,-887.81 10.54,-367.75 21.08,-706.21 30.46,-1014.21l3042.71 0 0 5108.65zm4705.78 0l-681.65 0 0 -4055.76 -2294.34 4055.76 -692.19 0 0 -5108.65 681.65 0 0 3990.19 2263.88 -3990.19 722.65 0 0 5108.65zm4655.4 -4520.7c194.38,223.67 345.43,501.21 453.24,832.7 107.73,331.4 161.59,709.7 161.59,1134.89 0,414.56 -52.7,788.13 -158.11,1121.94 -105.4,333.81 -257.7,613.67 -456.73,840.91 -208.49,237.78 -452.08,412.24 -730.86,525.86 -277.54,113.62 -584.37,169.81 -918.18,169.81 -346.67,0 -658.16,-58.6 -934.62,-174.54 -277.54,-117.11 -516.48,-290.4 -715.59,-521.13 -196.7,-227.24 -347.84,-505.94 -453.24,-837.43 -105.4,-331.4 -158.11,-706.21 -158.11,-1125.42 0,-429.84 52.7,-806.97 159.27,-1131.4 106.65,-324.43 258.86,-603.13 455.65,-836.18 196.7,-227.24 434.48,-399.38 713.18,-516.48 278.78,-118.27 589.1,-176.86 933.45,-176.86 347.84,0 661.73,60.92 940.43,181.51 279.95,121.84 516.48,291.65 708.62,511.84zm-94.86 1967.58c0,-337.3 -36.35,-636 -110.14,-895.94 -72.62,-261.19 -175.7,-476.73 -308,-647.7 -135.86,-175.7 -298.7,-306.84 -489.59,-394.65 -190.89,-87.89 -405.19,-132.38 -642.97,-132.38 -247.08,0 -463.78,43.32 -647.62,128.81 -183.92,85.49 -346.67,217.86 -489.59,398.21 -134.62,173.38 -237.7,391.16 -310.32,653.51 -71.46,263.51 -107.73,559.81 -107.73,890.13 0,668.7 140.51,1180.53 421.62,1535.34 282.27,354.89 659.32,532.92 1133.64,532.92 473.16,0 850.29,-178.03 1130.24,-532.92 279.86,-354.81 420.46,-866.64 420.46,-1535.34z"/>
 </g>
</svg>
