<?xml version="1.0" encoding="UTF-8"?>
<!DOCTYPE svg PUBLIC "-//W3C//DTD SVG 1.1//EN" "http://www.w3.org/Graphics/SVG/1.1/DTD/svg11.dtd">
<!-- Creator: CorelDRAW 2018 (64-Bit Evaluation Version) -->
<svg xmlns="http://www.w3.org/2000/svg" xml:space="preserve" width="79.772mm" height="61.403mm" version="1.1" style="shape-rendering:geometricPrecision; text-rendering:geometricPrecision; image-rendering:optimizeQuality; fill-rule:evenodd; clip-rule:evenodd"
viewBox="0 0 294337.28 226560.6"
 xmlns:xlink="http://www.w3.org/1999/xlink">
 <defs>
  <style type="text/css">
   <![CDATA[
    .fil0 {fill:#F80094}
    .fil1 {fill:white}
    .fil2 {fill:white;fill-rule:nonzero}
   ]]>
  </style>
 </defs>
 <g id="Слой_x0020_1">
  <metadata id="CorelCorpID_0Corel-Layer"/>
  <g id="_2421243913712">
   <path class="fil0" d="M123778.32 76112.89c-378.2,664.89 -318.42,1756.31 -370.45,2517.87 -58.67,836.83 -86.71,1667.02 -167.88,2464 -107.74,1063.01 -370.45,4079 -162.35,4948.3 890.33,3717.77 6653.32,3770.54 8576.78,1632.34 512.13,-569.69 337.61,-580.76 -98.15,-1037.18l-2792.02 -2945.51c-702.16,-745.69 -1244.18,-1127.21 -1523.86,-2014.22 -908.04,-2878.73 2430.8,-7454.37 5074.49,-9356.42 1330.89,-957.12 984.79,-109.22 1143.45,-1925.67 268.24,-3068.01 430.22,-7008.65 739.79,-9948.25l165.3 -2464c-43.54,-909.89 -604.01,-1565.18 -1840.07,-1766.27 -2506.43,-408.45 -7704.53,1623.11 -7916.32,4954.94 -107,1688.05 -224.7,3318.18 -361.22,5001.8 -132.46,1644.51 -181.53,3369.46 -324.7,4991.1 -73.79,838.68 -123.61,1622.01 -180.43,2473.97l-1.48 2417.51c7.75,12.55 28.04,35.42 39.11,55.71zm12787.87 -24769.17c-458.26,794.77 -423.21,1773.65 -487.04,2613.44 -37.27,477.45 6.27,819.86 -54.61,1230.53 -230.61,1556.7 -375.25,4543.17 -501.43,6183.62 -43.17,570.43 -752.71,9518.03 -685.55,9847.16 1328.3,43.91 1441.21,-301.08 2823.38,1232.37l7135.94 7499.38c150.17,-525.05 204.41,-1871.43 236.51,-2467.69 44.65,-843.47 105.9,-1613.89 184.12,-2407.18 301.45,-3070.23 409.56,-6630.82 712.12,-9741.63 76.38,-781.12 128.77,-1585.11 167.51,-2399.43 109.22,-2240.04 439.08,-5059.36 570.8,-7357.33 116.23,-2020.13 526.52,-3403.78 -834.99,-4550.55 -2588.72,-2181.74 -7884.59,-2076.95 -9266.76,317.32zm3330.72 53803.67c5030.21,-1813.87 18762.65,-5475.93 14278.52,-13423.98 -153.49,-271.56 -360.49,-478.19 -540.91,-743.11 -255.7,-374.51 -322.11,-435.02 -612.5,-640.17 -344.62,-244.26 -367.13,-455.31 -583.35,-700.68 -244.26,-275.99 -467.12,-386.31 -1193.26,-1268.9l-4076.78 -4259.8c-1851.51,-1882.5 -3549.52,-3649.14 -5369.3,-5566.33 -432.44,-455.68 -891.44,-923.91 -1299.15,-1374.43 -245.74,-271.56 -466.75,-457.16 -695.51,-704.37 -231.35,-248.69 -407.35,-460.48 -666.73,-711.01 -644.23,-621.35 -2378.03,-2594.99 -2851.79,-2868.4 -2973.55,-1716.83 -9534.64,5932.35 -6996.47,9391.11 498.48,679.65 6703.87,6989.46 7644.76,8079.41 639.43,739.79 3271.32,2776.15 2481.71,4431.74 -273.41,-232.08 -528,-537.96 -806.94,-800.67 -679.65,-640.17 -1195.1,-1331.26 -1539.73,-1625.7 -572.28,-487.78 -446.09,-409.19 -827.61,-864.5l-3175.01 -3288.29c-374.14,567.48 -1271.85,1243.44 -1815.35,1541.57 -3881.23,2126.76 -9639.06,104.79 -9679.27,-3556.16l483.35 -6948.5c61.99,-653.45 50.18,-1525.34 106.26,-2320.84l368.6 -4688.17c250.16,-2617.86 321.74,-5660.79 570.06,-8177.92 29.89,-304.77 163.82,-862.66 -55.71,-1129.43 -3494.91,6053.37 -4970.44,8067.6 -8465.72,14121.71 -2320.1,4018.12 -3407.1,9537.59 -2357,13514.75 2849.95,10789.14 15362.94,17248.76 27674.83,14581.08zm14467.07 -15193.58l11747.37 -20346.29c1745.98,-3024.84 1614.63,-3409.31 3963.51,-6131.6 2752.91,-3191.62 5854.87,-7254.75 8638.77,-10545.25 1468.51,-1737.13 2899.39,-3477.57 4331.01,-5261.56 1392.14,-1736.39 2928.54,-3476.1 4318.83,-5243.48 717.65,-911.36 1419.07,-1758.9 2161.08,-2644.43 4734.29,-7325.22 -3008.61,-14488.47 -11216.05,-2616.76 -1425.34,1729.01 -2946.25,3524.06 -4312.19,5288.12 -1848.19,2389.1 -12659.84,17645.4 -15420.86,16056.24 -1313.18,-757.13 -931.66,-2184.69 -436.5,-3523.69 517.3,-1397.3 1090.32,-2358.85 1571.09,-3727 987,-2804.93 2152.59,-5603.6 3182.02,-8432.88 499.59,-1371.84 1036.45,-2776.89 1578.84,-4180.47 546.45,-1412.8 1015.05,-2854.38 1588.06,-4245.04 930.18,-2264.76 2240.41,-6000.98 3155.09,-8432.88 530.95,-1412.43 1072.61,-2769.51 1570.72,-4176.78 2799.03,-9950.1 -7888.28,-10629.38 -11038.94,-313.63l-11448.13 30289.75 -2180.63 28997.97c-71.21,830.93 42.8,594.05 1009.88,1636.4l4322.52 4514.02c986.27,1020.21 1969.95,2125.65 2914.52,3039.23zm18550.13 -76506.59c-2399.8,-1378.48 -5530.54,-2549.24 -8108.19,-3390.49 -1283.66,-419.52 -3814.81,-1164.11 -5091.09,-1415.01l-2475.07 -436.13c-8392.29,-1194.74 -15028.65,-944.2 -23158.23,1298.79 -2967.28,818.75 -5649.72,1875.86 -8509.26,3193.83 -2984.26,1374.79 -5481.83,2965.44 -8138.44,4807.35 -670.79,464.91 -1269.27,927.6 -1903.16,1442.69 -4039.15,3281.28 -5960.39,5198.83 -9266.02,9408.08 -6127.91,7801.57 -9830.55,17833.58 -10706.13,27032.08l-313.26 5944.53c21.03,203.3 79.33,219.17 75.64,553.09 -47.23,3698.22 814.69,8637.29 1701.34,12155.45 2939.61,11665.46 9321,20790.16 18442.76,28372.56 1943.38,1615.36 5660.42,4040.63 7898.24,5211.38 2019.39,1057.48 4275.29,2021.24 6371.8,2860.28l3791.94 1306.53c498.48,153.49 882.21,159.4 1285.13,279.68 518.78,155.34 735.73,257.54 1241.59,360.49 1718.31,349.05 3075.76,696.99 4898.86,929.07 4463.84,567.85 8346.91,816.54 12874.95,260.86 1592.86,-195.56 2954,-303.3 4476.75,-641.28 396.65,-87.82 675.96,-125.45 1087.36,-221.38 6220.15,-1448.22 10734.54,-3044.4 16384.99,-6369.58 215.85,-126.56 282.26,-190.76 490.37,-313.26 1144.92,-675.22 1937.48,-1271.85 3033.33,-1984.34 2047.8,-1331.62 5818.71,-4635.04 7560.26,-6506.1 614.71,-659.36 1144.19,-1243.81 1767.38,-1955.19 1334.21,-1524.23 2330.07,-2835.93 3512.99,-4477.49 2097.61,-2910.46 4409.6,-7167.67 5654.88,-10416.11 1954.82,-5102.53 3222.24,-9558.99 3675.71,-14935.3 829.08,-9830.55 -665.26,-18121.38 -4374.18,-26730.26 -564.53,-1310.22 -1309.12,-2886.48 -2032.3,-4106.67 -2348.88,-3963.88 -2282.47,-3878.65 -5309.89,-7872.78 -722.82,-954.16 -1616.84,-1882.5 -2438.17,-2788.33 -350.52,-387.42 -354.95,-676.7 -796.61,-941.25l-3940.26 -3523.32c-3060.63,-2586.13 -5118.03,-3843.59 -8493.02,-5815.02 -483.35,-282.26 -784.81,-355.69 -1172.97,-577.44zm3620 -6570.67c-832.77,-347.57 -2031.94,-1050.1 -3185.71,-1546.37 -7062.52,-3034.07 -10515,-3901.52 -18015.48,-4956.79 -2735.2,-385.21 -7020.82,-449.41 -9760.82,-295.92 -3150.66,175.63 -6305.38,527.26 -9433.54,1183.67 -892.55,187.81 -1657.43,409.56 -2630.41,627.25 -2315.31,518.04 -5400.29,1619.42 -7673.54,2514.92 -4293.74,1691.74 -8270.16,3907.43 -12131.47,6549.64 -812.11,556.04 -1538.99,1147.51 -2340.03,1723.84 -2309.77,1662.59 -4599.62,3973.84 -6673.62,6000.61 -466.38,455.31 -833.51,1195.47 -1198.79,1481.06 -314.73,245.37 -102.94,-11.44 -329.86,191.5 -294.81,263.82 -81.17,322.85 -392.22,652.71 -304.4,323.22 -271.56,101.1 -535.01,388.9 -360.12,393.33 33.58,168.25 -763.77,964.13 -72.32,72.32 -246.11,290.75 -288.91,344.25 -4775.99,5924.6 -7857.28,11942.92 -10368.52,19119.82 -749.38,2138.57 -362.7,1640.09 -480.77,2037.84 -48.7,163.46 -305.14,526.16 -440.92,1009.14 -1067.44,3795.63 -1747.09,8108.55 -1945.6,11666.93 -51.29,918.37 -84.13,1830.84 -131.72,2778.74 -25.46,498.48 -18.45,928.34 -12.18,1402.84 66.78,5040.54 548.29,9879.26 1841.18,14796.56 226.55,861.18 456.05,1595.07 712.86,2609.75 633.16,2500.16 2814.16,7717.07 4004.1,10012.46 2365.86,4565.67 5309.89,9122.49 8793.74,12931.03 341.3,373.77 651.24,744.96 1029.8,1126.84 3779.39,3820.35 5317.27,5221.34 9815.42,8444.69 1670.34,1196.58 4440.22,2952.52 6350.03,3812.97 1075.19,484.09 2078.06,1117.25 3162.84,1568.5 4536.16,1888.4 7258.81,2967.65 12159.14,4011.48 7744.75,1648.94 14608.75,1782.88 22393.35,610.65 967.45,-145.38 2973.55,-497.74 3994.5,-784.07 497.38,-139.1 895.5,-213.27 1317.23,-307.72 932.4,-210.31 1662.22,-492.21 2607.16,-742.01 2562.52,-677.43 7337.77,-2572.48 10013.19,-3987.12 8025.9,-4243.56 14654.51,-9366.02 20446.65,-16883.84 369.71,-480.77 702.89,-925.02 1034.6,-1376.64 2112,-2870.24 3126.68,-4691.12 4791.49,-7779.8 2882.05,-5346.79 5315.8,-12522.95 6144.14,-18275.24 620.24,-4308.5 858.6,-7072.48 785.91,-11361.05 -50.55,-2924.48 -459,-6531.19 -993.64,-9413.24 -375.98,-2032.3 -973.72,-4671.57 -1607.99,-6575.1l-1520.54 -4435.8c-38,-100.73 -61.25,-164.19 -106.63,-292.23l-2382.46 -5283.7c-1759.63,-3375.37 -3603.39,-6390.98 -6019.43,-9530.58 -3890.45,-5055.3 -8430.67,-9300.34 -13711.41,-12953.54 -1629.75,-1127.58 -4467.53,-3007.13 -6322.36,-3781.98z"/>
   <g>
    <path class="fil1" d="M43333.69 176620.45l0 -39146.21 -14313.58 0 0 -9254.22 40810.65 0 0 9254.22 -14313.95 0 0 39146.21 -12183.13 0zm65865.03 -18230.6c0,6002.82 -1641.56,10729.74 -4926.16,14180.38 -3295.67,3451.38 -7933.29,5182.23 -13947.55,5182.23 -5969.62,0 -10607.61,-1730.85 -13914.35,-5182.23 -3306.37,-3450.64 -4959.74,-8177.55 -4959.74,-14180.38 0,-6058.17 1653.37,-10807.22 4959.74,-14236.09 3306.74,-3428.5 7944.73,-5148.28 13914.35,-5148.28 5991.39,0 10629.75,1730.85 13925.42,5181.49 3295.67,3451.01 4948.3,8188.62 4948.3,14202.88zm-11649.96 66.78c0,-2152.96 -177.85,-3950.23 -543.87,-5381.47 -355.32,-1442.69 -854.17,-2585.4 -1486.96,-3451.38 -665.63,-909.89 -1431.25,-1542.31 -2285.79,-1897.26 -843.47,-354.95 -1819.78,-532.43 -2907.14,-532.43 -1020.58,0 -1952.98,155.71 -2773.94,466.01 -832.4,311.04 -1597.65,909.89 -2296.86,1797.64 -643.86,843.1 -1175.92,1996.88 -1564.45,3462.08 -388.53,1475.15 -588.14,3317.44 -588.14,5536.81 0,2230.07 188.55,4027.71 554.57,5392.54 366.39,1375.9 854.54,2462.9 1442.32,3284.23 610.65,843.47 1365.2,1453.39 2286.16,1841.91 909.89,388.53 1930.84,588.14 3040.34,588.14 909.89,0 1841.55,-199.61 2796.45,-588.14 943.1,-388.53 1696.91,-965.23 2262.91,-1742.29 677.07,-931.66 1187.36,-2041.16 1542.31,-3350.65 344.25,-1309.49 522.1,-3117.82 522.1,-5425.75zm52738.81 -66.78c0,6002.82 -1642.3,10729.74 -4926.53,14180.38 -3296.04,3451.38 -7933.66,5182.23 -13947.55,5182.23 -5969.99,0 -10607.98,-1730.85 -13914.35,-5182.23 -3306.74,-3450.64 -4959.74,-8177.55 -4959.74,-14180.38 0,-6058.17 1653,-10807.22 4959.74,-14236.09 3306.37,-3428.5 7944.36,-5148.28 13914.35,-5148.28 5991.39,0 10629.75,1730.85 13925.05,5181.49 3295.67,3451.01 4949.04,8188.62 4949.04,14202.88zm-11650.7 66.78c0,-2152.96 -177.85,-3950.23 -543.87,-5381.47 -355.32,-1442.69 -854.17,-2585.4 -1486.96,-3451.38 -665.63,-909.89 -1431.25,-1542.31 -2285.79,-1897.26 -843.1,-354.95 -1819.78,-532.43 -2906.77,-532.43 -1020.95,0 -1953.34,155.71 -2774.31,466.01 -832.03,311.04 -1597.28,909.89 -2296.86,1797.64 -643.12,843.1 -1175.92,1996.88 -1564.45,3462.08 -388.16,1475.15 -588.14,3317.44 -588.14,5536.81 0,2230.07 188.91,4027.71 554.94,5392.54 366.39,1375.9 854.54,2462.9 1442.32,3284.23 610.28,843.47 1364.83,1453.39 2285.79,1841.91 910.26,388.53 1930.84,588.14 3040.34,588.14 909.89,0 1841.91,-199.61 2796.45,-588.14 943.1,-388.53 1697.28,-965.23 2263.28,-1742.29 676.7,-931.66 1187.36,-2041.16 1542.31,-3350.65 343.88,-1309.49 521.73,-3117.82 521.73,-5425.75zm28456.69 19162.25c-2685.39,0 -5226.5,-288.17 -7622.99,-875.94 -2396.85,-577.07 -4371.59,-1265.21 -5936.41,-2042.27l0 -9597.73 943.1 0c543.5,410.3 1165.22,865.61 1853.35,1364.46 698.84,488.52 1664.07,1009.88 2896.07,1553.75 1064.86,488.52 2263.28,920.96 3594.91,1275.91 1331.26,354.95 2773.57,532.43 4338.39,532.43 1609.09,0 3018.2,-243.89 4238.76,-742.74 1231.26,-499.96 1841.91,-1298.42 1841.91,-2375.08 0,-843.1 -277.47,-1486.59 -843.47,-1919.4 -565.64,-432.81 -1664.07,-843.47 -3295.3,-1231.63 -865.61,-222.12 -1964.04,-454.94 -3284.23,-699.2 -1331.62,-255.33 -2496.47,-532.43 -3517.42,-865.61 -2862.86,-887.38 -5026.89,-2196.87 -6469.21,-3938.79 -1442.69,-1742.29 -2163.66,-4038.78 -2163.66,-6868.44 0,-1630.86 377.09,-3162.47 1120.57,-4593.72 754.55,-1442.69 1852.98,-2729.66 3306.74,-3850.24 1453.75,-1109.87 3251.39,-1986.18 5392.54,-2629.67 2130.82,-654.93 4549.44,-976.3 7234.83,-976.3 2563.26,0 4915.46,254.96 7068.05,765.25 2152.59,510.66 3961.3,1120.57 5437.19,1841.91l0 9243.15 -909.89 0c-388.53,-310.68 -1009.88,-710.27 -1853.72,-1232 -854.17,-510.29 -1675.14,-954.16 -2473.97,-1320.19 -965.23,-443.87 -2030.83,-798.83 -3217.82,-1086.99 -1176.29,-277.84 -2385.78,-422.11 -3628.48,-422.11 -1642.3,0 -3040.34,277.84 -4183.05,843.47 -1142.71,566 -1708.35,1309.12 -1708.35,2241.14 0,832.4 277.1,1475.89 842.73,1952.98 566,477.45 1797.64,943.1 3683.83,1398.04 976.67,233.19 2097.61,466.38 3373.15,699.2 1265.21,221.75 2485.77,532.8 3661.69,920.59 2630.04,843.47 4615.85,2086.54 5980.69,3717.4 1353.76,1641.93 2030.83,3805.96 2030.83,6513.48 0,1708.71 -399.6,3339.95 -1198.06,4882.25 -810.63,1553.01 -1941.91,2862.49 -3417.8,3916.65 -1564.82,1154.15 -3406.73,2041.53 -5515.04,2662.88 -2119.38,632.79 -4649.06,943.1 -7600.48,943.1z"/>
    <path class="fil0" d="M252299.06 153718.28c-66.42,-2429.69 -632.05,-4283.04 -1686.58,-5547.88 -1064.86,-1275.91 -2685.02,-1908.33 -4870.81,-1908.33 -2241.88,0 -3983.07,665.63 -5237.21,2007.95 -1253.77,1331.99 -1953.34,3151.4 -2086.54,5448.26l13881.14 0zm-3839.17 23900.61c-6901.27,0 -12194.19,-1641.56 -15878.02,-4937.6 -3672.76,-3295.3 -5514.67,-7989.01 -5514.67,-14080.39 0,-5958.55 1719.78,-10707.97 5148.65,-14269.67 3428.5,-3550.63 8232.9,-5325.76 14391.06,-5325.76 5603.6,0 9819.85,1509.1 12638.44,4526.93 2829.29,3006.76 4238.39,7323.38 4238.39,12949.11l0 4094.5 -25032.25 0c111.06,1697.28 466.01,3106.75 1076.29,4249.46 610.28,1143.08 1409.11,2041.53 2418.99,2718.59 975.93,665.63 2119.38,1154.15 3417.8,1442.32 1309.12,299.98 2729.29,443.87 4271.6,443.87 1331.62,0 2629.67,-143.9 3916.65,-443.87 1287.35,-299.61 2463.26,-688.13 3528.86,-1176.29 932.4,-421.37 1797.64,-865.24 2585.03,-1353.76 799.2,-487.78 1442.32,-909.89 1941.91,-1286.61l1209.49 0 0 9420.25c-932.03,366.02 -1786.2,710.27 -2551.82,1020.58 -777.06,321.74 -1830.84,643.86 -3173.54,965.6 -1243.07,321.38 -2518.98,577.07 -3828.47,765.62 -1319.82,188.55 -2918.21,277.1 -4804.4,277.1zm-35695.57 -23900.61c-66.78,-2429.69 -632.42,-4283.04 -1686.58,-5547.88 -1065.23,-1275.91 -2685.02,-1908.33 -4871.18,-1908.33 -2241.51,0 -3983.07,665.63 -5237.21,2007.95 -1253.77,1331.99 -1952.98,3151.4 -2086.17,5448.26l13881.14 0zm-3839.17 23900.61c-6901.64,0 -12194.56,-1641.56 -15878.02,-4937.6 -3673.13,-3295.3 -5515.04,-7989.01 -5515.04,-14080.39 0,-5958.55 1720.15,-10707.97 5148.65,-14269.67 3428.5,-3550.63 8233.27,-5325.76 14391.06,-5325.76 5603.96,0 9819.85,1509.1 12638.81,4526.93 2829.29,3006.76 4238.39,7323.38 4238.39,12949.11l0 4094.5 -25032.25 0c111.06,1697.28 466.01,3106.75 1076.29,4249.46 610.28,1143.08 1408.74,2041.53 2418.62,2718.59 976.67,665.63 2119.38,1154.15 3417.8,1442.32 1309.49,299.98 2729.29,443.87 4271.97,443.87 1331.62,0 2629.67,-143.9 3917.02,-443.87 1286.61,-299.61 2462.9,-688.13 3528.49,-1176.29 932.03,-421.37 1797.27,-865.24 2585.03,-1353.76 798.83,-487.78 1442.32,-909.89 1941.91,-1286.61l1209.13 0 0 9420.25c-931.66,366.02 -1785.83,710.27 -2551.45,1020.58 -777.06,321.74 -1830.84,643.86 -3173.91,965.6 -1242.7,321.38 -2518.61,577.07 -3828.1,765.62 -1320.19,188.55 -2918.21,277.1 -4804.4,277.1z"/>
   </g>
  </g>
  <path class="fil2" d="M10179.23 226498.24c-1484.01,0 -2853.27,-250.16 -4097.82,-744.59 -1244.18,-499.96 -2321.95,-1244.55 -3228.15,-2228.6 -905.83,-984.05 -1608.72,-2217.9 -2103.52,-3691.58 -499.59,-1473.31 -749.75,-3165.42 -749.75,-5076.33 0,-1900.58 239.46,-3556.16 723.93,-4967.12 484.09,-1410.95 1186.99,-2645.17 2113.85,-3691.58 905.83,-1015.41 1978.43,-1791 3222.98,-2321.95 1239.01,-536.49 2629.3,-802.15 4165.34,-802.15 760.08,0 1478.48,57.56 2144.84,166.78 666.73,114.38 1281.07,254.96 1853.72,426.9 484.09,150.91 989.22,343.51 1499.51,572.65 515.46,229.13 1020.58,479.3 1520.54,754.92l0 3639.55 -245 0c-265.29,-239.46 -604.01,-530.95 -1020.21,-869.3 -416.57,-338.72 -926.86,-671.9 -1525.7,-1005.08 -577.81,-306.99 -1208.02,-562.32 -1889.88,-760.08 -682.23,-202.94 -1468.51,-302.19 -2364.01,-302.19 -963.02,0 -1879.55,198.14 -2743.68,593.68 -864.5,395.91 -1624.59,978.89 -2270.29,1744.14 -640.54,770.78 -1140.13,1738.97 -1494.34,2905.29 -359.38,1161.16 -536.12,2473.23 -536.12,3931.04 0,1551.53 187.44,2884.63 562.32,4004.1 380.04,1119.46 890.33,2061.82 1541.2,2832.24 629.84,749.75 1374.43,1317.23 2228.23,1697.65 853.8,380.04 1760,567.48 2712.69,567.48 874.84,0 1681.78,-104.42 2426.37,-317.69 739.42,-213.64 1400.62,-484.09 1978.43,-806.94 562.32,-317.69 1041.24,-640.54 1452.65,-968.55 406.24,-328.02 723.93,-609.17 958.22,-843.47l229.13 0 0 3603.02c-499.96,234.3 -968.55,458.26 -1411.32,676.7 -442.4,213.64 -978.52,421.74 -1608.72,625.04 -661.2,213.27 -1275.54,374.88 -1843.02,489.26 -562.32,109.22 -1296.57,166.78 -2202.4,166.78zm25299.01 -7383.15c0,1129.8 -213.27,2129.71 -640.17,2993.85 -427.27,864.14 -999.92,1577.73 -1723.47,2134.88 -854.17,671.53 -1770.33,1150.46 -2744.05,1426.45 -978.89,281.16 -2238.93,421.74 -3780.13,421.74l-6513.48 0 0 -22711.41 6024.22 0c1619.42,0 2832.24,52.03 3639.55,161.61 806.94,104.05 1582.53,353.85 2327.11,749.75 812.48,437.23 1405.79,1009.88 1786.2,1717.94 374.88,702.89 562.32,1536.04 562.32,2488.72 0,1067.44 -281.16,2020.5 -843.47,2863.97 -567.85,843.47 -1348.6,1504.67 -2343.35,1983.6l0 125.08c1348.6,364.18 2395.37,1036.08 3139.96,2004.26 739.05,973.72 1108.76,2186.9 1108.76,3639.55zm-4217.36 -10163.37c0,-541.65 -93.72,-1015.41 -275.99,-1410.95 -182.27,-401.07 -473.76,-713.23 -880,-947.52 -484.09,-270.83 -1030.91,-437.6 -1629.39,-499.96 -598.84,-57.19 -1421.65,-88.55 -2478.39,-88.55l-2889.8 0 0 6591.71 3420.75 0c947.52,0 1640.09,-46.86 2088.02,-145.74 442.4,-93.72 905.83,-291.49 1379.59,-593.68 458.26,-291.49 786.28,-676.7 978.89,-1150.46 192.6,-474.13 286.32,-1057.11 286.32,-1754.84zm1062.27 10267.42c0,-848.64 -119.92,-1546.37 -364.55,-2098.35 -244.63,-551.61 -734.26,-1020.21 -1473.31,-1400.25 -479.3,-255.33 -999.92,-416.57 -1562.23,-489.63 -562.32,-67.52 -1358.93,-104.05 -2395,-104.05l-3420.75 0 0 8341.01 2447.03 0c1317.23,0 2358.85,-62.36 3118.93,-182.27 760.08,-119.55 1431.62,-380.04 2009.8,-770.42 567.48,-395.91 978.89,-843.47 1244.18,-1343.43 265.66,-499.96 395.91,-1150.83 395.91,-1952.61zm6164.43 6872.86l0 -22711.41 14214.32 0 0 2686.49 -11183.95 0 0 6216.83 10434.19 0 0 2686.86 -10434.19 0 0 8434.73 11183.95 0 0 2686.49 -14214.32 0zm22836.49 0l0 -20024.91 -7622.62 0 0 -2686.49 18275.24 0 0 2686.49 -7622.62 0 0 20024.91 -3030.01 0zm21800.41 406.24c-1484.01,0 -2853.27,-250.16 -4097.82,-744.59 -1244.18,-499.96 -2321.95,-1244.55 -3228.15,-2228.6 -905.83,-984.05 -1608.72,-2217.9 -2103.52,-3691.58 -499.59,-1473.31 -749.75,-3165.42 -749.75,-5076.33 0,-1900.58 239.46,-3556.16 723.93,-4967.12 484.09,-1410.95 1186.99,-2645.17 2113.85,-3691.58 905.83,-1015.41 1978.43,-1791 3222.98,-2321.95 1239.01,-536.49 2629.3,-802.15 4165.34,-802.15 760.08,0 1478.48,57.56 2144.84,166.78 666.73,114.38 1281.07,254.96 1853.72,426.9 484.09,150.91 989.22,343.51 1499.51,572.65 515.46,229.13 1020.58,479.3 1520.54,754.92l0 3639.55 -245 0c-265.29,-239.46 -604.01,-530.95 -1020.21,-869.3 -416.57,-338.72 -926.86,-671.9 -1525.7,-1005.08 -577.81,-306.99 -1208.02,-562.32 -1889.88,-760.08 -682.23,-202.94 -1468.51,-302.19 -2364.01,-302.19 -963.02,0 -1879.55,198.14 -2743.68,593.68 -864.5,395.91 -1624.59,978.89 -2270.29,1744.14 -640.54,770.78 -1140.13,1738.97 -1494.34,2905.29 -359.38,1161.16 -536.12,2473.23 -536.12,3931.04 0,1551.53 187.44,2884.63 562.32,4004.1 380.04,1119.46 890.33,2061.82 1541.2,2832.24 629.84,749.75 1374.43,1317.23 2228.23,1697.65 853.8,380.04 1760,567.48 2712.69,567.48 874.84,0 1681.78,-104.42 2426.37,-317.69 739.42,-213.64 1400.62,-484.09 1978.43,-806.94 562.32,-317.69 1041.24,-640.54 1452.65,-968.55 406.24,-328.02 723.93,-609.17 958.22,-843.47l229.13 0 0 3603.02c-499.96,234.3 -968.55,458.26 -1411.32,676.7 -442.4,213.64 -978.52,421.74 -1608.72,625.04 -661.2,213.27 -1275.54,374.88 -1843.02,489.26 -562.32,109.22 -1296.57,166.78 -2202.4,166.78zm26704.8 -406.24l-3852.82 0 -8034.02 -10402.83 -1889.88 0 0 10402.83 -3030.38 0 0 -22711.41 3030.38 0 0 10246.75c1192.52,-41.69 2134.88,-338.35 2832.61,-900.66 692.19,-562.32 1259.67,-1364.09 1697.28,-2410.87 182.27,-458.26 348.68,-895.5 494.42,-1306.9 145.74,-416.57 265.66,-765.25 359.38,-1046.41 609.17,-1744.14 1385.13,-2941.82 2332.65,-3597.86 947.52,-656.03 2259.59,-984.05 3941.37,-984.05l932.03 0 0 2686.49 -765.25 0c-1239.38,0 -2109.05,245 -2608.64,734.26 -494.79,489.63 -953.06,1405.79 -1374.79,2749.22 -416.2,1343.43 -884.8,2327.48 -1400.25,2952.15 -520.99,624.67 -1145.66,1176.66 -1879.92,1655.58l9215.84 11933.7zm-452.73 0l7663.94 -22711.41 3728.1 0 7664.31 22711.41 -3197.15 0 -2051.49 -6310.55 -8694.85 0 -2046.33 6310.55 -3066.54 0zm12953.91 -8934.69l-3498.6 -10662.96 -3488.64 10662.96 6987.24 0zm22711.41 8934.69l-3030.38 0 0 -9028.4 -3420.75 0 -6768.44 9028.4 -3618.52 0 7268.4 -9486.67c-1525.7,-520.62 -2702.36,-1317.23 -3540.67,-2400.17 -838.31,-1082.94 -1260.04,-2535.58 -1260.04,-4357.94 0,-1155.99 239.46,-2155.54 723.93,-2993.85 484.09,-843.47 1119.46,-1541.2 1910.91,-2098.35 723.56,-509.92 1567.03,-864.14 2530.42,-1067.07 968.19,-203.3 2030.46,-307.35 3201.95,-307.35l6003.19 0 0 22711.41zm-3030.38 -11558.82l0 -8528.45 -3139.59 0c-874.47,0 -1577.36,57.19 -2103.15,166.78 -526.16,109.22 -1010.25,312.15 -1447.48,609.17 -468.6,312.15 -833.14,749.75 -1098.8,1317.23 -265.29,567.48 -395.54,1186.99 -395.54,1869.22 0,806.94 93.72,1478.48 281.16,2014.96 187.44,536.12 489.26,1015.05 905.83,1426.45 458.26,447.93 1020.58,744.59 1676.61,895.5 661.2,151.28 1431.62,229.13 2301.29,229.13l3019.68 0zm33140.43 11558.82l-3457.28 0 -5544.93 -9028.4 -5633.85 9028.4 -3264.31 0 7252.91 -11366.22 -7034.47 -11345.19 3457.28 0 5420.22 8887.83 5539.76 -8887.83 3264.67 0 -7138.52 11194.28 7138.52 11517.13zm16728.87 -15864.74c0,989.22 -177.11,1921.24 -525.79,2801.24 -349.05,880 -833.14,1629.75 -1447.48,2249.26 -781.12,770.78 -1697.65,1358.93 -2754.38,1754.84 -1051.94,395.54 -2384.67,593.31 -3998.56,593.31l-2551.45 0 0 8466.09 -3030.38 0 0 -22711.41 5691.04 0c1343.43,0 2483.56,109.22 3425.92,333.18 942.36,223.97 1775.5,588.51 2499.06,1082.94 838.31,583.35 1499.51,1317.23 1978.8,2207.57 473.76,890.33 713.23,1962.94 713.23,3222.98zm-3155.46 73.06c0,-775.95 -135.04,-1452.65 -400.7,-2025.29 -270.83,-578.18 -677.07,-1046.78 -1218.35,-1405.79 -478.93,-317.69 -1030.91,-536.49 -1661.12,-666.73 -629.84,-129.88 -1416.12,-197.77 -2358.48,-197.77l-2483.56 0 0 8997.04 2046.33 0c1213.18,0 2192.07,-98.88 2941.82,-296.65 744.22,-192.6 1364.09,-546.82 1863.68,-1046.41 442.77,-458.26 765.62,-947.89 968.55,-1484.01 202.94,-536.49 301.82,-1161.16 301.82,-1874.38zm22144.29 -4305.92c864.14,994.38 1535.67,2228.23 2014.96,3701.91 478.93,1473.31 718.39,3155.09 718.39,5045.34 0,1843.02 -234.3,3503.77 -702.89,4987.78 -468.6,1484.01 -1145.66,2728.19 -2030.46,3738.44 -926.86,1057.11 -2009.8,1832.69 -3249.18,2337.81 -1233.85,505.12 -2597.94,754.92 -4081.95,754.92 -1541.2,0 -2925.96,-260.5 -4155.01,-775.95 -1233.85,-520.62 -2296.12,-1291.04 -3181.29,-2316.78 -874.47,-1010.25 -1546.37,-2249.26 -2014.96,-3722.94 -468.6,-1473.31 -702.89,-3139.59 -702.89,-5003.28 0,-1910.91 234.3,-3587.53 708.06,-5029.84 474.13,-1442.32 1150.83,-2681.33 2025.66,-3717.4 874.47,-1010.25 1931.57,-1775.5 3170.59,-2296.12 1239.38,-525.79 2618.97,-786.28 4149.84,-786.28 1546.37,0 2941.82,270.83 4180.84,806.94 1244.55,541.65 2296.12,1296.57 3150.29,2275.46zm-421.74 8747.25c0,-1499.51 -161.61,-2827.44 -489.63,-3983.07 -322.85,-1161.16 -781.12,-2119.38 -1369.26,-2879.47 -604.01,-781.12 -1327.93,-1364.09 -2176.57,-1754.47 -848.64,-390.74 -1801.33,-588.51 -2858.44,-588.51 -1098.43,0 -2061.82,192.6 -2879.1,572.65 -817.64,380.04 -1541.2,968.55 -2176.57,1770.33 -598.47,770.78 -1056.74,1738.97 -1379.59,2905.29 -317.69,1171.49 -478.93,2488.72 -478.93,3957.24 0,2972.82 624.67,5248.27 1874.38,6825.63 1254.88,1577.73 2931.12,2369.18 5039.8,2369.18 2103.52,0 3780.13,-791.45 5024.68,-2369.18 1244.18,-1577.36 1869.22,-3852.82 1869.22,-6825.63zm22914.34 11350.35l-3030.38 0 0 -11121.22 -10402.83 0 0 11121.22 -3030.38 0 0 -22711.41 3030.38 0 0 8903.32 10402.83 0 0 -8903.32 3030.38 0 0 22711.41zm20941.07 0l-3030.38 0 0 -18030.61 -10199.89 18030.61 -3077.24 0 0 -22711.41 3030.38 0 0 17739.12 10064.48 -17739.12 3212.65 0 0 22711.41zm21430.33 0l-3852.82 0 -8034.02 -10402.83 -1889.88 0 0 10402.83 -3030.38 0 0 -22711.41 3030.38 0 0 10246.75c1192.52,-41.69 2134.88,-338.35 2832.61,-900.66 692.19,-562.32 1259.67,-1364.09 1697.28,-2410.87 182.27,-458.26 348.68,-895.5 494.42,-1306.9 145.74,-416.57 265.66,-765.25 359.38,-1046.41 609.17,-1744.14 1385.13,-2941.82 2332.65,-3597.86 947.52,-656.03 2259.59,-984.05 3941.37,-984.05l932.03 0 0 2686.49 -765.25 0c-1239.38,0 -2109.05,245 -2608.64,734.26 -494.79,489.63 -953.06,1405.79 -1374.79,2749.22 -416.2,1343.43 -884.8,2327.48 -1400.25,2952.15 -520.99,624.67 -1145.66,1176.66 -1879.92,1655.58l9215.84 11933.7zm-452.73 0l7663.94 -22711.41 3728.1 0 7664.31 22711.41 -3197.15 0 -2051.49 -6310.55 -8694.85 0 -2046.33 6310.55 -3066.54 0zm12953.91 -8934.69l-3498.6 -10662.96 -3488.64 10662.96 6987.24 0z"/>
 </g>
</svg>
