<svg id="Capa_1" data-name="Capa 1" xmlns="http://www.w3.org/2000/svg" viewBox="0 0 399.22 395.02"><defs><style>.cls-1{fill:#fff;}</style></defs><title>zoom1</title><path class="cls-1" d="M18.51,343.63,142.37,220.95a35.45,35.45,0,0,1,24.45-10.24A129.14,129.14,0,0,1,183,46.37c51.25-50.69,134.64-50.69,185.89,0a129.14,129.14,0,0,1,0,183.85c-45.1,44.61-115.09,49.95-166.16,16a34.69,34.69,0,0,1-10.35,24.18L68.56,393.13a35.67,35.67,0,0,1-50,0A34.73,34.73,0,0,1,18.51,343.63ZM211.64,201.94c35.48,35.09,93.21,35.09,128.69,0a89.4,89.4,0,0,0,0-127.28c-35.48-35.09-93.21-35.09-128.69,0A89.4,89.4,0,0,0,211.64,201.94Z" transform="translate(-8.15 -8.36)"/></svg>