<?xml version="1.0" encoding="UTF-8"?>
<!DOCTYPE svg PUBLIC "-//W3C//DTD SVG 1.1//EN" "http://www.w3.org/Graphics/SVG/1.1/DTD/svg11.dtd">
<!-- Creator: CorelDRAW 2018 (64-Bit Evaluation Version) -->
<svg xmlns="http://www.w3.org/2000/svg" xml:space="preserve" width="740px" height="169px" version="1.1" style="shape-rendering:geometricPrecision; text-rendering:geometricPrecision; image-rendering:optimizeQuality; fill-rule:evenodd; clip-rule:evenodd"
viewBox="0 0 44.67 10.23"
 xmlns:xlink="http://www.w3.org/1999/xlink">
 <defs>
  <style type="text/css">
   <![CDATA[
    .fil0 {fill:#00CCFF}
    .fil1 {fill:#00CCFF;fill-rule:nonzero}
    .fil2 {fill:white;fill-rule:nonzero}
   ]]>
  </style>
 </defs>
 <g id="Слой_x0020_1">
  <metadata id="CorelCorpID_0Corel-Layer"/>
  <g id="_1371510028096">
   <path class="fil0" d="M5.25 6.41c0.06,-0.14 0.11,-0.79 0.1,-0.98l-0.08 0.02c-0.03,0.09 0.01,-0.07 -0.01,0.03 -0.05,0.18 -0.08,0.81 -0.01,0.93zm0.59 -2.48c0.08,-0.02 0.27,-0.2 0.32,-0.26 0.08,-0.09 0.18,-0.21 0.24,-0.33 -0.05,-0.12 -0.32,-0.36 -0.43,-0.47 -0.04,-0.05 -0.1,-0.13 -0.18,-0.14 -0.07,0.13 -0.14,0.44 -0.14,0.62 -0.01,0.24 0.08,0.43 0.19,0.58zm1.63 -3.35c-0.07,-0.03 -0.17,-0.09 -0.26,-0.13 -0.6,-0.26 -0.89,-0.33 -1.52,-0.42 -0.23,-0.03 -0.59,-0.04 -0.82,-0.02 -0.27,0.01 -0.53,0.04 -0.8,0.1 -0.07,0.01 -0.14,0.03 -0.22,0.05 -0.19,0.04 -0.45,0.14 -0.65,0.21 -0.36,0.14 -0.69,0.33 -1.02,0.55 -0.07,0.05 -0.13,0.1 -0.2,0.15 -0.19,0.14 -0.38,0.33 -0.56,0.5 -0.04,0.04 -0.07,0.1 -0.1,0.13 -0.02,0.02 -0.01,0 -0.03,0.01 -0.02,0.03 0,0.03 -0.03,0.06 -0.02,0.03 -0.02,0.01 -0.04,0.03 -0.03,0.03 0,0.02 -0.07,0.08 0,0.01 -0.02,0.03 -0.02,0.03 -0.4,0.5 -0.66,1.01 -0.88,1.61 -0.06,0.18 -0.03,0.14 -0.04,0.17 0,0.02 -0.02,0.05 -0.03,0.09 -0.09,0.32 -0.15,0.68 -0.17,0.98 0,0.08 0,0.16 -0.01,0.24 0,0.04 0,0.07 0,0.11 0.01,0.43 0.05,0.84 0.16,1.25 0.01,0.07 0.03,0.13 0.06,0.22 0.05,0.21 0.23,0.65 0.33,0.84 0.2,0.39 0.45,0.77 0.74,1.09 0.03,0.03 0.06,0.06 0.09,0.1 0.32,0.32 0.45,0.44 0.83,0.71 0.14,0.1 0.37,0.25 0.53,0.32 0.09,0.04 0.18,0.09 0.27,0.13 0.38,0.16 0.61,0.25 1.02,0.34 0.65,0.14 1.23,0.15 1.89,0.05 0.08,-0.01 0.25,-0.04 0.33,-0.07 0.05,-0.01 0.08,-0.01 0.12,-0.02 0.07,-0.02 0.14,-0.04 0.22,-0.06 0.21,-0.06 0.61,-0.22 0.84,-0.34 0.67,-0.36 1.23,-0.79 1.72,-1.42 0.03,-0.04 0.06,-0.08 0.09,-0.12 0.18,-0.24 0.26,-0.39 0.4,-0.65 0.24,-0.45 0.45,-1.06 0.52,-1.54 0.05,-0.36 0.07,-0.6 0.06,-0.96 0,-0.25 -0.03,-0.55 -0.08,-0.79 -0.03,-0.17 -0.08,-0.4 -0.13,-0.56l-0.13 -0.37c-0.01,-0.01 -0.01,-0.01 -0.01,-0.02l-0.2 -0.45c-0.15,-0.28 -0.31,-0.54 -0.51,-0.8 -0.33,-0.43 -0.71,-0.78 -1.15,-1.09 -0.14,-0.1 -0.38,-0.26 -0.54,-0.32zm-3.18 0.45l0 0.09c0.04,0.01 0.1,0.01 0.11,0.02 -0.09,0.07 -0.23,0.1 -0.37,0.09l0.13 0.05c0.06,0 0.1,-0.01 0.16,-0.02 -0.03,0.08 -0.06,0.17 -0.12,0.21 -0.09,0.06 -0.16,0.01 -0.16,-0.08 -0.05,0.03 -0.08,0.07 -0.04,0.13 0.03,0.07 0.09,0.05 0.15,0.08 -0.06,0.01 -0.12,0.03 -0.18,0.01 0.02,0.06 0.15,0.04 0.2,0.04 -0.08,0.09 -0.2,0.19 -0.37,0.15 0.03,0.08 0.11,0.08 0.22,0.09 -0.07,0.06 -0.21,0.09 -0.25,0.19l0.47 -0.2c0.07,-0.02 0.11,-0.05 0.17,-0.07 -0.16,0.15 -0.56,0.17 -0.52,0.43 0.04,-0.07 0.02,-0.09 0.11,-0.13 0.1,-0.04 0.22,-0.03 0.36,-0.11 0.08,-0.05 0.1,-0.09 0.14,-0.12 -0.12,0.28 -0.47,0.07 -0.46,0.78 0.01,0.2 0,0.4 0.01,0.61 0.02,0.27 -0.03,0.29 -0.06,0.53 -0.06,0.37 -0.01,0.79 -0.08,1.15 -0.05,0.24 -0.14,0.59 0.28,0.56 0.11,-0.01 0.06,-0.01 0.04,-0.05 -0.01,-0.02 -0.02,0.04 -0.01,-0.05 0,-0.04 0.01,-0.02 0.02,-0.07 -0.05,-0.03 -0.05,-0.02 -0.06,-0.1 0,-0.05 0,-0.11 0,-0.16 -0.02,-0.09 -0.06,-0.15 -0.07,-0.26 -0.02,-0.17 0.06,-0.41 0.1,-0.57 0.02,-0.12 0.13,-0.48 0.13,-0.54 0,-0.14 -0.03,-0.52 0.03,-0.62 0.27,0.91 0.02,0.83 0.02,1.69 0,0.19 0.04,0.42 -0.02,0.59l0.11 0.02c0.05,0.36 0.13,0.76 0.2,1.12 0.08,0.42 0.08,0.23 0.01,0.58 -0.02,0.13 0.08,0.42 0.11,0.54 0.06,0.21 0.04,0.37 0.08,0.58 0.02,0.09 0.02,0.19 0.04,0.29 0.02,0.16 0.04,0.13 0.02,0.29 -0.02,0.09 -0.03,0.19 -0.04,0.29 -0.01,0.1 -0.04,0.18 -0.05,0.28 -0.02,0.11 0,0.18 0.04,0.23 -0.14,-0.01 -0.27,-0.02 -0.41,-0.04 -0.16,-0.02 -0.27,-0.05 -0.42,-0.08 -0.04,-0.01 -0.06,-0.02 -0.1,-0.03 -0.03,-0.01 -0.07,-0.01 -0.11,-0.02l-0.32 -0.11c-0.17,-0.08 -0.36,-0.16 -0.53,-0.25 -0.19,-0.09 -0.51,-0.3 -0.67,-0.43 -0.77,-0.64 -1.31,-1.41 -1.55,-2.39 -0.08,-0.3 -0.15,-0.72 -0.15,-1.03 0,-0.03 0,-0.03 0,-0.04l0.02 -0.5c0.08,-0.78 0.39,-1.62 0.91,-2.28 0.27,-0.36 0.44,-0.52 0.78,-0.79 0.05,-0.05 0.1,-0.09 0.16,-0.13 0.22,-0.15 0.43,-0.28 0.68,-0.4 0.24,-0.11 0.47,-0.2 0.72,-0.27 0.34,-0.09 0.65,-0.15 0.96,-0.16 -0.14,0.08 -0.23,0.21 -0.35,0.32 -0.06,0.06 -0.16,0.15 -0.22,0.07zm0.91 8.57c0.02,-0.06 0.05,-0.2 0.06,-0.24 0.01,-0.08 -0.03,-0.18 -0.03,-0.28 -0.01,-0.58 0.19,-1.08 0.32,-1.63 0.12,-0.56 -0.12,-0.51 0.27,-1.68 0.02,-0.08 0.05,-0.16 0.08,-0.24 0.06,-0.2 0,-0.09 0.14,-0.18 0.01,-0.09 -0.01,-0.21 -0.01,-0.32 0,-0.26 0.03,-0.36 -0.05,-0.61 -0.03,-0.09 -0.08,-0.18 -0.1,-0.25 0.16,-0.15 0.35,-0.27 0.5,-0.41 0.05,-0.04 0.08,-0.07 0.12,-0.11 0.05,-0.04 0.08,-0.06 0.13,-0.11 0.19,-0.21 -0.01,-0.35 -0.19,-0.57l-0.41 -0.51c-0.13,-0.16 -0.11,-0.09 -0.11,-0.36 0.15,0.01 0.35,0.01 0.4,-0.1 -0.09,0.03 -0.31,0.03 -0.39,-0.06 0.13,0.02 0.44,0.08 0.51,-0.04 -0.13,0.03 -0.33,0.03 -0.45,-0.06 0.19,0.03 0.37,0.07 0.46,-0.09 -0.1,0.03 -0.14,0.07 -0.28,0.03 -0.06,-0.02 -0.19,-0.08 -0.21,-0.13 0.06,0 0.17,0.02 0.2,0 -0.1,-0.04 -0.21,-0.06 -0.3,-0.1 0.29,0.03 0.27,0.03 0.41,0.13 -0.02,-0.19 -0.13,-0.2 -0.25,-0.28 0.1,0 0.18,0.03 0.24,0.05 -0.04,-0.11 -0.27,-0.11 -0.38,-0.17 0.04,-0.03 0.04,-0.01 0.08,-0.05l-0.07 -0.01c-0.31,-0.02 -0.35,-0.41 -0.52,-0.58 0.15,0.01 0.31,0.03 0.48,0.05l0.21 0.04c0.1,0.02 0.32,0.08 0.43,0.12 0.21,0.07 0.48,0.17 0.68,0.28 0.03,0.02 0.06,0.03 0.1,0.05 0.28,0.17 0.46,0.27 0.71,0.49l0.33 0.3c0.04,0.02 0.04,0.04 0.07,0.08 0.07,0.07 0.15,0.15 0.21,0.23 0.25,0.34 0.25,0.33 0.44,0.66 0.07,0.11 0.13,0.24 0.18,0.35 0.31,0.73 0.43,1.42 0.36,2.25 -0.03,0.45 -0.14,0.83 -0.31,1.26 -0.1,0.27 -0.29,0.63 -0.47,0.88 -0.1,0.14 -0.19,0.25 -0.3,0.37 -0.05,0.06 -0.09,0.11 -0.15,0.17 -0.14,0.16 -0.46,0.43 -0.63,0.55 -0.1,0.06 -0.16,0.11 -0.26,0.16 -0.02,0.01 -0.02,0.02 -0.04,0.03 -0.48,0.28 -0.86,0.42 -1.38,0.54 -0.03,0.01 -0.06,0.01 -0.09,0.02 -0.13,0.02 -0.24,0.03 -0.38,0.05 -0.12,0.01 -0.24,0.02 -0.36,0.03z"/>
   <path class="fil1" d="M44.67 8.17l-1.61 0 -1.17 -1.88 -0.21 0.28 0 1.6 -1.35 0 0 -6 1.35 0 0 3.36 1.28 -1.69 1.6 0 -1.52 1.87 1.63 2.46zm-5.11 0l-1.35 0 0 -2.15c0,-0.17 -0.01,-0.34 -0.02,-0.52 -0.02,-0.17 -0.04,-0.3 -0.08,-0.38 -0.05,-0.1 -0.12,-0.17 -0.2,-0.21 -0.09,-0.04 -0.21,-0.06 -0.36,-0.06 -0.11,0 -0.22,0.02 -0.33,0.06 -0.12,0.04 -0.24,0.1 -0.37,0.19l0 3.07 -1.35 0 0 -4.33 1.35 0 0 0.48c0.22,-0.18 0.44,-0.33 0.65,-0.44 0.21,-0.1 0.44,-0.15 0.69,-0.15 0.44,0 0.78,0.14 1.02,0.41 0.23,0.28 0.35,0.69 0.35,1.21l0 2.82zm-6.18 -0.46c-0.09,0.08 -0.17,0.15 -0.25,0.21 -0.07,0.06 -0.17,0.12 -0.29,0.18 -0.12,0.06 -0.24,0.11 -0.35,0.14 -0.11,0.03 -0.27,0.05 -0.48,0.05 -0.38,0 -0.7,-0.13 -0.95,-0.39 -0.25,-0.26 -0.38,-0.58 -0.38,-0.97 0,-0.33 0.07,-0.59 0.2,-0.78 0.12,-0.2 0.31,-0.36 0.55,-0.47 0.24,-0.12 0.53,-0.21 0.87,-0.25 0.34,-0.05 0.7,-0.08 1.09,-0.11l0 -0.02c0,-0.24 -0.09,-0.41 -0.26,-0.5 -0.18,-0.09 -0.44,-0.13 -0.79,-0.13 -0.16,0 -0.35,0.02 -0.56,0.08 -0.21,0.06 -0.42,0.13 -0.62,0.22l-0.11 0 0 -1.04c0.13,-0.04 0.35,-0.09 0.64,-0.14 0.3,-0.05 0.6,-0.08 0.9,-0.08 0.75,0 1.29,0.12 1.63,0.37 0.34,0.25 0.51,0.63 0.51,1.14l0 2.95 -1.35 0 0 -0.46zm0 -0.67l0 -0.91c-0.22,0.03 -0.41,0.05 -0.55,0.06 -0.14,0.02 -0.28,0.05 -0.41,0.1 -0.12,0.04 -0.21,0.11 -0.27,0.19 -0.07,0.08 -0.1,0.19 -0.1,0.33 0,0.21 0.05,0.35 0.16,0.42 0.11,0.08 0.27,0.12 0.48,0.12 0.12,0 0.24,-0.03 0.36,-0.08 0.12,-0.06 0.23,-0.13 0.33,-0.23zm-4.39 -0.65c0,-0.18 -0.03,-0.32 -0.1,-0.42 -0.08,-0.1 -0.18,-0.17 -0.33,-0.23 -0.09,-0.03 -0.2,-0.05 -0.36,-0.05 -0.15,-0.01 -0.35,-0.01 -0.61,-0.01l-0.27 0 0 1.44 0.08 0c0.37,0 0.63,0 0.78,-0.01 0.14,0 0.29,-0.04 0.44,-0.1 0.13,-0.06 0.22,-0.14 0.28,-0.25 0.06,-0.11 0.09,-0.23 0.09,-0.37zm-0.36 -2.34c0,-0.09 -0.02,-0.19 -0.07,-0.28 -0.05,-0.1 -0.12,-0.17 -0.22,-0.21 -0.1,-0.05 -0.21,-0.07 -0.34,-0.07 -0.13,-0.01 -0.32,-0.01 -0.58,-0.01l-0.1 0 0 1.22 0.18 0c0.25,0 0.42,-0.01 0.52,-0.01 0.1,-0.01 0.2,-0.03 0.31,-0.08 0.11,-0.06 0.19,-0.13 0.24,-0.23 0.04,-0.09 0.06,-0.2 0.06,-0.33zm1.85 2.36c0,0.29 -0.06,0.54 -0.16,0.75 -0.11,0.22 -0.26,0.4 -0.44,0.54 -0.22,0.17 -0.45,0.29 -0.71,0.36 -0.26,0.07 -0.59,0.11 -0.99,0.11l-2.29 0 0 -5.74 2.02 0c0.43,0 0.75,0.02 0.96,0.05 0.22,0.03 0.43,0.1 0.62,0.2 0.2,0.11 0.36,0.26 0.46,0.45 0.1,0.18 0.15,0.39 0.15,0.64 0,0.27 -0.07,0.52 -0.21,0.74 -0.14,0.22 -0.34,0.38 -0.58,0.48l0 0.04c0.35,0.07 0.64,0.22 0.85,0.45 0.21,0.23 0.32,0.54 0.32,0.93z"/>
   <path class="fil2" d="M23.93 6.02c0,-0.26 -0.02,-0.47 -0.06,-0.64 -0.04,-0.17 -0.1,-0.31 -0.18,-0.41 -0.07,-0.11 -0.17,-0.18 -0.27,-0.23 -0.1,-0.04 -0.21,-0.06 -0.34,-0.06 -0.12,0 -0.23,0.02 -0.33,0.06 -0.1,0.03 -0.19,0.1 -0.27,0.21 -0.08,0.1 -0.14,0.24 -0.19,0.41 -0.04,0.17 -0.07,0.39 -0.07,0.66 0,0.26 0.03,0.47 0.07,0.63 0.04,0.17 0.1,0.3 0.17,0.39 0.07,0.1 0.16,0.18 0.27,0.22 0.11,0.05 0.23,0.07 0.36,0.07 0.11,0 0.22,-0.02 0.33,-0.07 0.11,-0.04 0.2,-0.11 0.27,-0.2 0.08,-0.11 0.14,-0.25 0.18,-0.4 0.04,-0.16 0.06,-0.37 0.06,-0.64zm1.39 -0.01c0,0.71 -0.2,1.27 -0.59,1.68 -0.39,0.41 -0.94,0.61 -1.65,0.61 -0.71,0 -1.26,-0.2 -1.65,-0.61 -0.39,-0.41 -0.59,-0.97 -0.59,-1.68 0,-0.72 0.2,-1.28 0.59,-1.69 0.39,-0.41 0.94,-0.61 1.65,-0.61 0.71,0 1.26,0.21 1.65,0.61 0.39,0.41 0.59,0.97 0.59,1.69zm-4.45 -0.89l-0.11 0c-0.06,-0.02 -0.13,-0.03 -0.23,-0.04 -0.1,-0.01 -0.21,-0.01 -0.32,-0.01 -0.15,0 -0.29,0.02 -0.45,0.06 -0.16,0.04 -0.31,0.09 -0.45,0.15l0 2.89 -1.35 0 0 -4.33 1.35 0 0 0.62c0.06,-0.05 0.14,-0.12 0.25,-0.21 0.11,-0.09 0.21,-0.15 0.3,-0.21 0.1,-0.05 0.21,-0.1 0.34,-0.15 0.14,-0.04 0.26,-0.06 0.37,-0.06 0.05,0 0.1,0 0.15,0 0.05,0.01 0.1,0.01 0.15,0.01l0 1.28zm-4.86 -0.84c0,-0.16 -0.04,-0.3 -0.12,-0.42 -0.08,-0.12 -0.17,-0.2 -0.28,-0.24 -0.13,-0.06 -0.26,-0.09 -0.39,-0.1 -0.12,-0.01 -0.29,-0.01 -0.5,-0.01l-0.21 0 0 1.71 0.1 0c0.14,0 0.27,0 0.39,-0.01 0.12,0 0.22,-0.01 0.31,-0.02 0.08,-0.02 0.16,-0.04 0.25,-0.08 0.08,-0.04 0.15,-0.08 0.2,-0.12 0.09,-0.1 0.16,-0.2 0.19,-0.3 0.04,-0.1 0.06,-0.24 0.06,-0.41zm1.48 -0.04c0,0.27 -0.04,0.52 -0.13,0.76 -0.08,0.25 -0.21,0.45 -0.36,0.61 -0.1,0.1 -0.21,0.19 -0.33,0.28 -0.11,0.08 -0.24,0.15 -0.38,0.21 -0.15,0.06 -0.3,0.11 -0.46,0.14 -0.17,0.03 -0.35,0.05 -0.56,0.05l-0.76 0 0 1.88 -1.44 0 0 -5.74 2.23 0c0.33,0 0.62,0.03 0.86,0.09 0.24,0.06 0.45,0.16 0.65,0.29 0.22,0.14 0.38,0.33 0.5,0.58 0.12,0.23 0.18,0.52 0.18,0.85z"/>
  </g>
 </g>
</svg>
