<?xml version="1.0" encoding="UTF-8"?>
<!DOCTYPE svg PUBLIC "-//W3C//DTD SVG 1.1//EN" "http://www.w3.org/Graphics/SVG/1.1/DTD/svg11.dtd">
<!-- Creator: CorelDRAW 2018 (64-Bit Evaluation Version) -->
<svg xmlns="http://www.w3.org/2000/svg" xml:space="preserve" width="82.0502mm" height="14.3332mm" version="1.1" style="shape-rendering:geometricPrecision; text-rendering:geometricPrecision; image-rendering:optimizeQuality; fill-rule:evenodd; clip-rule:evenodd"
viewBox="0 0 529.32 92.47"
 xmlns:xlink="http://www.w3.org/1999/xlink">
 <defs>
  <style type="text/css">
   <![CDATA[
    .fil2 {fill:lime}
    .fil1 {fill:lime;fill-rule:nonzero}
    .fil0 {fill:white;fill-rule:nonzero}
   ]]>
  </style>
 </defs>
 <g id="Слой_x0020_1">
  <metadata id="CorelCorpID_0Corel-Layer"/>
  <g id="_1371624357392">
   <path class="fil0" d="M163.79 80.58c-4.93,0 -9.27,-0.47 -13.02,-1.44 -3.75,-0.95 -7.21,-2.13 -10.43,-3.55l0 -15.36 1.47 0c3.24,2.74 6.8,4.84 10.69,6.32 3.9,1.47 7.67,2.21 11.34,2.21 0.92,0 2.13,-0.1 3.64,-0.3 1.53,-0.21 2.74,-0.52 3.66,-0.96 1.13,-0.49 2.09,-1.17 2.86,-2.04 0.79,-0.89 1.17,-2.04 1.17,-3.48 0,-1.61 -0.64,-2.93 -1.91,-3.95 -1.26,-1.01 -2.78,-1.75 -4.55,-2.21 -2.19,-0.58 -4.53,-1.13 -7.03,-1.64 -2.5,-0.52 -4.83,-1.15 -6.99,-1.91 -5,-1.76 -8.57,-4.13 -10.75,-7.11 -2.16,-2.98 -3.24,-6.71 -3.24,-11.19 0,-6.04 2.56,-10.93 7.67,-14.67 5.12,-3.75 11.51,-5.61 19.16,-5.61 3.85,0 7.67,0.39 11.48,1.17 3.79,0.79 7.2,1.84 10.2,3.17l0 14.76 -1.42 0c-2.4,-2.04 -5.32,-3.76 -8.77,-5.17 -3.45,-1.41 -6.99,-2.12 -10.63,-2.12 -1.41,0 -2.68,0.1 -3.81,0.3 -1.13,0.21 -2.31,0.59 -3.55,1.17 -1.01,0.44 -1.88,1.13 -2.61,2.03 -0.74,0.9 -1.11,1.91 -1.11,3.04 0,1.64 0.58,2.95 1.75,3.92 1.17,0.96 3.44,1.84 6.78,2.62 2.16,0.49 4.25,0.96 6.26,1.42 2,0.47 4.15,1.1 6.43,1.91 4.47,1.61 7.8,3.79 9.98,6.53 2.18,2.72 3.27,6.34 3.27,10.81 0,6.43 -2.52,11.58 -7.57,15.49 -5.04,3.89 -11.85,5.85 -20.43,5.85zm81.07 -1.15l-15.19 0 0 -24.14c0,-1.97 -0.07,-3.92 -0.24,-5.88 -0.16,-1.95 -0.46,-3.39 -0.9,-4.31 -0.52,-1.1 -1.27,-1.9 -2.27,-2.37 -0.99,-0.47 -2.31,-0.71 -3.97,-0.71 -1.26,0 -2.52,0.24 -3.8,0.7 -1.27,0.46 -2.65,1.2 -4.1,2.21l0 34.5 -15.19 0 0 -67.52 15.19 0 0 24.23c2.49,-2.12 4.92,-3.76 7.27,-4.95 2.35,-1.18 4.98,-1.78 7.83,-1.78 4.98,0 8.78,1.57 11.42,4.71 2.64,3.12 3.95,7.67 3.95,13.62l0 31.69zm58.03 -24.33c0,8.01 -2.19,14.32 -6.57,18.92 -4.4,4.6 -10.59,6.92 -18.61,6.92 -7.97,0 -14.16,-2.31 -18.57,-6.92 -4.41,-4.6 -6.62,-10.91 -6.62,-18.92 0,-8.08 2.21,-14.42 6.62,-19 4.41,-4.58 10.6,-6.87 18.57,-6.87 8,0 14.19,2.31 18.58,6.91 4.4,4.6 6.6,10.93 6.6,18.95zm-15.55 0.09c0,-2.87 -0.24,-5.27 -0.73,-7.18 -0.47,-1.93 -1.14,-3.45 -1.98,-4.61 -0.89,-1.21 -1.91,-2.06 -3.05,-2.53 -1.13,-0.47 -2.43,-0.71 -3.88,-0.71 -1.36,0 -2.61,0.21 -3.7,0.62 -1.11,0.41 -2.13,1.21 -3.06,2.4 -0.86,1.13 -1.57,2.66 -2.09,4.62 -0.52,1.97 -0.79,4.43 -0.79,7.39 0,2.98 0.25,5.38 0.74,7.2 0.49,1.84 1.14,3.29 1.92,4.38 0.81,1.13 1.82,1.94 3.05,2.46 1.21,0.52 2.58,0.78 4.06,0.78 1.21,0 2.46,-0.27 3.73,-0.78 1.26,-0.52 2.27,-1.29 3.02,-2.32 0.9,-1.24 1.58,-2.72 2.06,-4.47 0.46,-1.75 0.7,-4.16 0.7,-7.24zm70.38 -0.09c0,8.01 -2.19,14.32 -6.58,18.92 -4.4,4.6 -10.59,6.92 -18.61,6.92 -7.97,0 -14.16,-2.31 -18.57,-6.92 -4.41,-4.6 -6.62,-10.91 -6.62,-18.92 0,-8.08 2.21,-14.42 6.62,-19 4.41,-4.58 10.6,-6.87 18.57,-6.87 8,0 14.19,2.31 18.58,6.91 4.4,4.6 6.6,10.93 6.6,18.95zm-15.55 0.09c0,-2.87 -0.24,-5.27 -0.73,-7.18 -0.47,-1.93 -1.14,-3.45 -1.98,-4.61 -0.89,-1.21 -1.91,-2.06 -3.05,-2.53 -1.13,-0.47 -2.43,-0.71 -3.88,-0.71 -1.36,0 -2.61,0.21 -3.7,0.62 -1.11,0.41 -2.13,1.21 -3.07,2.4 -0.86,1.13 -1.57,2.66 -2.09,4.62 -0.52,1.97 -0.79,4.43 -0.79,7.39 0,2.98 0.25,5.38 0.74,7.2 0.49,1.84 1.14,3.29 1.92,4.38 0.82,1.13 1.82,1.94 3.05,2.46 1.21,0.52 2.58,0.78 4.06,0.78 1.21,0 2.46,-0.27 3.73,-0.78 1.26,-0.52 2.27,-1.29 3.02,-2.32 0.9,-1.24 1.58,-2.72 2.06,-4.47 0.46,-1.75 0.7,-4.16 0.7,-7.24zm42.31 25.22c-6.19,0 -10.71,-1.27 -13.54,-3.82 -2.83,-2.55 -4.24,-6.71 -4.24,-12.5l0 -22.78 -5.77 0 0 -10.57 5.77 0 0 -13.95 15.19 0 0 13.95 14.66 0 0 10.57 -14.66 0 0 17.3c0,1.72 0.02,3.21 0.05,4.49 0.03,1.27 0.27,2.41 0.7,3.43 0.4,1.01 1.12,1.82 2.15,2.41 1.04,0.59 2.53,0.89 4.5,0.89 0.82,0 1.88,-0.18 3.2,-0.53 1.32,-0.36 2.25,-0.68 2.77,-0.98l1.3 0 0 10.69c-1.65,0.44 -3.41,0.79 -5.26,1.02 -1.85,0.25 -4.13,0.37 -6.83,0.37z"/>
   <path class="fil1" d="M474.61 80.42l-16.17 0 0 -42.82 -11.76 27.63 -11.05 0 -11.76 -27.63 0 42.82 -15.28 0 0 -64.59 18.7 0 14.32 31.88 14.26 -31.88 18.73 0 0 64.59zm34.66 1.33c-9.21,0 -16.27,-2.19 -21.19,-6.59 -4.9,-4.4 -7.36,-10.66 -7.36,-18.79 0,-7.95 2.3,-14.29 6.87,-19.04 4.58,-4.74 10.99,-7.11 19.21,-7.11 7.48,0 13.1,2.01 16.87,6.04 3.78,4.01 5.66,9.77 5.66,17.28l0 5.46 -33.41 0c0.15,2.27 0.62,4.15 1.44,5.67 0.82,1.53 1.88,2.72 3.23,3.63 1.3,0.89 2.83,1.54 4.56,1.93 1.75,0.4 3.64,0.59 5.7,0.59 1.78,0 3.51,-0.19 5.23,-0.59 1.72,-0.4 3.29,-0.92 4.71,-1.57 1.24,-0.56 2.4,-1.16 3.45,-1.81 1.07,-0.65 1.92,-1.21 2.59,-1.72l1.61 0 0 12.57c-1.24,0.49 -2.38,0.95 -3.41,1.36 -1.04,0.43 -2.44,0.86 -4.23,1.29 -1.66,0.43 -3.36,0.77 -5.11,1.02 -1.76,0.25 -3.9,0.37 -6.41,0.37zm5.12 -31.9c-0.09,-3.24 -0.84,-5.72 -2.25,-7.4 -1.42,-1.7 -3.58,-2.55 -6.5,-2.55 -2.99,0 -5.32,0.89 -6.99,2.68 -1.67,1.78 -2.61,4.2 -2.78,7.27l18.52 0z"/>
   <path class="fil2" d="M52.69 28.67c4.56,-3.2 10.67,-2.33 14,2.23 3.26,4.48 2.28,10.88 -2.29,14.09 -4.55,3.19 -10.66,2.23 -13.96,-2.26 -3.28,-4.46 -2.31,-10.85 2.26,-14.06zm-19.75 13.98c-3.78,1.56 -1.09,7.19 2.44,5.48 3.5,-1.7 1.21,-6.99 -2.44,-5.48zm37.11 -18.26c-2.9,-2.88 -7.72,-4.64 -11.8,-4.52 -9.27,0.29 -16.51,7.54 -16.63,16.84 -0.06,4.07 1.69,8.79 4.59,11.66l0.88 0.87c6.14,6.09 17.12,5.88 23.18,-0.22l0.58 -0.59c6.06,-6.1 6.21,-17.09 0.07,-23.19l-0.88 -0.87zm1.34 -15.81l16.6 16.49c2.26,2.24 2.27,5.17 0.03,7.43l-33.48 33.69c-2.29,2.31 -5.19,2.44 -7.53,0.12l-16.5 -16.4c-1.62,-1.61 -2.35,-3.72 -1.34,-5.86 0.76,-1.62 4.66,-5.13 6.07,-6.55 1.15,-1.15 2.08,-1.98 2.6,-3.58 1.72,-5.24 -4.66,-8.41 -3.23,-9.85l11.06 -11.13c1.4,-1.41 4.53,4.7 9.65,3.24 3.6,-1.03 6.83,-6.97 10.13,-8.73 2.06,-1.1 4.33,-0.47 5.94,1.13zm-17.78 0.73c-2.68,-2.16 -5.38,-4.13 -9.05,-3.36 -2.13,0.45 -3.33,1.76 -4.8,3.24l-8.93 8.98c-1.48,1.49 -2.78,2.69 -3.21,4.82 -0.35,1.69 -0.21,3.36 0.57,4.91 0.61,1.19 1.88,2.9 2.84,4.12 -4.43,4.36 -10.26,8.77 -9.05,15.77 0.32,1.84 0.64,2.77 1.62,4.3 0.2,0.32 0.36,0.61 0.48,0.97l0.05 0.15 19.51 19.38 0.15 0.05c0.05,0.02 0.11,0.04 0.16,0.06 1.54,0.67 1.92,1.3 3.92,1.78 1.23,0.3 3.01,0.49 4.26,0.28 4.05,-0.69 5.37,-1.86 8.23,-4.74l31.53 -31.73c2.74,-2.75 4.05,-4.39 4.61,-8.27 0.27,-1.91 -0.04,-3.75 -0.79,-5.52 -0.36,-0.85 -1.15,-1.99 -1.4,-2.7l-0.05 -0.15 -19.5 -19.38 -0.15 -0.05c-0.41,-0.14 -0.72,-0.3 -1.08,-0.54 -1.47,-0.96 -2.56,-1.25 -4.31,-1.55 -6.82,-1.16 -11.37,4.8 -15.61,9.17zm40.96 59.49c-2.03,2.21 -5.2,5.09 -7.28,6.63 -6.66,4.9 -13.35,7.77 -21.46,9.3 -2.85,0.54 -5.73,0.73 -8.63,0.74 -2.93,0.01 -6.07,-0.36 -8.97,-0.85 -1.54,-0.26 -3.03,-0.71 -4.55,-1.08 -3.14,-0.75 -6.28,-2.17 -9.17,-3.61 -21.28,-10.61 -31.92,-35.64 -25.15,-58.38 0.69,-2.31 3.02,-6.65 0.71,-8.6 -1.48,-1.25 -3.78,-1.31 -5.19,0.08 -0.85,0.83 -1.72,3.65 -2.12,4.85 -1,3 -1.65,5.97 -2.17,9.14l-0.58 6.55c-0.59,30.52 20.69,55.3 51.21,58.88l12.41 -0.11c0.85,-0.11 1.7,-0.08 2.55,-0.23 13.64,-2.36 23.06,-7.71 32.81,-17.22 0.06,0.62 0.08,1.26 0.21,1.87 0.53,2.46 0.19,8.45 2.03,10.01 1.26,1.07 3.93,1.08 5.04,-0.22 1.95,-2.31 0.35,-8.73 0.1,-11.66l-0.64 -5.47c-0.23,-1.35 -0.19,-4.33 -0.81,-5.36 -1.05,-1.73 -5.14,-2.01 -6.92,-2.23l-13.9 -1.67c-1.04,-0.03 -2.5,0.51 -3.18,1.32 -1.27,1.51 -0.84,4.17 0.71,5.33 1.44,1.07 9.29,1.48 12.95,1.99z"/>
  </g>
 </g>
</svg>
