<?xml version="1.0" encoding="iso-8859-1"?>
<!-- Generator: Adobe Illustrator 19.0.0, SVG Export Plug-In . SVG Version: 6.00 Build 0)  -->
<svg version="1.1" id="Capa_1" xmlns="http://www.w3.org/2000/svg" xmlns:xlink="http://www.w3.org/1999/xlink" x="0px" y="0px"
	 viewBox="0 0 512 512" style="enable-background:new 0 0 512 512;" xml:space="preserve">
<g>
	<g>
		<path d="M256,0C114.833,0,0,114.844,0,256s114.833,256,256,256s256-114.844,256-256S397.167,0,256,0z M256,490.667
			C126.604,490.667,21.333,385.396,21.333,256c0-60.866,23.488-116.212,61.628-157.956l53.493,53.494
			c-17.207,5.499-29.788,21.451-29.788,40.462v149.333c0,23.531,19.146,42.667,42.667,42.667h213.333
			c1.944,0,3.801-0.322,5.676-0.574l45.613,45.613C372.212,467.178,316.866,490.667,256,490.667z M256,192
			c-13.973,0-26.91,4.1-38.107,10.81l-32.143-32.143h12.5c5.688,0,11.063-2.219,15.083-6.25l15.083-15.083h55.167l15.083,15.083
			c4.021,4.031,9.396,6.25,15.083,6.25h48.917C374.438,170.667,384,180.24,384,192v149.333c0,7.499-4.117,13.79-9.987,17.596
			l-54.156-54.156c6.71-11.197,10.81-24.134,10.81-38.107C330.667,225.5,297.167,192,256,192z M233.544,218.461
			c6.849-3.204,14.406-5.128,22.456-5.128c29.417,0,53.333,23.927,53.333,53.333c0,8.048-1.924,15.605-5.129,22.454L233.544,218.461
			z M291.276,306.359C281.852,314.743,269.581,320,256,320c-29.417,0-53.333-23.927-53.333-53.333
			c0-13.578,5.256-25.85,13.641-35.276L291.276,306.359z M201.232,216.315c-12.24,13.305-19.898,30.895-19.898,50.352
			c0,41.167,33.5,74.667,74.667,74.667c19.457,0,37.047-7.659,50.352-19.898l41.232,41.232h-198.25
			c-11.771,0-21.333-9.573-21.333-21.333V192c0-11.76,9.563-21.333,21.333-21.333h6.25L201.232,216.315z M429.039,413.956
			l-39.641-39.641c9.638-7.829,15.935-19.622,15.935-32.982V192c0-23.531-19.146-42.667-42.667-42.667H313.75l-15.083-15.083
			c-4.021-4.031-9.396-6.25-15.083-6.25h-55.167c-5.688,0-11.063,2.219-15.083,6.25l-15.083,15.083h-33.833L98.044,82.961
			C139.788,44.822,195.134,21.333,256,21.333c129.396,0,234.667,105.271,234.667,234.667
			C490.667,316.866,467.178,372.212,429.039,413.956z"/>
	</g>
</g>
<g>
</g>
<g>
</g>
<g>
</g>
<g>
</g>
<g>
</g>
<g>
</g>
<g>
</g>
<g>
</g>
<g>
</g>
<g>
</g>
<g>
</g>
<g>
</g>
<g>
</g>
<g>
</g>
<g>
</g>
</svg>
