<?xml version="1.0" encoding="UTF-8"?>
<!DOCTYPE svg PUBLIC "-//W3C//DTD SVG 1.1//EN" "http://www.w3.org/Graphics/SVG/1.1/DTD/svg11.dtd">
<!-- Creator: CorelDRAW X8 -->
<svg xmlns="http://www.w3.org/2000/svg" xml:space="preserve" width="3.01867in" height="0.69098in" version="1.1" style="shape-rendering:geometricPrecision; text-rendering:geometricPrecision; image-rendering:optimizeQuality; fill-rule:evenodd; clip-rule:evenodd"
viewBox="0 0 182 42"
 xmlns:xlink="http://www.w3.org/1999/xlink">
 <defs>
  <style type="text/css">
   <![CDATA[
    .fil0 {fill:#00CCFF}
    .fil1 {fill:#00CCFF;fill-rule:nonzero}
    .fil2 {fill:white;fill-rule:nonzero}
   ]]>
  </style>
 </defs>
 <g id="Слой_x0020_1">
  <metadata id="CorelCorpID_0Corel-Layer"/>
  <g id="_2285500719584">
   <path class="fil0" d="M21 26c1,0 1,-3 1,-4l-1 0c0,1 1,0 0,0 0,1 0,4 0,4zm3 -10c0,0 1,-1 1,-1 0,0 1,-1 1,-1 0,-1 -1,-2 -2,-2 0,0 0,-1 0,-1 -1,1 -1,2 -1,3 0,1 0,1 1,2zm6 -14c0,0 0,0 -1,0 -2,-1 -3,-2 -6,-2 -1,0 -2,0 -3,0 -1,0 -2,0 -3,0 -1,0 -1,1 -1,1 -1,0 -2,0 -3,1 -1,0 -3,1 -4,2 0,0 -1,0 -1,0 -1,1 -1,2 -2,2 0,1 0,1 -1,1 0,0 0,0 0,0 0,0 0,0 0,0 0,0 0,0 0,0 0,0 0,0 0,1 0,0 0,0 0,0 -2,2 -3,4 -4,6 0,1 0,1 0,1 0,0 0,0 0,0 -1,2 -1,3 -1,4 0,1 0,1 0,1 0,1 0,1 0,1 0,2 0,3 1,5 0,0 0,0 0,1 0,1 1,2 1,3 1,2 2,3 3,5 0,0 1,0 1,0 1,1 1,2 3,3 1,0 2,1 2,1 1,0 1,1 1,1 2,1 3,1 4,1 3,1 5,1 8,0 0,0 1,0 2,0 0,0 0,0 0,0 0,0 1,0 1,0 1,0 2,-1 3,-2 3,-1 5,-3 7,-5 0,-1 1,-1 1,-1 0,-1 1,-1 1,-2 1,-2 2,-5 2,-7 1,-1 1,-2 1,-4 0,-1 0,-2 -1,-3 0,-1 0,-2 0,-2l-1 -2c0,0 0,0 0,0l-1 -2c0,-1 -1,-2 -2,-3 -1,-2 -3,-3 -4,-4 -1,-1 -2,-1 -3,-2zm-12 2l0 1c0,0 0,0 0,0 0,0 -1,0 -2,0l1 0c0,0 0,0 1,0 0,0 -1,1 -1,1 0,0 -1,0 -1,0 0,0 0,0 0,0 0,0 1,0 1,1 0,0 -1,0 -1,0 0,0 1,0 1,0 0,0 -1,0 -2,0 1,1 1,1 1,1 0,0 0,0 -1,0l2 0c1,0 1,-1 1,-1 -1,1 -2,1 -2,2 0,0 0,0 0,0 1,-1 1,-1 2,-1 0,0 0,0 0,0 0,1 -2,0 -2,3 1,1 0,1 1,2 0,1 -1,2 -1,2 0,2 0,4 0,5 0,1 -1,3 1,2 1,0 0,0 0,0 0,0 0,0 0,0 0,0 0,0 0,0 0,0 0,0 0,-1 0,0 0,0 0,0 0,-1 0,-1 0,-1 0,-1 0,-2 0,-3 0,0 1,-2 1,-2 0,0 0,-2 0,-2 1,3 0,3 0,6 0,1 0,2 0,3l0 0c0,1 1,3 1,5 0,1 0,0 0,2 0,0 0,2 1,2 0,1 0,2 0,2 0,1 0,1 0,2 0,0 0,0 0,1 0,0 0,1 0,1 0,0 0,1 0,1 0,1 0,1 0,1 -1,0 -1,0 -2,0 0,0 -1,0 -1,0 -1,0 -1,0 -1,0 0,-1 0,-1 0,-1l-2 0c0,0 -1,-1 -2,-1 -1,0 -2,-1 -2,-2 -4,-2 -6,-6 -7,-10 0,-1 0,-2 0,-4 0,0 0,0 0,0l0 -2c0,-3 1,-7 3,-9 1,-2 2,-2 4,-3 0,-1 0,-1 0,-1 1,-1 2,-1 3,-2 1,0 2,0 3,-1 1,0 3,0 4,0 -1,0 -1,0 -2,1 0,0 0,1 0,0zm3 35c0,0 0,-1 0,-1 1,0 0,-1 0,-1 0,-2 1,-4 2,-7 0,-2 -1,-2 1,-6 0,-1 0,-1 0,-1 0,-1 0,-1 1,-1 0,-1 0,-1 0,-1 0,-2 0,-2 -1,-3 0,0 0,-1 0,-1 1,-1 1,-1 2,-2 0,0 0,0 1,0 0,0 0,0 0,-1 1,0 0,-1 -1,-2l-1 -2c-1,-1 -1,0 -1,-1 1,0 2,0 2,-1 -1,0 -1,0 -2,0 1,0 2,0 2,0 0,0 -1,0 -2,0 1,0 2,0 2,-1 0,0 0,0 -1,0 0,0 -1,0 -1,0 1,0 1,0 1,0 0,0 -1,-1 -1,-1 1,0 1,0 2,1 -1,-1 -1,-1 -1,-1 0,0 0,0 1,0 -1,-1 -2,-1 -2,-1 0,0 0,0 0,0l0 0c-1,0 -1,-2 -2,-2 1,0 1,0 2,0l1 0c0,0 1,0 1,0 1,1 2,1 3,2 0,0 0,0 1,0 1,0 2,1 3,2l1 1c0,0 0,0 0,0 0,1 1,1 1,1 1,2 1,2 2,3 0,0 0,1 1,1 1,3 1,6 1,10 0,1 -1,3 -1,5 -1,1 -1,2 -2,3 -1,1 -1,1 -1,2 -1,0 -1,0 -1,1 -1,0 -2,1 -3,2 0,0 0,0 -1,0 0,0 0,1 0,1 -2,1 -3,1 -5,2 -1,0 -1,0 -1,0 0,0 -1,0 -1,0 -1,0 -1,0 -2,0z"/>
   <path class="fil1" d="M182 33l-6 0 -5 -7 -1 1 0 6 -5 0 0 -24 5 0 0 14 5 -7 7 0 -6 7 6 10zm-21 0l-5 0 0 -8c0,-1 0,-2 0,-3 0,0 0,-1 -1,-1 0,-1 0,-1 0,-1 -1,0 -1,0 -2,0 0,0 -1,0 -1,0 -1,0 -1,0 -2,1l0 12 -5 0 0 -17 5 0 0 2c1,-1 2,-2 3,-2 1,-1 2,-1 3,-1 2,0 3,1 4,2 1,1 1,3 1,5l0 11zm-25 -2c0,1 -1,1 -1,1 0,1 -1,1 -1,1 -1,0 -1,0 -1,1 -1,0 -2,0 -2,0 -2,0 -3,-1 -4,-2 -1,-1 -2,-2 -2,-4 0,-1 0,-2 1,-3 0,-1 1,-1 2,-2 1,0 2,-1 4,-1 1,0 3,0 4,0l0 0c0,-1 0,-2 -1,-2 -1,-1 -2,-1 -3,-1 -1,0 -1,0 -2,0 -1,1 -2,1 -3,1l0 0 0 -4c0,0 1,0 2,-1 1,0 3,0 4,0 3,0 5,1 7,2 1,1 2,2 2,4l0 12 -6 0 0 -2zm0 -2l0 -4c-1,0 -1,0 -2,0 -1,0 -1,0 -2,1 0,0 -1,0 -1,0 0,1 0,1 0,2 0,1 0,1 0,2 1,0 1,0 2,0 1,0 1,0 2,0 0,-1 1,-1 1,-1zm-18 -3c0,-1 0,-1 0,-2 0,0 -1,0 -1,-1 -1,0 -1,0 -2,0 -1,0 -1,0 -2,0l-2 0 0 6 1 0c1,0 2,0 3,0 1,0 1,0 2,0 0,-1 1,-1 1,-1 0,-1 0,-1 0,-2zm-1 -9c0,-1 0,-1 0,-2 -1,0 -1,0 -1,0 -1,-1 -1,-1 -2,-1 0,0 -1,0 -2,0l-1 0 0 5 1 0c1,0 2,0 2,0 1,0 1,0 2,0 0,0 0,-1 1,-1 0,-1 0,-1 0,-1zm7 9c0,1 0,2 0,3 -1,1 -1,2 -2,2 -1,1 -2,2 -3,2 -1,0 -2,0 -4,0l-9 0 0 -23 8 0c2,0 3,0 4,0 1,0 2,1 2,1 1,0 2,1 2,2 1,1 1,1 1,2 0,1 -1,3 -1,3 -1,1 -1,2 -2,2l0 1c1,0 2,0 3,1 1,1 1,3 1,4z"/>
   <path class="fil2" d="M98 25c0,-2 0,-2 -1,-3 0,-1 0,-1 0,-2 -1,0 -1,0 -1,-1 -1,0 -1,0 -2,0 0,0 -1,0 -1,0 -1,0 -1,1 -1,1 -1,1 -1,1 -1,2 0,1 0,1 0,3 0,1 0,1 0,2 0,1 0,1 1,2 0,0 0,0 1,1 0,0 1,0 1,0 1,0 1,0 2,0 0,-1 0,-1 1,-1 0,-1 0,-1 0,-2 1,0 1,-1 1,-2zm5 0c0,2 -1,5 -2,6 -2,2 -4,3 -7,3 -3,0 -5,-1 -7,-3 -1,-1 -2,-4 -2,-6 0,-3 1,-6 2,-7 2,-2 4,-3 7,-3 3,0 5,1 7,3 1,1 2,4 2,7zm-18 -4l0 0c-1,0 -1,0 -1,0 -1,0 -1,0 -2,0 0,0 -1,0 -1,0 -1,0 -2,0 -2,1l0 11 -6 0 0 -17 6 0 0 2c0,0 0,0 1,-1 0,0 1,0 1,-1 0,0 1,0 1,0 1,0 1,0 2,0 0,0 0,0 1,0 0,0 0,0 0,0l0 5zm-20 -4c0,0 0,-1 0,-1 0,-1 -1,-1 -1,-1 -1,0 -1,-1 -2,-1 0,0 -1,0 -2,0l-1 0 0 7 1 0c0,0 1,0 1,0 1,0 1,0 1,0 1,0 1,0 1,0 1,0 1,0 1,-1 1,0 1,0 1,-1 0,0 0,-1 0,-2zm6 0c0,1 0,2 0,3 -1,1 -1,2 -2,3 0,0 -1,1 -1,1 0,0 -1,1 -2,1 0,0 -1,0 -1,0 -1,1 -2,1 -3,1l-3 0 0 7 -6 0 0 -23 9 0c2,0 3,0 4,0 1,1 2,1 3,1 0,1 1,2 2,3 0,1 0,2 0,3z"/>
  </g>
 </g>
</svg>
