<?xml version="1.0" encoding="UTF-8"?>
<!DOCTYPE svg PUBLIC "-//W3C//DTD SVG 1.1//EN" "http://www.w3.org/Graphics/SVG/1.1/DTD/svg11.dtd">
<!-- Creator: CorelDRAW X8 -->
<svg xmlns="http://www.w3.org/2000/svg" xml:space="preserve" width="3.23032in" height="0.564299in" version="1.1" style="shape-rendering:geometricPrecision; text-rendering:geometricPrecision; image-rendering:optimizeQuality; fill-rule:evenodd; clip-rule:evenodd"
viewBox="0 0 208 36"
 xmlns:xlink="http://www.w3.org/1999/xlink">
 <defs>
  <style type="text/css">
   <![CDATA[
    .fil2 {fill:lime}
    .fil1 {fill:lime;fill-rule:nonzero}
    .fil0 {fill:white;fill-rule:nonzero}
   ]]>
  </style>
 </defs>
 <g id="Слой_x0020_1">
  <metadata id="CorelCorpID_0Corel-Layer"/>
  <g id="_2285495695616">
   <path class="fil0" d="M64 32c-1,0 -3,0 -5,-1 -1,0 -2,-1 -4,-1l0 -6 1 0c1,1 3,2 4,2 2,1 3,1 5,1 0,0 0,0 1,0 1,0 1,0 1,0 1,-1 1,-1 2,-1 0,-1 0,-1 0,-2 0,0 0,-1 -1,-1 0,-1 -1,-1 -2,-1 0,0 -1,0 -2,-1 -1,0 -2,0 -3,0 -2,-1 -3,-2 -4,-3 -1,-1 -2,-3 -2,-5 0,-2 1,-4 3,-5 2,-2 5,-3 8,-3 1,0 3,1 4,1 2,0 3,1 4,1l0 6 0 0c-1,-1 -2,-2 -4,-2 -1,-1 -2,-1 -4,-1 0,0 -1,0 -1,0 -1,0 -1,0 -2,1 0,0 0,0 -1,0 0,1 0,1 0,2 0,0 0,1 1,1 0,1 1,1 2,1 1,0 2,1 3,1 1,0 1,0 2,0 2,1 3,2 4,3 1,1 2,3 2,4 0,3 -1,5 -3,6 -2,2 -5,3 -9,3zm32 -1l-6 0 0 -9c0,-1 0,-2 0,-3 0,0 0,-1 0,-1 0,-1 -1,-1 -1,-1 0,0 -1,0 -1,0 -1,0 -1,0 -2,0 0,0 -1,0 -2,1l0 13 -6 0 0 -26 6 0 0 9c1,-1 2,-1 3,-2 1,0 2,0 3,0 2,0 4,0 5,1 1,2 1,3 1,6l0 12zm23 -9c0,3 -1,5 -2,7 -2,2 -5,3 -8,3 -3,0 -5,-1 -7,-3 -2,-2 -3,-4 -3,-7 0,-3 1,-6 3,-8 2,-2 4,-2 7,-2 3,0 6,0 8,2 1,2 2,5 2,8zm-6 0c0,-1 0,-2 0,-3 0,-1 -1,-1 -1,-2 0,0 -1,-1 -1,-1 -1,0 -1,0 -2,0 0,0 -1,0 -1,0 -1,0 -1,1 -1,1 -1,0 -1,1 -1,2 0,1 0,2 0,3 0,1 0,2 0,3 0,0 0,1 1,1 0,1 0,1 1,1 0,0 1,1 1,1 1,0 1,-1 2,-1 0,0 1,0 1,-1 0,0 1,-1 1,-1 0,-1 0,-2 0,-3zm28 0c0,3 -1,5 -3,7 -1,2 -4,3 -7,3 -3,0 -6,-1 -7,-3 -2,-2 -3,-4 -3,-7 0,-3 1,-6 3,-8 1,-2 4,-2 7,-2 3,0 6,0 7,2 2,2 3,5 3,8zm-6 0c0,-1 0,-2 -1,-3 0,-1 0,-1 0,-2 -1,0 -1,-1 -2,-1 0,0 -1,0 -1,0 -1,0 -1,0 -2,0 0,0 0,1 -1,1 0,0 0,1 -1,2 0,1 0,2 0,3 0,1 0,2 0,3 1,0 1,1 1,1 0,1 1,1 1,1 1,0 1,1 2,1 0,0 1,-1 1,-1 1,0 1,0 2,-1 0,0 0,-1 0,-1 1,-1 1,-2 1,-3zm16 10c-2,0 -4,-1 -5,-2 -1,-1 -2,-2 -2,-5l0 -9 -2 0 0 -4 2 0 0 -5 6 0 0 5 6 0 0 4 -6 0 0 7c0,1 0,1 0,2 0,0 0,1 1,1 0,1 0,1 0,1 1,0 1,0 2,0 1,0 1,0 2,0 0,0 0,0 1,0l0 0 0 4c-1,0 -1,0 -2,1 -1,0 -2,0 -3,0z"/>
   <path class="fil1" d="M187 32l-7 0 0 -17 -4 11 -4 0 -5 -11 0 17 -6 0 0 -26 7 0 6 13 5 -13 8 0 0 26zm13 0c-3,0 -6,-1 -8,-2 -2,-2 -3,-5 -3,-8 0,-3 1,-5 3,-7 2,-2 4,-3 8,-3 2,0 5,1 6,2 2,2 2,4 2,7l0 2 -13 0c0,1 0,2 1,2 0,1 1,2 1,2 1,0 1,0 2,1 1,0 1,0 2,0 1,0 1,0 2,0 1,-1 1,-1 2,-1 1,0 1,0 1,-1 1,0 1,0 1,0l1 0 0 5c0,0 -1,0 -1,0 -1,0 -1,0 -2,1 -1,0 -1,0 -2,0 -1,0 -2,0 -3,0zm3 -12c-1,-2 -1,-3 -1,-3 -1,-1 -2,-1 -3,-1 -1,0 -2,0 -3,1 0,0 -1,1 -1,3l8 0z"/>
   <path class="fil2" d="M21 11c2,-1 4,-1 5,1 2,2 1,4 -1,6 -1,1 -4,1 -5,-1 -1,-2 -1,-4 1,-6zm-8 6c-2,0 0,3 1,2 1,-1 0,-3 -1,-2zm15 -7c-2,-2 -3,-2 -5,-2 -4,0 -7,3 -7,6 0,2 1,4 2,5l1 0c2,3 6,3 9,0l0 0c2,-2 2,-7 0,-9l0 0zm0 -7l7 7c1,1 1,2 0,3l-14 13c0,1 -2,1 -2,0l-7 -6c-1,-1 -1,-2 -1,-3 1,0 2,-2 3,-2 0,-1 1,-1 1,-2 1,-2 -2,-3 -1,-4l4 -4c1,0 2,2 4,1 1,0 2,-2 4,-3 1,0 1,0 2,0zm-7 1c-1,-1 -2,-2 -3,-2 -1,1 -2,1 -2,2l-4 3c0,1 -1,1 -1,2 0,1 0,1 0,2 0,0 1,1 1,2 -2,1 -4,3 -3,6 0,1 0,1 0,2 0,0 0,0 0,0l1 0 7 8 0 0c0,0 0,0 0,0 1,0 1,0 2,0 0,0 1,1 2,0 1,0 2,0 3,-1l12 -13c1,-1 2,-2 2,-3 0,-1 0,-2 0,-2 0,-1 -1,-1 -1,-1l0 0 -8 -8 0 0c0,0 0,0 0,0 -1,-1 -1,-1 -2,-1 -2,0 -4,2 -6,4zm16 23c-1,1 -2,2 -3,3 -2,2 -5,3 -8,3 -1,1 -2,1 -3,1 -2,0 -3,0 -4,-1 -1,0 -1,0 -2,0 -1,0 -2,-1 -3,-2 -9,-4 -13,-14 -10,-23 0,0 1,-2 0,-3 -1,0 -2,0 -2,0 0,0 -1,2 -1,2 0,1 -1,2 -1,4l0 2c0,12 8,22 20,23l5 0c0,0 1,0 1,0 5,-1 9,-3 13,-7 0,1 0,1 0,1 0,1 0,4 1,4 0,1 1,1 2,0 1,-1 0,-3 0,-5l0 -2c0,0 0,-1 -1,-2 0,0 -2,-1 -2,-1l-6 0c0,0 -1,0 -1,0 -1,1 0,2 0,2 1,1 4,1 5,1z"/>
  </g>
 </g>
</svg>
