<?xml version="1.0" encoding="UTF-8"?>
<!DOCTYPE svg PUBLIC "-//W3C//DTD SVG 1.1//EN" "http://www.w3.org/Graphics/SVG/1.1/DTD/svg11.dtd">
<!-- Creator: CorelDRAW X8 -->
<svg xmlns="http://www.w3.org/2000/svg" xml:space="preserve" width="2.71699in" height="0.69715in" version="1.1" style="shape-rendering:geometricPrecision; text-rendering:geometricPrecision; image-rendering:optimizeQuality; fill-rule:evenodd; clip-rule:evenodd"
viewBox="0 0 138 35"
 xmlns:xlink="http://www.w3.org/1999/xlink">
 <defs>
  <style type="text/css">
   <![CDATA[
    .fil0 {fill:#F80094}
    .fil1 {fill:white}
   ]]>
  </style>
 </defs>
 <g id="Слой_x0020_1">
  <metadata id="CorelCorpID_0Corel-Layer"/>
  <g id="_2285694132800">
   <path class="fil0" d="M10 22c0,0 0,1 0,1 0,0 0,0 0,1 0,0 0,1 0,1 1,1 2,1 3,1 0,-1 0,-1 0,-1l-1 -1c0,0 0,0 -1,0 0,-1 1,-2 2,-3 0,0 0,0 0,0 0,-1 0,-3 1,-3l0 -1c0,0 -1,-1 -1,-1 -1,0 -2,1 -2,2 0,0 0,1 0,1 0,1 0,1 0,2 0,0 -1,0 -1,0l0 1c0,0 0,0 0,0zm4 -7c0,0 0,0 0,1 0,0 0,0 0,0 0,1 0,1 0,2 0,0 0,3 0,3 0,0 0,0 1,0l2 2c0,0 0,0 0,0 0,-1 0,-1 0,-1 0,-1 0,-2 0,-3 0,0 0,0 0,-1 0,0 0,-1 0,-2 0,0 0,-1 0,-1 -1,-1 -2,-1 -3,0zm1 16c2,-1 6,-2 4,-4 0,0 0,0 0,0 0,-1 0,-1 0,-1 0,0 0,0 0,0 0,0 0,0 -1,0l-1 -1c0,-1 -1,-2 -1,-2 0,0 -1,0 -1,-1 0,0 0,0 0,0 0,0 0,0 0,0 0,0 -1,-1 -1,-1 -1,0 -3,2 -2,3 0,0 2,2 2,2 1,1 1,1 1,2 0,0 0,-1 0,-1 0,0 -1,0 -1,0 0,0 0,0 0,0l-1 -1c0,0 0,0 0,0 -1,1 -3,0 -3,-1l0 -2c0,0 0,0 0,-1l0 -1c0,-1 0,-2 0,-2 0,0 0,-1 0,-1 -1,2 -1,3 -2,4 -1,2 -1,3 -1,4 1,4 5,5 8,5zm4 -5l4 -6c0,-1 0,-1 1,-2 1,0 2,-2 2,-3 1,0 1,-1 2,-1 0,-1 1,-1 1,-2 0,0 0,0 1,0 1,-3 -1,-5 -4,-1 0,0 0,1 -1,1 0,1 -4,6 -4,5 -1,0 -1,-1 -1,-1 1,0 1,-1 1,-1 0,-1 1,-2 1,-3 0,0 0,0 0,-1 0,0 1,-1 1,-1 0,-1 0,-2 1,-2 0,-1 0,-1 0,-2 1,-3 -2,-3 -3,0l-3 9 -1 9c0,0 0,0 0,0l2 1c0,1 0,1 0,1zm6 -22c-1,0 -2,-1 -3,-1 0,0 -1,0 -1,0l-1 -1c-2,0 -4,0 -7,1 0,0 -1,0 -2,1 -1,0 -2,1 -2,1 -1,0 -1,0 -1,1 -1,0 -2,1 -3,2 -1,3 -2,5 -3,8l0 2c0,0 0,0 0,0 0,1 0,3 1,4 1,3 2,6 5,8 1,0 2,1 2,1 1,1 2,1 2,1l1 1c0,0 1,0 1,0 0,0 0,0 0,0 1,0 1,0 1,0 2,0 3,0 4,0 1,0 1,0 2,0 0,0 0,0 0,0 2,-1 3,-1 5,-2 0,0 0,0 0,0 0,0 0,0 1,-1 0,0 1,-1 2,-2 0,0 0,0 0,0 1,-1 1,-1 1,-1 1,-1 2,-3 2,-3 1,-2 1,-3 1,-5 0,-3 0,-5 -1,-8 0,0 -1,0 -1,-1 0,-1 0,-1 -1,-2 -1,0 -1,-1 -1,-1 0,0 0,0 0,0l-1 -1c-1,-1 -2,-1 -3,-2 0,0 0,0 0,0zm1 -2c0,0 -1,0 -1,0 -2,-1 -3,-2 -5,-2 -1,0 -2,0 -3,0 -1,0 -2,0 -3,0 0,0 0,0 -1,1 0,0 -1,0 -2,0 -1,1 -2,1 -3,2 -1,0 -1,1 -1,1 -1,0 -1,1 -2,1 0,1 0,1 0,1 -1,0 0,0 -1,0 0,0 0,0 0,0 0,0 0,0 0,0 0,0 0,0 0,1 0,0 0,0 0,0 -1,1 -2,3 -3,5 0,1 0,1 0,1 0,0 0,0 0,0 -1,1 -1,2 -1,3 0,1 0,1 0,1 0,0 0,1 0,1 0,1 0,3 1,4 0,0 0,0 0,1 0,0 1,2 1,3 1,1 1,2 2,3 1,1 1,1 1,1 1,1 1,1 3,2 0,1 1,1 1,1 1,0 1,1 1,1 2,0 3,1 4,1 2,0 4,0 6,0 1,0 1,0 2,0 0,0 0,0 0,0 0,0 1,0 1,0 1,-1 2,-1 3,-2 2,-1 4,-2 6,-4 0,-1 0,-1 0,-1 1,-1 1,-1 1,-2 1,-2 2,-4 2,-5 0,-2 0,-3 0,-4 0,-1 0,-2 0,-3 0,0 0,-1 0,-1l-1 -2c0,0 0,0 0,0l-1 -1c0,-1 -1,-2 -1,-3 -1,-2 -3,-3 -4,-4 -1,0 -2,-1 -2,-1z"/>
   <path class="fil1" d="M48 28l0 -16 -6 0 0 -4 17 0 0 4 -6 0 0 16 -5 0zm27 -8c0,3 -1,5 -2,6 -1,1 -3,2 -6,2 -2,0 -4,-1 -5,-2 -2,-1 -2,-3 -2,-6 0,-2 0,-4 2,-6 1,-1 3,-2 5,-2 3,0 5,1 6,2 1,2 2,4 2,6zm-5 0c0,-1 0,-1 0,-2 0,0 0,-1 -1,-1 0,-1 0,-1 -1,-1 0,0 0,0 -1,0 0,0 -1,0 -1,0 0,0 -1,0 -1,1 0,0 0,0 0,1 -1,1 -1,1 -1,2 0,1 0,2 1,2 0,1 0,1 0,2 0,0 1,0 1,1 0,0 1,0 1,0 1,0 1,0 1,0 1,-1 1,-1 1,-1 1,-1 1,-1 1,-2 0,0 0,-1 0,-2zm22 0c0,3 -1,5 -2,6 -2,1 -4,2 -6,2 -2,0 -4,-1 -6,-2 -1,-1 -2,-3 -2,-6 0,-2 1,-4 2,-6 2,-1 4,-2 6,-2 2,0 4,1 6,2 1,2 2,4 2,6zm-5 0c0,-1 0,-1 0,-2 0,0 -1,-1 -1,-1 0,-1 0,-1 -1,-1 0,0 -1,0 -1,0 0,0 -1,0 -1,0 0,0 -1,0 -1,1 0,0 -1,0 -1,1 0,1 0,1 0,2 0,1 0,2 0,2 0,1 1,1 1,2 0,0 0,0 1,1 0,0 1,0 1,0 0,0 1,0 1,0 1,-1 1,-1 1,-1 0,-1 1,-1 1,-2 0,0 0,-1 0,-2zm12 8c-2,0 -3,0 -4,0 -1,0 -1,-1 -2,-1l0 -4 0 0c1,0 1,0 1,1 0,0 1,0 1,0 1,0 1,1 2,1 0,0 1,0 2,0 0,0 1,0 1,0 1,-1 1,-1 1,-1 0,-1 0,-1 0,-1 -1,0 -1,0 -2,-1 0,0 0,0 -1,0 -1,0 -1,0 -1,0 -2,-1 -2,-1 -3,-2 -1,-1 -1,-2 -1,-3 0,0 0,-1 1,-2 0,0 0,-1 1,-1 0,-1 1,-1 2,-1 1,0 2,-1 3,-1 1,0 2,1 3,1 1,0 2,0 2,0l0 4 0 0c0,0 -1,0 -1,0 0,0 -1,-1 -1,-1 0,0 -1,0 -1,0 -1,0 -1,0 -2,0 0,0 -1,0 -2,0 0,0 0,0 0,1 0,0 0,0 0,1 0,0 1,0 2,0 0,0 0,0 1,0 1,1 1,1 2,1 1,0 1,1 2,1 0,1 1,2 1,3 0,1 0,1 -1,2 0,1 -1,1 -1,2 -1,0 -1,0 -2,1 -1,0 -2,0 -3,0z"/>
   <path class="fil0" d="M133 18c0,-1 0,-1 0,-2 -1,0 -1,-1 -2,-1 -1,0 -2,1 -3,1 0,1 0,1 0,2l5 0zm-1 10c-3,0 -5,-1 -7,-2 -1,-1 -2,-3 -2,-6 0,-2 1,-4 2,-5 1,-2 3,-3 6,-3 2,0 4,1 5,2 1,1 2,3 2,5l0 2 -10 0c0,1 0,1 0,2 0,0 1,1 1,1 0,0 1,0 1,1 1,0 2,0 2,0 1,0 1,0 2,0 0,-1 1,-1 1,-1 1,0 1,0 1,0 1,-1 1,-1 1,-1l1 0 0 4c-1,0 -1,0 -1,0 -1,0 -1,1 -2,1 0,0 -1,0 -1,0 -1,0 -2,0 -2,0zm-15 -10c0,-1 0,-1 -1,-2 0,0 -1,-1 -2,-1 0,0 -1,1 -2,1 0,1 0,1 0,2l5 0zm-1 10c-3,0 -5,-1 -7,-2 -1,-1 -2,-3 -2,-6 0,-2 1,-4 2,-5 1,-2 3,-3 6,-3 2,0 4,1 5,2 1,1 2,3 2,5l0 2 -10 0c0,1 0,1 0,2 0,0 1,1 1,1 0,0 1,0 1,1 1,0 1,0 2,0 1,0 1,0 2,0 0,-1 1,-1 1,-1 0,0 1,0 1,0 0,-1 1,-1 1,-1l0 0 0 4c0,0 0,0 -1,0 0,0 0,1 -1,1 0,0 -1,0 -1,0 -1,0 -2,0 -2,0z"/>
  </g>
 </g>
</svg>
