<?xml version="1.0" encoding="UTF-8"?>
<!DOCTYPE svg PUBLIC "-//W3C//DTD SVG 1.1//EN" "http://www.w3.org/Graphics/SVG/1.1/DTD/svg11.dtd">
<!-- Creator: CorelDRAW 2018 (64-Bit Evaluation Version) -->
<svg xmlns="http://www.w3.org/2000/svg" xml:space="preserve" width="659px" height="169px" version="1.1" style="shape-rendering:geometricPrecision; text-rendering:geometricPrecision; image-rendering:optimizeQuality; fill-rule:evenodd; clip-rule:evenodd"
viewBox="0 0 35.83 9.19"
 xmlns:xlink="http://www.w3.org/1999/xlink">
 <defs>
  <style type="text/css">
   <![CDATA[
    .fil0 {fill:#F80094}
    .fil1 {fill:white}
   ]]>
  </style>
 </defs>
 <g id="Слой_x0020_1">
  <metadata id="CorelCorpID_0Corel-Layer"/>
  <g id="_1371626479152">
   <path class="fil0" d="M2.73 5.76c-0.03,0.05 -0.03,0.14 -0.03,0.19 -0.01,0.07 -0.01,0.13 -0.02,0.19 0,0.08 -0.02,0.31 -0.01,0.38 0.07,0.28 0.51,0.28 0.65,0.12 0.04,-0.04 0.03,-0.04 -0.01,-0.08l-0.21 -0.22c-0.05,-0.06 -0.09,-0.09 -0.11,-0.15 -0.07,-0.22 0.18,-0.57 0.38,-0.71 0.1,-0.08 0.08,-0.01 0.09,-0.15 0.02,-0.23 0.03,-0.53 0.05,-0.75l0.02 -0.19c-0.01,-0.07 -0.05,-0.12 -0.14,-0.13 -0.19,-0.03 -0.59,0.12 -0.6,0.37 -0.01,0.13 -0.02,0.25 -0.03,0.38 -0.01,0.13 -0.01,0.26 -0.02,0.38 -0.01,0.06 -0.01,0.12 -0.02,0.19l0 0.18c0,0 0,0 0.01,0zm0.96 -1.87c-0.03,0.06 -0.03,0.13 -0.03,0.2 -0.01,0.03 0,0.06 -0.01,0.09 -0.02,0.12 -0.03,0.34 -0.04,0.47 0,0.04 -0.05,0.72 -0.05,0.74 0.1,0.01 0.11,-0.02 0.22,0.1l0.54 0.56c0.01,-0.04 0.01,-0.14 0.01,-0.18 0.01,-0.07 0.01,-0.12 0.02,-0.18 0.02,-0.24 0.03,-0.51 0.05,-0.74 0.01,-0.06 0.01,-0.12 0.02,-0.18 0,-0.17 0.03,-0.39 0.04,-0.56 0.01,-0.15 0.04,-0.26 -0.06,-0.35 -0.2,-0.16 -0.6,-0.15 -0.71,0.03zm0.26 4.07c0.38,-0.13 1.42,-0.41 1.08,-1.01 -0.01,-0.02 -0.03,-0.04 -0.04,-0.06 -0.02,-0.03 -0.03,-0.03 -0.05,-0.05 -0.03,-0.02 -0.03,-0.03 -0.04,-0.05 -0.02,-0.02 -0.04,-0.03 -0.09,-0.1l-0.31 -0.32c-0.14,-0.14 -0.27,-0.28 -0.41,-0.42 -0.03,-0.04 -0.07,-0.07 -0.1,-0.11 -0.02,-0.02 -0.03,-0.03 -0.05,-0.05 -0.02,-0.02 -0.03,-0.03 -0.05,-0.05 -0.05,-0.05 -0.18,-0.2 -0.22,-0.22 -0.22,-0.13 -0.72,0.45 -0.53,0.71 0.04,0.05 0.51,0.53 0.58,0.61 0.05,0.06 0.25,0.21 0.19,0.34 -0.02,-0.02 -0.04,-0.04 -0.06,-0.06 -0.05,-0.05 -0.09,-0.1 -0.12,-0.13 -0.04,-0.03 -0.03,-0.03 -0.06,-0.06l-0.24 -0.25c-0.03,0.04 -0.1,0.09 -0.14,0.12 -0.29,0.16 -0.73,0 -0.73,-0.27l0.03 -0.53c0.01,-0.05 0.01,-0.11 0.01,-0.17l0.03 -0.36c0.02,-0.2 0.02,-0.43 0.04,-0.62 0.01,-0.02 0.02,-0.06 0,-0.08 -0.27,0.45 -0.38,0.61 -0.64,1.07 -0.18,0.3 -0.26,0.72 -0.18,1.02 0.22,0.82 1.16,1.3 2.1,1.1zm1.09 -1.15l0.89 -1.54c0.13,-0.23 0.12,-0.26 0.3,-0.46 0.21,-0.24 0.44,-0.55 0.66,-0.8 0.11,-0.13 0.21,-0.26 0.32,-0.4 0.11,-0.13 0.23,-0.26 0.33,-0.4 0.05,-0.07 0.11,-0.13 0.16,-0.2 0.36,-0.55 -0.22,-1.09 -0.85,-0.2 -0.1,0.14 -0.22,0.27 -0.32,0.4 -0.14,0.19 -0.96,1.34 -1.17,1.22 -0.1,-0.06 -0.07,-0.16 -0.03,-0.27 0.04,-0.1 0.08,-0.17 0.12,-0.28 0.07,-0.21 0.16,-0.42 0.24,-0.64 0.03,-0.1 0.08,-0.21 0.12,-0.31 0.04,-0.11 0.07,-0.22 0.12,-0.32 0.07,-0.18 0.17,-0.46 0.24,-0.64 0.04,-0.11 0.08,-0.21 0.11,-0.32 0.22,-0.75 -0.59,-0.8 -0.83,-0.02l-0.87 2.29 -0.16 2.2c-0.01,0.06 0,0.04 0.07,0.12l0.33 0.34c0.08,0.08 0.15,0.16 0.22,0.23zm1.41 -5.79c-0.19,-0.11 -0.42,-0.19 -0.62,-0.26 -0.1,-0.03 -0.29,-0.09 -0.38,-0.11l-0.19 -0.03c-0.64,-0.09 -1.14,-0.07 -1.75,0.1 -0.23,0.06 -0.43,0.14 -0.65,0.24 -0.23,0.11 -0.41,0.23 -0.62,0.37 -0.05,0.03 -0.09,0.07 -0.14,0.1 -0.31,0.25 -0.45,0.4 -0.7,0.72 -0.47,0.59 -0.75,1.35 -0.81,2.04l-0.03 0.45c0.01,0.02 0.01,0.02 0.01,0.05 0,0.28 0.06,0.65 0.13,0.92 0.22,0.88 0.7,1.57 1.4,2.15 0.14,0.12 0.42,0.3 0.59,0.39 0.16,0.08 0.33,0.15 0.49,0.22l0.28 0.1c0.04,0.01 0.07,0.01 0.1,0.02 0.04,0.01 0.06,0.02 0.09,0.02 0.13,0.03 0.24,0.06 0.38,0.07 0.33,0.05 0.63,0.07 0.97,0.02 0.12,-0.01 0.22,-0.02 0.34,-0.04 0.03,-0.01 0.05,-0.01 0.08,-0.02 0.47,-0.11 0.81,-0.23 1.24,-0.48 0.02,-0.01 0.02,-0.02 0.04,-0.03 0.09,-0.05 0.15,-0.09 0.23,-0.15 0.15,-0.1 0.44,-0.35 0.57,-0.49 0.05,-0.05 0.09,-0.09 0.14,-0.15 0.1,-0.11 0.17,-0.21 0.26,-0.34 0.16,-0.22 0.34,-0.54 0.43,-0.79 0.15,-0.38 0.24,-0.72 0.28,-1.13 0.06,-0.74 -0.05,-1.37 -0.33,-2.02 -0.05,-0.1 -0.1,-0.22 -0.16,-0.31 -0.17,-0.3 -0.17,-0.3 -0.4,-0.6 -0.05,-0.07 -0.12,-0.14 -0.18,-0.21 -0.03,-0.03 -0.03,-0.05 -0.06,-0.07l-0.3 -0.27c-0.23,-0.19 -0.39,-0.29 -0.65,-0.44 -0.03,-0.02 -0.05,-0.02 -0.08,-0.04zm0.27 -0.5c-0.06,-0.03 -0.15,-0.08 -0.24,-0.12 -0.54,-0.23 -0.8,-0.29 -1.37,-0.37 -0.2,-0.03 -0.53,-0.04 -0.73,-0.02 -0.24,0.01 -0.48,0.04 -0.72,0.09 -0.07,0.01 -0.12,0.03 -0.2,0.04 -0.17,0.04 -0.41,0.13 -0.58,0.19 -0.32,0.13 -0.63,0.3 -0.92,0.5 -0.06,0.04 -0.11,0.09 -0.18,0.13 -0.17,0.13 -0.34,0.3 -0.5,0.45 -0.04,0.04 -0.06,0.09 -0.09,0.12 -0.03,0.02 -0.01,0 -0.03,0.01 -0.02,0.02 0,0.03 -0.03,0.05 -0.02,0.03 -0.02,0.01 -0.04,0.03 -0.02,0.03 0.01,0.01 -0.05,0.07 -0.01,0.01 -0.02,0.03 -0.03,0.03 -0.36,0.45 -0.59,0.9 -0.78,1.45 -0.06,0.16 -0.03,0.12 -0.04,0.15 0,0.01 -0.02,0.04 -0.03,0.08 -0.08,0.29 -0.13,0.61 -0.15,0.88 0,0.07 -0.01,0.14 -0.01,0.21 0,0.04 0,0.07 0,0.11 0.01,0.38 0.04,0.75 0.14,1.12 0.02,0.06 0.03,0.12 0.05,0.2 0.05,0.19 0.22,0.58 0.31,0.75 0.18,0.35 0.4,0.7 0.66,0.98 0.03,0.03 0.05,0.06 0.08,0.09 0.29,0.29 0.4,0.39 0.74,0.64 0.13,0.09 0.34,0.22 0.49,0.29 0.08,0.03 0.15,0.08 0.23,0.12 0.35,0.14 0.55,0.22 0.93,0.3 0.58,0.12 1.1,0.13 1.69,0.05 0.07,-0.01 0.23,-0.04 0.3,-0.06 0.04,-0.01 0.07,-0.02 0.1,-0.03 0.07,-0.01 0.13,-0.03 0.2,-0.05 0.2,-0.05 0.56,-0.2 0.76,-0.3 0.61,-0.33 1.11,-0.71 1.55,-1.28 0.03,-0.04 0.05,-0.07 0.08,-0.11 0.16,-0.21 0.23,-0.35 0.36,-0.59 0.22,-0.4 0.4,-0.95 0.46,-1.38 0.05,-0.33 0.07,-0.54 0.06,-0.86 0,-0.22 -0.03,-0.5 -0.07,-0.71 -0.03,-0.16 -0.08,-0.36 -0.12,-0.5l-0.12 -0.34c0,-0.01 0,-0.01 -0.01,-0.02l-0.18 -0.4c-0.13,-0.26 -0.27,-0.48 -0.45,-0.72 -0.3,-0.38 -0.64,-0.71 -1.04,-0.98 -0.12,-0.09 -0.34,-0.23 -0.48,-0.29z"/>
   <path class="fil1" d="M12.5 7.2l0 -4.15 -1.52 0 0 -0.98 4.32 0 0 0.98 -1.51 0 0 4.15 -1.29 0zm6.98 -1.93c0,0.63 -0.18,1.13 -0.52,1.5 -0.35,0.36 -0.85,0.55 -1.48,0.55 -0.64,0 -1.13,-0.19 -1.48,-0.55 -0.35,-0.37 -0.52,-0.87 -0.52,-1.5 0,-0.65 0.17,-1.15 0.52,-1.51 0.35,-0.37 0.84,-0.55 1.48,-0.55 0.63,0 1.12,0.18 1.47,0.55 0.35,0.37 0.53,0.87 0.53,1.51zm-1.24 0c0,-0.23 -0.02,-0.42 -0.05,-0.57 -0.04,-0.15 -0.1,-0.27 -0.16,-0.36 -0.07,-0.1 -0.15,-0.17 -0.24,-0.2 -0.09,-0.04 -0.2,-0.06 -0.31,-0.06 -0.11,0 -0.21,0.02 -0.3,0.05 -0.09,0.03 -0.17,0.09 -0.24,0.19 -0.07,0.09 -0.12,0.21 -0.17,0.37 -0.04,0.15 -0.06,0.35 -0.06,0.58 0,0.24 0.02,0.43 0.06,0.57 0.04,0.15 0.09,0.27 0.15,0.35 0.07,0.09 0.15,0.16 0.25,0.2 0.09,0.04 0.2,0.06 0.32,0.06 0.09,0 0.19,-0.02 0.29,-0.06 0.1,-0.04 0.18,-0.1 0.24,-0.19 0.08,-0.1 0.13,-0.21 0.17,-0.35 0.03,-0.14 0.05,-0.33 0.05,-0.58zm5.59 0c0,0.63 -0.17,1.13 -0.52,1.5 -0.35,0.36 -0.84,0.55 -1.48,0.55 -0.63,0 -1.12,-0.19 -1.47,-0.55 -0.35,-0.37 -0.53,-0.87 -0.53,-1.5 0,-0.65 0.18,-1.15 0.53,-1.51 0.35,-0.37 0.84,-0.55 1.47,-0.55 0.64,0 1.13,0.18 1.48,0.55 0.35,0.37 0.52,0.87 0.52,1.51zm-1.23 0c0,-0.23 -0.02,-0.42 -0.06,-0.57 -0.04,-0.15 -0.09,-0.27 -0.16,-0.36 -0.07,-0.1 -0.15,-0.17 -0.24,-0.2 -0.09,-0.04 -0.19,-0.06 -0.31,-0.06 -0.11,0 -0.2,0.02 -0.29,0.05 -0.09,0.03 -0.17,0.09 -0.24,0.19 -0.07,0.09 -0.13,0.21 -0.17,0.37 -0.04,0.15 -0.06,0.35 -0.06,0.58 0,0.24 0.02,0.43 0.06,0.57 0.03,0.15 0.09,0.27 0.15,0.35 0.06,0.09 0.14,0.16 0.24,0.2 0.1,0.04 0.21,0.06 0.32,0.06 0.1,0 0.2,-0.02 0.3,-0.06 0.1,-0.04 0.18,-0.1 0.24,-0.19 0.07,-0.1 0.13,-0.21 0.16,-0.35 0.04,-0.14 0.06,-0.33 0.06,-0.58zm3.02 2.03c-0.29,0 -0.56,-0.03 -0.81,-0.09 -0.26,-0.06 -0.47,-0.13 -0.63,-0.22l0 -1.01 0.1 0c0.06,0.04 0.12,0.09 0.19,0.14 0.08,0.05 0.18,0.11 0.31,0.17 0.11,0.05 0.24,0.09 0.38,0.13 0.14,0.04 0.3,0.06 0.46,0.06 0.17,0 0.32,-0.03 0.45,-0.08 0.13,-0.05 0.2,-0.14 0.2,-0.25 0,-0.09 -0.03,-0.16 -0.09,-0.21 -0.06,-0.04 -0.18,-0.09 -0.35,-0.13 -0.09,-0.02 -0.21,-0.04 -0.35,-0.07 -0.14,-0.03 -0.26,-0.06 -0.37,-0.09 -0.31,-0.1 -0.54,-0.24 -0.69,-0.42 -0.15,-0.18 -0.23,-0.43 -0.23,-0.73 0,-0.17 0.04,-0.33 0.12,-0.48 0.08,-0.16 0.2,-0.29 0.35,-0.41 0.16,-0.12 0.35,-0.21 0.57,-0.28 0.23,-0.07 0.49,-0.11 0.77,-0.11 0.27,0 0.52,0.03 0.75,0.09 0.23,0.05 0.42,0.11 0.58,0.19l0 0.98 -0.1 0c-0.04,-0.03 -0.11,-0.07 -0.2,-0.13 -0.09,-0.05 -0.17,-0.1 -0.26,-0.14 -0.1,-0.05 -0.21,-0.08 -0.34,-0.11 -0.13,-0.03 -0.25,-0.05 -0.39,-0.05 -0.17,0 -0.32,0.03 -0.44,0.09 -0.12,0.06 -0.18,0.14 -0.18,0.24 0,0.09 0.03,0.15 0.09,0.2 0.06,0.06 0.19,0.1 0.39,0.15 0.1,0.03 0.22,0.05 0.36,0.08 0.13,0.02 0.26,0.05 0.39,0.09 0.27,0.09 0.49,0.23 0.63,0.4 0.14,0.17 0.22,0.4 0.22,0.69 0,0.18 -0.05,0.35 -0.13,0.52 -0.09,0.16 -0.21,0.3 -0.36,0.41 -0.17,0.12 -0.37,0.22 -0.59,0.28 -0.22,0.07 -0.49,0.1 -0.8,0.1z"/>
   <path class="fil0" d="M34.65 4.77c-0.01,-0.26 -0.07,-0.45 -0.18,-0.59 -0.11,-0.13 -0.29,-0.2 -0.52,-0.2 -0.23,0 -0.42,0.07 -0.55,0.21 -0.14,0.14 -0.21,0.34 -0.22,0.58l1.47 0zm-0.41 2.53c-0.73,0 -1.29,-0.17 -1.68,-0.52 -0.39,-0.35 -0.59,-0.85 -0.59,-1.49 0,-0.63 0.19,-1.14 0.55,-1.51 0.36,-0.38 0.87,-0.57 1.52,-0.57 0.6,0 1.05,0.16 1.34,0.48 0.3,0.32 0.45,0.78 0.45,1.37l0 0.44 -2.65 0c0.01,0.18 0.05,0.33 0.11,0.45 0.07,0.12 0.15,0.21 0.26,0.29 0.1,0.07 0.23,0.12 0.36,0.15 0.14,0.03 0.29,0.05 0.46,0.05 0.14,0 0.27,-0.02 0.41,-0.05 0.14,-0.03 0.26,-0.07 0.38,-0.13 0.09,-0.04 0.19,-0.09 0.27,-0.14 0.08,-0.05 0.15,-0.1 0.21,-0.14l0.12 0 0 1c-0.1,0.04 -0.19,0.08 -0.27,0.11 -0.08,0.04 -0.19,0.07 -0.33,0.1 -0.14,0.04 -0.27,0.06 -0.41,0.08 -0.14,0.02 -0.31,0.03 -0.51,0.03zm-3.78 -2.53c-0.01,-0.26 -0.07,-0.45 -0.18,-0.59 -0.11,-0.13 -0.29,-0.2 -0.52,-0.2 -0.24,0 -0.42,0.07 -0.55,0.21 -0.14,0.14 -0.21,0.34 -0.22,0.58l1.47 0zm-0.41 2.53c-0.73,0 -1.29,-0.17 -1.68,-0.52 -0.39,-0.35 -0.59,-0.85 -0.59,-1.49 0,-0.63 0.18,-1.14 0.55,-1.51 0.36,-0.38 0.87,-0.57 1.52,-0.57 0.6,0 1.04,0.16 1.34,0.48 0.3,0.32 0.45,0.78 0.45,1.37l0 0.44 -2.65 0c0.01,0.18 0.05,0.33 0.11,0.45 0.07,0.12 0.15,0.21 0.26,0.29 0.1,0.07 0.22,0.12 0.36,0.15 0.14,0.03 0.29,0.05 0.45,0.05 0.15,0 0.28,-0.02 0.42,-0.05 0.14,-0.03 0.26,-0.07 0.37,-0.13 0.1,-0.04 0.19,-0.09 0.28,-0.14 0.08,-0.05 0.15,-0.1 0.2,-0.14l0.13 0 0 1c-0.1,0.04 -0.19,0.08 -0.27,0.11 -0.08,0.04 -0.19,0.07 -0.33,0.1 -0.14,0.04 -0.27,0.06 -0.41,0.08 -0.14,0.02 -0.31,0.03 -0.51,0.03z"/>
  </g>
 </g>
</svg>
