<?xml version="1.0" encoding="UTF-8"?>
<!DOCTYPE svg PUBLIC "-//W3C//DTD SVG 1.1//EN" "http://www.w3.org/Graphics/SVG/1.1/DTD/svg11.dtd">
<!-- Creator: CorelDRAW 2018 (64-Bit Evaluation Version) -->
<svg xmlns="http://www.w3.org/2000/svg" xml:space="preserve" width="80.0394mm" height="55.1406mm" version="1.1" style="shape-rendering:geometricPrecision; text-rendering:geometricPrecision; image-rendering:optimizeQuality; fill-rule:evenodd; clip-rule:evenodd"
viewBox="0 0 253976.59 174969.1"
 xmlns:xlink="http://www.w3.org/1999/xlink">
 <defs>
  <style type="text/css">
   <![CDATA[
    .fil2 {fill:lime}
    .fil1 {fill:lime;fill-rule:nonzero}
    .fil0 {fill:white;fill-rule:nonzero}
   ]]>
  </style>
 </defs>
 <g id="Слой_x0020_1">
  <metadata id="CorelCorpID_0Corel-Layer"/>
  <g id="_2619186028384">
   <g>
    <path class="fil0" d="M15306.3 132755.8c-3220.11,0 -6053.41,-309.38 -8499.27,-937.98 -2445.54,-617.81 -4708.31,-1392.06 -6807.03,-2320.52l0 -10025.87 957.34 0c2118.07,1788.07 4438.28,3162.04 6980.6,4128.9 2543.28,956.39 5009.13,1440.29 7406.75,1440.29 599.72,0 1392.06,-67.59 2378.27,-193.88 996.05,-134.86 1789.34,-338.26 2388.11,-628.6 735.53,-318.9 1363.18,-763.46 1866.44,-1333.99 512.78,-579.42 763.46,-1334.31 763.46,-2272.29 0,-1053.8 -415.36,-1913.72 -1246.41,-2580.72 -822.48,-657.48 -1818.21,-1141.7 -2968.48,-1441.56 -1431.72,-376.65 -2958.64,-734.58 -4592.81,-1072.84 -1633.85,-338.26 -3152.2,-753.94 -4563.62,-1247.36 -3268.34,-1150.26 -5598.38,-2697.49 -7020.27,-4641.04 -1411.41,-1943.55 -2117.12,-4379.57 -2117.12,-7309.34 0,-3945.17 1672.56,-7136.08 5008.17,-9581.94 3345.13,-2446.81 7513.05,-3664.35 12511.39,-3664.35 2514.4,0 5008.49,251.63 7493.7,763.46 2474.74,513.1 4698.79,1199.45 6661.7,2068.89l0 9640.65 -928.46 0c-1565.63,-1334.31 -3470.47,-2456.33 -5723.4,-3375.27 -2253.25,-917.67 -4563.93,-1382.22 -6942.21,-1382.22 -918.94,0 -1749.67,67.27 -2485.52,193.56 -734.58,135.18 -1507.56,386.81 -2320.52,763.46 -657.48,290.34 -1227.06,734.58 -1701.44,1324.79 -482.95,589.89 -725.06,1247.36 -725.06,1981.95 0,1073.16 376.97,1924.51 1140.43,2562.63 764.73,628.6 2243.41,1199.13 4429.08,1711.28 1411.41,318.9 2774.6,628.28 4089.55,928.14 1305.11,309.7 2707.01,715.54 4196.48,1247.68 2920.24,1053.48 5094.8,2474.74 6517,4264.07 1420.93,1778.55 2136.16,4137.46 2136.16,7057.71 0,4196.48 -1643.69,7560.97 -4940.59,10113.76 -3287.38,2542.32 -7734.54,3818.56 -13342.44,3818.56zm52935.99 -753.62l-9919.88 0 0 -15760.37c0,-1286.08 -48.23,-2562.63 -155.48,-3837.92 -105.98,-1276.56 -299.86,-2214.54 -588.94,-2814.26 -338.26,-715.23 -832,-1237.84 -1479.95,-1547.23 -647.64,-309.38 -1508.51,-463.6 -2591.19,-463.6 -821.53,0 -1643.69,154.21 -2484.25,454.08 -832.32,299.86 -1731.59,783.77 -2678.13,1441.24l0 22528.06 -9921.15 0 0 -44090.21 9921.15 0 0 15818.13c1623.38,-1382.22 3209,-2455.38 4746.71,-3229.63 1537.71,-772.98 3248.98,-1159.47 5114.47,-1159.47 3248.67,0 5734.19,1024.61 7454.99,3074.14 1720.8,2040.01 2581.67,5008.17 2581.67,8895.28l0 20691.76zm37892.11 -15885.71c0,5230.93 -1430.45,9349.35 -4292.95,12356.23 -2871.7,3006.87 -6913.01,4515.7 -12153.78,4515.7 -5200.78,0 -9243.37,-1508.83 -12123.95,-4515.7 -2881.53,-3006.87 -4322.77,-7125.3 -4322.77,-12356.23 0,-5279.16 1441.24,-9417.89 4322.77,-12405.41 2880.58,-2987.83 6923.17,-4485.87 12123.95,-4485.87 5221.41,0 9262.73,1507.88 12134.74,4514.75 2871.7,3006.87 4311.99,7135.77 4311.99,12376.53zm-10152.48 57.75c0,-1875.96 -154.21,-3441.59 -473.12,-4689.27 -309.7,-1256.88 -744.42,-2252.93 -1295.91,-3006.87 -580.37,-793.29 -1247.36,-1343.83 -1991.47,-1653.21 -734.58,-309.38 -1585.94,-464.87 -2533.76,-464.87 -888.8,0 -1701.44,136.13 -2416.67,405.85 -725.06,270.99 -1392.06,793.6 -2001.62,1566.9 -561.01,734.58 -1024.61,1739.84 -1363.18,3016.39 -338.26,1286.08 -512.78,2891.05 -512.78,4825.08 0,1943.55 165,3510.13 483.9,4698.79 319.22,1199.45 744.42,2146.95 1256.25,2862.18 532.14,734.58 1189.61,1267.04 1992.73,1605.29 792.33,338.26 1682.4,511.83 2649.26,511.83 792.33,0 1604.02,-173.57 2436.02,-511.83 821.53,-338.26 1479,-841.52 1972.43,-1518.35 590.2,-811.69 1034.45,-1778.86 1343.83,-2920.24 299.86,-1140.43 454.08,-2716.53 454.08,-4727.67zm45956.65 -57.75c0,5230.93 -1430.77,9349.35 -4292.95,12356.23 -2872.01,3006.87 -6913.33,4515.7 -12153.78,4515.7 -5201.1,0 -9243.37,-1508.83 -12123.95,-4515.7 -2881.53,-3006.87 -4322.77,-7125.3 -4322.77,-12356.23 0,-5279.16 1441.24,-9417.89 4322.77,-12405.41 2880.58,-2987.83 6922.85,-4485.87 12123.95,-4485.87 5221.09,0 9262.41,1507.88 12134.42,4514.75 2872.01,3006.87 4312.3,7135.77 4312.3,12376.53zm-10152.48 57.75c0,-1875.96 -154.21,-3441.59 -473.43,-4689.27 -309.38,-1256.88 -744.1,-2252.93 -1295.59,-3006.87 -580.37,-793.29 -1247.68,-1343.83 -1991.78,-1653.21 -734.58,-309.38 -1585.94,-464.87 -2533.44,-464.87 -888.8,0 -1701.76,136.13 -2416.98,405.85 -725.06,270.99 -1392.06,793.6 -2001.3,1566.9 -561.01,734.58 -1024.93,1739.84 -1363.18,3016.39 -338.26,1286.08 -512.78,2891.05 -512.78,4825.08 0,1943.55 164.69,3510.13 483.9,4698.79 319.22,1199.45 744.1,2146.95 1255.93,2862.18 532.45,734.58 1189.93,1267.04 1993.05,1605.29 792.33,338.26 1682.08,511.83 2648.94,511.83 792.65,0 1604.34,-173.57 2436.34,-511.83 821.21,-338.26 1478.69,-841.52 1972.43,-1518.35 589.89,-811.69 1034.45,-1778.86 1343.83,-2920.24 299.86,-1140.43 454.08,-2716.53 454.08,-4727.67zm27625.08 16466.08c-4042.27,0 -6991.39,-832 -8837.53,-2495.04 -1847.09,-1663.05 -2766.03,-4379.57 -2766.03,-8159.74l0 -14871.58 -3770.33 0 0 -6902.54 3770.33 0 0 -9108.19 9920.2 0 0 9108.19 9573.06 0 0 6902.54 -9573.06 0 0 11294.17c0,1121.07 10.79,2097.45 29.83,2929.76 19.36,830.73 173.57,1575.15 454.08,2242.14 261.47,657.48 734.58,1189.61 1401.9,1576.42 676.51,386.49 1653.21,580.37 2939.28,580.37 532.14,0 1228.32,-115.82 2088.25,-348.09 860.87,-232.27 1470.12,-444.56 1808.38,-638.12l851.35 0 0 6980.6c-1074.11,290.03 -2224.06,512.78 -3433.03,666.99 -1208.97,165 -2697.49,242.11 -4456.68,242.11z"/>
    <path class="fil1" d="M218254.92 132654.26l-10558.32 0 0 -27962.39 -7676.79 18042.18 -7212.88 0 -7677.74 -18042.18 0 27962.39 -9977.95 0 0 -42175.53 12211.53 0 9350.62 20816.78 9310.64 -20816.78 12230.89 0 0 42175.53zm22629.92 870.39c-6013.74,0 -10625.91,-1431.72 -13836.18,-4302.47 -3200.75,-2872.01 -4806.04,-6962.51 -4806.04,-12270.55 0,-5191.26 1499.31,-9330 4486.83,-12433.33 2987.52,-3094.77 7174.48,-4641.04 12540.58,-4641.04 4882.83,0 8556.7,1314.95 11012.08,3945.17 2466.17,2619.11 3694.49,6380.88 3694.49,11283.07l0 3567.88 -21813.78 0c97.42,1479 406.8,2707.33 937.98,3703.06 532.14,995.73 1228.32,1778.55 2108.55,2368.75 850.09,580.37 1846.14,1005.25 2978,1257.2 1140.43,261.15 2378.27,386.49 3722.1,386.49 1160.74,0 2291.65,-125.34 3412.72,-386.49 1122.34,-261.47 2146.95,-599.72 3075.41,-1024.93 811.69,-367.45 1565.63,-754.89 2252.93,-1180.09 696.19,-425.2 1256.25,-792.33 1691.92,-1121.07l1053.8 0 0 8208.93c-812.96,319.22 -1557.06,618.76 -2224.06,888.8 -676.83,280.51 -1595.77,561.01 -2765.08,841.52 -1083.63,280.51 -2195.18,502.31 -3335.61,667.31 -1150.9,163.73 -2542.96,241.79 -4186.65,241.79zm3345.13 -20827.25c-57.75,-2117.12 -551.49,-3731.94 -1469.17,-4833.97 -928.46,-1112.5 -2339.88,-1662.73 -4244.72,-1662.73 -1953.39,0 -3471.74,580.37 -4563.93,1749.67 -1092.2,1160.74 -1701.44,2745.4 -1818.21,4747.02l12096.03 0z"/>
   </g>
   <path class="fil2" d="M126321.3 26207.64c4165.07,-2925.64 9756.79,-2131.72 12792.22,2036.52 2983.71,4096.85 2085.39,9943.05 -2094.28,12877.89 -4154.92,2916.75 -9741.87,2041.92 -12761.44,-2062.54 -3000.21,-4077.81 -2113.31,-9918.62 2063.5,-12851.87zm-18055.83 12773.49c-3456.19,1430.14 -999.86,6576.02 2232.31,5007.86 3202.34,-1551.99 1107.74,-6390.71 -2232.31,-5007.86zm33918.06 -16688.84c-2647.67,-2633.39 -7056.12,-4244.72 -10782.66,-4127.31 -8477.69,266.54 -15092.11,6893.66 -15203.17,15394.51 -51.09,3716.39 1548.81,8030.28 4195.85,10658.91l803.12 797.73c5610.44,5570.46 15652.49,5370.86 21190.26,-198.64l531.82 -536.58c5539.04,-5571.09 5672.31,-15618.54 66.32,-21191.85l-801.54 -796.78zm1227.37 -14446.69l15172.71 15076.56c2062.54,2048.9 2072.38,4728.62 22.85,6791.16l-30598.32 30790.93c-2097.77,2110.46 -4742.9,2234.85 -6879.38,111.38l-15084.49 -14986.76c-1482.49,-1473.61 -2148.54,-3401.29 -1228.96,-5354.68 696.51,-1481.22 4257.73,-4685.78 5552.05,-5988.68 1050.95,-1055.39 1899.44,-1808.69 2377.95,-3271.83 1568.8,-4793.03 -4262.8,-7683.77 -2950.71,-9005.07l10112.81 -10173.74c1282.27,-1291.47 4140.95,4297.39 8818.17,2959.27 3290.23,-940.2 6242.53,-6373.26 9259.55,-7978.55 1883.58,-1004.3 3954.37,-432.18 5425.76,1030zm-16249.99 668.9c-2445.23,-1976.23 -4912.98,-3778.9 -8274.61,-3071.29 -1945.77,409.97 -3041.46,1611.64 -4389.09,2966.26l-8159.42 8211.15c-1349.54,1358.42 -2537.25,2454.74 -2938.01,4408.45 -317.63,1540.56 -194.2,3073.51 523.57,4489.68 553.71,1089.66 1714.13,2655.29 2599.44,3764.62 -4048.62,3983.25 -9381.4,8018.54 -8274.93,14410.84 290.34,1679.23 585.13,2534.07 1485.03,3933.75 185.63,289.71 330.64,559.43 441.7,888.48l45.69 134.86 17830.22 17718.2 135.81 44.11c47.91,16.82 96.78,35.22 144.7,55.85 1403.48,611.78 1756.34,1192.15 3578.67,1629.73 1126.78,270.35 2753.65,445.51 3893.45,252.9 3700.52,-626.38 4905.05,-1696.68 7526.06,-4333.88l28823.26 -29006.03c2500.44,-2517.26 3703.38,-4013.71 4215.52,-7562.56 251.31,-1748.72 -37.44,-3427.95 -723.79,-5041.49 -330.01,-773.3 -1053.8,-1816.63 -1281.63,-2468.71l-45.69 -132.64 -17828 -17715.03 -136.45 -45.06c-373.16,-125.02 -656.52,-277.97 -983.36,-491.52 -1344.14,-881.5 -2337.66,-1146.46 -3937.56,-1419.98 -6230.15,-1064.59 -10393.32,4390.05 -14270.58,8379.32zm37438.03 54375.32c-1857.56,2016.22 -4749.25,4654.69 -6654.72,6056.58 -6089.26,4483.02 -12198.2,7106.26 -19614.48,8502.76 -2601.98,491.52 -5240.45,668.26 -7885.26,675.25 -2681.94,7.62 -5552.05,-329.37 -8194.96,-774.25 -1405.7,-237.67 -2772.69,-651.45 -4157.77,-982.72 -2873.28,-688.26 -5737.05,-1978.77 -8380.91,-3296.9 -19451.69,-9696.81 -29172.94,-32577.72 -22990.07,-53360.55 627.01,-2109.51 2758.1,-6078.48 649.86,-7864.32 -1349.86,-1142.01 -3457.46,-1194.69 -4741.95,71.71 -776.47,762.51 -1568.17,3332.44 -1936.25,4435.1 -916.4,2742.87 -1506.93,5455.9 -1987.02,8352.03l-532.45 5990.9c-534.99,27895.75 18912.26,50544.39 46804.2,53820.66l11338.6 -105.35c778.69,-99 1551.35,-72.35 2333.85,-207.84 12466.33,-2157.1 21081.42,-7050.73 29984.95,-15740.38 54.26,568.31 74.89,1151.22 194.51,1709.06 481.37,2249.76 174.52,7721.85 1857.56,9146.59 1151.22,973.84 3591.37,989.07 4601.69,-204.03 1786.8,-2115.22 318.58,-7981.73 94.56,-10659.86l-581.32 -4996.75c-214.19,-1229.59 -177.38,-3961.99 -742.83,-4896.16 -959.88,-1585.3 -4695.62,-1836.93 -6326.93,-2034.3l-12708.76 -1528.19c-952.26,-26.02 -2280.22,469.31 -2902.79,1204.53 -1162.64,1375.24 -770.44,3815.71 645.42,4871.73 1313.36,980.5 8486.89,1353.66 11833.29,1814.72z"/>
  </g>
  <path class="fil0" d="M19192.77 165149.49c438.85,371.58 801.54,841.84 1088.07,1406.02 282.09,564.19 425.52,1294.01 425.52,2185.03 0,873.25 -174.84,1683.67 -524.2,2431.58 -349.05,747.59 -832.63,1401.58 -1446,1961 -627.01,577.83 -1406.02,1016.68 -2332.9,1325.42 -931.32,304.62 -1961.32,456.93 -3098.58,456.93 -1217.85,0 -2332.9,-120.9 -3349.25,-362.69 -1012.23,-237.35 -1827.1,-488.03 -2440.47,-752.35l0 -2914.85 183.73 0c698.41,465.5 1549.13,882.13 2547.72,1235.62 998.59,358.25 2001.62,537.53 3004.33,537.53 640.34,0 1271.8,-85.04 1907.69,-255.44 631.14,-170.08 1164.23,-447.73 1589.43,-832.63 429.96,-385.22 743.47,-805.98 944.96,-1258.47 201.49,-447.73 299.86,-1016.36 299.86,-1697 0,-666.99 -120.9,-1226.74 -358.25,-1683.67 -241.79,-452.17 -581.95,-819.31 -1016.36,-1101.4 -429.96,-282.09 -940.2,-479.14 -1540.24,-595.6 -600.04,-120.9 -1235.94,-178.97 -1921.02,-178.97l-2041.92 0 0 -2176.14 1773.15 0c1374.92,0 2480.76,-277.65 3313.71,-828.51 837.08,-550.54 1253.71,-1356.52 1253.71,-2417.94 0,-479.14 -103.13,-895.46 -309.06,-1240.38 -201.49,-344.6 -492.47,-626.7 -864.05,-846.28 -412.19,-237.03 -841.84,-398.23 -1289.57,-478.83 -447.73,-85.36 -936.08,-125.66 -1468.85,-125.66 -555.3,0 -1101.4,62.83 -1643.37,192.61 -537.21,125.34 -1047.77,282.09 -1526.92,470.26 -452.17,183.41 -850.72,376.02 -1186.44,581.95 -340.16,201.49 -617.81,367.13 -837.39,501.67l-170.08 0 0 -2874.87c595.6,-282.09 1401.58,-537.21 2426.82,-774.56 1021.12,-237.35 2033.03,-353.81 3026.86,-353.81 1007.47,0 1871.84,85.36 2597.22,255.44 725.38,170.08 1387.93,447.73 1992.42,832.63 653.99,429.96 1146.46,931.64 1473.29,1513.59 326.83,581.95 492.47,1276.24 492.47,2077.78 0,1056.66 -353.81,1979.09 -1056.66,2766.98 -703.17,788.21 -1620.84,1303.21 -2758.41,1549.45l0 192.61c438.85,80.6 913.55,219.26 1428.55,420.76 510.56,201.49 980.5,488.03 1410.46,855.16zm2095.54 9416.62l6590.94 -19531.66 3206.15 0 6591.26 19531.66 -2749.53 0 -1764.27 -5427.03 -7477.52 0 -1759.83 5427.03 -2637.2 0zm11140.28 -7683.77l-3008.78 -9170.07 -3000.21 9170.07 6008.98 0zm21546.6 7683.77l-3313.4 0 -6909.21 -8946.36 -1625.28 0 0 8946.36 -2606.1 0 0 -19531.66 2606.1 0 0 8812.14c1025.56,-35.86 1835.98,-290.98 2436.02,-774.56 595.28,-483.59 1083.31,-1173.11 1459.65,-2073.33 156.75,-394.1 299.86,-770.12 425.2,-1123.93 125.34,-358.25 228.47,-658.11 309.06,-899.9 523.89,-1499.95 1191.2,-2529.95 2006.06,-3094.13 814.86,-564.19 1943.23,-846.28 3389.55,-846.28l801.54 0 0 2310.37 -658.11 0c-1065.86,0 -1813.77,210.7 -2243.41,631.46 -425.52,421.08 -819.62,1208.97 -1182.31,2364.31 -357.93,1155.34 -760.92,2001.62 -1204.21,2538.83 -448.05,537.21 -985.26,1011.92 -1616.72,1423.79l7925.56 10262.9zm-389.34 0l6590.94 -19531.66 3206.15 0 6591.26 19531.66 -2749.53 0 -1764.27 -5427.03 -7477.52 0 -1759.83 5427.03 -2637.2 0zm11140.28 -7683.77l-3008.78 -9170.07 -3000.21 9170.07 6008.98 0zm17185.43 -1732.85c438.85,371.58 801.54,841.84 1088.07,1406.02 282.09,564.19 425.52,1294.01 425.52,2185.03 0,873.25 -174.84,1683.67 -524.2,2431.58 -349.05,747.59 -832.63,1401.58 -1446,1961 -627.01,577.83 -1406.02,1016.68 -2332.9,1325.42 -931.32,304.62 -1961.32,456.93 -3098.58,456.93 -1217.85,0 -2332.9,-120.9 -3349.25,-362.69 -1012.23,-237.35 -1827.1,-488.03 -2440.47,-752.35l0 -2914.85 183.73 0c698.41,465.5 1549.13,882.13 2547.72,1235.62 998.59,358.25 2001.62,537.53 3004.33,537.53 640.34,0 1271.8,-85.04 1907.69,-255.44 631.14,-170.08 1164.23,-447.73 1589.43,-832.63 429.96,-385.22 743.47,-805.98 944.96,-1258.47 201.49,-447.73 299.86,-1016.36 299.86,-1697 0,-666.99 -120.9,-1226.74 -358.25,-1683.67 -241.79,-452.17 -581.95,-819.31 -1016.36,-1101.4 -429.96,-282.09 -940.2,-479.14 -1540.24,-595.6 -600.04,-120.9 -1235.94,-178.97 -1921.02,-178.97l-2041.92 0 0 -2176.14 1773.15 0c1374.92,0 2480.76,-277.65 3313.71,-828.51 837.08,-550.54 1253.71,-1356.52 1253.71,-2417.94 0,-479.14 -103.13,-895.46 -309.06,-1240.38 -201.49,-344.6 -492.47,-626.7 -864.05,-846.28 -412.19,-237.03 -841.84,-398.23 -1289.57,-478.83 -447.73,-85.36 -936.08,-125.66 -1468.85,-125.66 -555.3,0 -1101.4,62.83 -1643.37,192.61 -537.21,125.34 -1047.77,282.09 -1526.92,470.26 -452.17,183.41 -850.72,376.02 -1186.44,581.95 -340.16,201.49 -617.81,367.13 -837.39,501.67l-170.08 0 0 -2874.87c595.6,-282.09 1401.58,-537.21 2426.82,-774.56 1021.12,-237.35 2033.03,-353.81 3026.86,-353.81 1007.47,0 1871.84,85.36 2597.22,255.44 725.38,170.08 1387.93,447.73 1992.42,832.63 653.99,429.96 1146.46,931.64 1473.29,1513.59 326.83,581.95 492.47,1276.24 492.47,2077.78 0,1056.66 -353.81,1979.09 -1056.66,2766.98 -703.17,788.21 -1620.84,1303.21 -2758.41,1549.45l0 192.61c438.85,80.6 913.55,219.26 1428.55,420.76 510.56,201.49 980.5,488.03 1410.46,855.16zm29888.17 -555.3c0,1213.73 -183.41,2283.71 -550.54,3215.03 -367.45,931.32 -877.69,1715.08 -1536.12,2350.98 -707.29,702.85 -1576.1,1240.06 -2610.23,1620.84 -1034.45,380.46 -2100.3,581.95 -3201.7,608.93l0 2390.96 -2606.1 0 0 -2390.96c-1092.51,-35.86 -2158.06,-232.91 -3188.06,-591.16 -1034.13,-358.25 -1911.82,-895.46 -2637.2,-1611.96 -658.43,-635.9 -1164.23,-1428.23 -1526.92,-2368.75 -362.69,-944.65 -546.42,-2019.39 -546.42,-3223.91 0,-1137.26 174.84,-2158.06 523.89,-3062.72 349.36,-904.35 841.84,-1683.35 1468.85,-2337.34 676.2,-698.41 1517.72,-1249.27 2534.39,-1652.26 1016.36,-398.55 2140.29,-617.81 3371.47,-653.67l0 -2176.14 2606.1 0 0 2176.14c1231.5,26.97 2359.87,241.79 3385.11,649.23 1025.56,407.43 1871.84,953.85 2547.72,1643.37 627.01,649.23 1115.04,1419.35 1455.52,2319.57 340.16,899.9 510.24,1929.91 510.24,3093.82zm-2713.36 -125.34c0,-864.05 -120.9,-1652.26 -367.13,-2363.99 -241.79,-712.05 -604.48,-1316.54 -1088.07,-1813.45 -452.17,-470.26 -980.82,-819.62 -1580.54,-1047.77 -604.8,-228.47 -1320.98,-349.36 -2149.49,-367.45l0 11525.81c783.77,-18.09 1486.62,-147.87 2099.99,-385.22 618.13,-241.79 1123.93,-564.19 1526.92,-962.73 532.77,-523.89 926.88,-1164.23 1177.55,-1911.82 255.44,-752.35 380.78,-1643.37 380.78,-2673.37zm-7791.34 5933.15l0 -11525.81c-828.19,9.2 -1544.69,130.1 -2149.17,367.45 -600.04,237.03 -1128.37,586.4 -1580.54,1047.77 -483.59,488.03 -846.28,1096.96 -1088.07,1817.89 -246.24,725.38 -367.13,1513.27 -367.13,2359.55 0,1030 125.34,1921.02 380.46,2677.82 250.68,756.79 644.78,1392.38 1177.55,1907.38 402.99,380.78 909.11,703.17 1526.92,953.85 613.69,255.12 1316.54,384.9 2099.99,394.1zm27161.8 -13119.68c743.15,855.16 1320.66,1916.26 1732.85,3183.62 411.87,1267.04 617.81,2713.36 617.81,4338.96 0,1584.99 -201.49,3013.22 -604.48,4289.46 -402.99,1276.24 -985.26,2346.22 -1746.18,3215.03 -797.09,909.11 -1728.41,1576.1 -2794.27,2010.5 -1061.1,434.4 -2234.21,649.23 -3510.45,649.23 -1325.42,0 -2516.3,-224.02 -3573.28,-667.31 -1061.1,-447.73 -1974.65,-1110.28 -2735.89,-1992.42 -752.04,-868.81 -1329.86,-1934.35 -1732.85,-3201.7 -402.99,-1267.04 -604.48,-2700.03 -604.48,-4302.78 0,-1643.37 201.49,-3085.25 608.93,-4325.63 407.75,-1240.38 989.7,-2305.92 1742.06,-3196.94 752.04,-868.81 1661.14,-1526.92 2726.68,-1974.65 1065.86,-452.17 2252.3,-676.2 3568.84,-676.2 1329.86,0 2529.95,232.91 3595.49,693.97 1070.3,465.82 1974.65,1115.04 2709.23,1956.88zm-362.69 7522.57c0,-1289.57 -138.98,-2431.58 -421.08,-3425.41 -277.65,-998.59 -671.75,-1822.65 -1177.55,-2476.32 -519.44,-671.75 -1142.01,-1173.11 -1871.84,-1508.83 -729.82,-336.04 -1549.13,-506.12 -2458.24,-506.12 -944.65,0 -1773.15,165.64 -2476,492.47 -703.17,326.83 -1325.42,832.95 -1871.84,1522.47 -514.68,662.87 -908.79,1495.5 -1186.44,2498.53 -273.21,1007.47 -411.87,2140.29 -411.87,3403.2 0,2556.6 537.21,4513.48 1611.96,5870 1079.19,1356.84 2520.75,2037.48 4334.2,2037.48 1809.01,0 3250.89,-680.64 4321.19,-2037.48 1069.98,-1356.52 1607.52,-3313.4 1607.52,-5870zm10115.03 9761.23l0 -17221.29 -6555.4 0 0 -2310.37 15716.59 0 0 2310.37 -6555.4 0 0 17221.29 -2605.79 0zm24945.36 -17283.8c743.15,855.16 1320.66,1916.26 1732.85,3183.62 411.87,1267.04 617.81,2713.36 617.81,4338.96 0,1584.99 -201.49,3013.22 -604.48,4289.46 -402.99,1276.24 -985.26,2346.22 -1746.18,3215.03 -797.09,909.11 -1728.41,1576.1 -2794.27,2010.5 -1061.1,434.4 -2234.21,649.23 -3510.45,649.23 -1325.42,0 -2516.3,-224.02 -3573.28,-667.31 -1061.1,-447.73 -1974.65,-1110.28 -2735.89,-1992.42 -752.04,-868.81 -1329.86,-1934.35 -1732.85,-3201.7 -402.99,-1267.04 -604.48,-2700.03 -604.48,-4302.78 0,-1643.37 201.49,-3085.25 608.93,-4325.63 407.75,-1240.38 989.7,-2305.92 1742.06,-3196.94 752.04,-868.81 1661.14,-1526.92 2726.68,-1974.65 1065.86,-452.17 2252.3,-676.2 3568.84,-676.2 1329.86,0 2529.95,232.91 3595.49,693.97 1070.3,465.82 1974.65,1115.04 2709.23,1956.88zm-362.69 7522.57c0,-1289.57 -138.98,-2431.58 -421.08,-3425.41 -277.65,-998.59 -671.75,-1822.65 -1177.55,-2476.32 -519.44,-671.75 -1142.01,-1173.11 -1871.84,-1508.83 -729.82,-336.04 -1549.13,-506.12 -2458.24,-506.12 -944.65,0 -1773.15,165.64 -2476,492.47 -703.17,326.83 -1325.42,832.95 -1871.84,1522.47 -514.68,662.87 -908.79,1495.5 -1186.44,2498.53 -273.21,1007.47 -411.87,2140.29 -411.87,3403.2 0,2556.6 537.21,4513.48 1611.96,5870 1079.19,1356.84 2520.75,2037.48 4334.2,2037.48 1809.01,0 3250.89,-680.64 4321.19,-2037.48 1069.98,-1356.52 1607.52,-3313.4 1607.52,-5870zm17127.05 -7460.06l-8973.34 0 0 17221.29 -2606.1 0 0 -19531.66 11579.44 0 0 2310.37zm14355.31 3577.72c0,850.72 -152.31,1652.26 -452.17,2409.05 -300.18,756.79 -716.5,1401.58 -1244.82,1934.35 -671.75,662.87 -1459.96,1168.67 -2368.75,1509.15 -904.66,340.16 -2050.8,510.24 -3438.74,510.24l-2194.23 0 0 7280.78 -2606.1 0 0 -19531.66 4894.26 0c1155.34,0 2135.84,93.93 2946.26,286.53 810.42,192.61 1526.92,506.12 2149.17,931.32 720.94,501.67 1289.57,1132.81 1701.76,1898.49 407.43,765.68 613.37,1688.11 613.37,2771.74zm-2713.67 62.83c0,-667.31 -116.14,-1249.27 -344.6,-1741.74 -232.91,-497.23 -582.27,-900.22 -1047.77,-1208.97 -411.87,-273.21 -886.58,-461.38 -1428.55,-573.39 -541.66,-111.69 -1217.85,-170.08 -2028.27,-170.08l-2135.84 0 0 7737.4 1759.83 0c1043.33,0 1885.17,-85.04 2529.95,-255.12 640.02,-165.64 1173.11,-470.26 1602.76,-899.9 380.78,-394.1 658.43,-815.18 832.95,-1276.24 174.52,-461.38 259.56,-998.59 259.56,-1611.96zm3098.89 13580.74l6590.94 -19531.66 3206.15 0 6591.26 19531.66 -2749.53 0 -1764.27 -5427.03 -7477.52 0 -1759.83 5427.03 -2637.2 0zm11140.28 -7683.77l-3008.78 -9170.07 -3000.21 9170.07 6008.98 0zm24367.53 -2288.15c0,1213.73 -183.41,2283.71 -550.54,3215.03 -367.45,931.32 -877.69,1715.08 -1536.12,2350.98 -707.29,702.85 -1576.1,1240.06 -2610.23,1620.84 -1034.45,380.46 -2100.3,581.95 -3201.7,608.93l0 2390.96 -2606.1 0 0 -2390.96c-1092.51,-35.86 -2158.06,-232.91 -3188.06,-591.16 -1034.13,-358.25 -1911.82,-895.46 -2637.2,-1611.96 -658.43,-635.9 -1164.23,-1428.23 -1526.92,-2368.75 -362.69,-944.65 -546.42,-2019.39 -546.42,-3223.91 0,-1137.26 174.84,-2158.06 523.89,-3062.72 349.36,-904.35 841.84,-1683.35 1468.85,-2337.34 676.2,-698.41 1517.72,-1249.27 2534.39,-1652.26 1016.36,-398.55 2140.29,-617.81 3371.47,-653.67l0 -2176.14 2606.1 0 0 2176.14c1231.5,26.97 2359.87,241.79 3385.11,649.23 1025.56,407.43 1871.84,953.85 2547.72,1643.37 627.01,649.23 1115.04,1419.35 1455.52,2319.57 340.16,899.9 510.24,1929.91 510.24,3093.82zm-2713.36 -125.34c0,-864.05 -120.9,-1652.26 -367.13,-2363.99 -241.79,-712.05 -604.48,-1316.54 -1088.07,-1813.45 -452.17,-470.26 -980.82,-819.62 -1580.54,-1047.77 -604.8,-228.47 -1320.98,-349.36 -2149.49,-367.45l0 11525.81c783.77,-18.09 1486.62,-147.87 2099.99,-385.22 618.13,-241.79 1123.93,-564.19 1526.92,-962.73 532.77,-523.89 926.88,-1164.23 1177.55,-1911.82 255.44,-752.35 380.78,-1643.37 380.78,-2673.37zm-7791.34 5933.15l0 -11525.81c-828.19,9.2 -1544.69,130.1 -2149.17,367.45 -600.04,237.03 -1128.37,586.4 -1580.54,1047.77 -483.59,488.03 -846.28,1096.96 -1088.07,1817.89 -246.24,725.38 -367.13,1513.27 -367.13,2359.55 0,1030 125.34,1921.02 380.46,2677.82 250.68,756.79 644.78,1392.38 1177.55,1907.38 402.99,380.78 909.11,703.17 1526.92,953.85 613.69,255.12 1316.54,384.9 2099.99,394.1zm11216.75 4164.12l6590.94 -19531.66 3206.15 0 6591.26 19531.66 -2749.53 0 -1764.27 -5427.03 -7477.52 0 -1759.83 5427.03 -2637.2 0zm11140.28 -7683.77l-3008.78 -9170.07 -3000.21 9170.07 6008.98 0z"/>
 </g>
</svg>
