<?xml version="1.0" encoding="UTF-8"?>
<!DOCTYPE svg PUBLIC "-//W3C//DTD SVG 1.1//EN" "http://www.w3.org/Graphics/SVG/1.1/DTD/svg11.dtd">
<!-- Creator: CorelDRAW 2018 (64-Bit Evaluation Version) -->
<svg xmlns="http://www.w3.org/2000/svg" xml:space="preserve" width="1094px" height="779px" version="1.1" style="shape-rendering:geometricPrecision; text-rendering:geometricPrecision; image-rendering:optimizeQuality; fill-rule:evenodd; clip-rule:evenodd"
viewBox="0 0 24.65 17.55"
 xmlns:xlink="http://www.w3.org/1999/xlink">
 <defs>
  <style type="text/css">
   <![CDATA[
    .fil0 {fill:#666666}
   ]]>
  </style>
 </defs>
 <g id="Слой_x0020_1">
  <metadata id="CorelCorpID_0Corel-Layer"/>
  <path class="fil0" d="M8.07 3.36c-0.04,1.06 -0.24,2.7 -0.33,3.87 -0.09,1.08 -0.73,1.45 -1.55,1.06 -0.93,-0.45 -2.05,-0.89 -2.94,-1.33 0.48,-2.18 -1.65,-2.91 -2.78,-1.78 -1.15,1.15 -0.06,3.32 1.88,2.69 0.14,0.13 1.25,2.64 1.45,3.04 0.49,1.02 0.95,2.16 1.45,3.1 0.16,-0.04 0.23,-0.13 0.36,-0.23 0.67,-0.5 1.93,-1.12 2.71,-1.41 2.67,-0.97 5.35,-0.96 8.01,0 1.85,0.67 2.65,1.48 3.06,1.66 0.19,-0.24 2.7,-5.96 2.91,-6.16 1.95,0.63 3.03,-1.54 1.88,-2.69 -1.11,-1.11 -3.26,-0.44 -2.78,1.78 -0.63,0.31 -1.29,0.57 -1.94,0.87 -0.82,0.39 -1.53,0.85 -2.11,0.43 -0.31,-0.22 -0.39,-0.47 -0.43,-0.97 -0.1,-1.21 -0.3,-2.83 -0.33,-3.93 2.03,-0.4 1.86,-2.78 0.34,-3.28 -0.93,-0.3 -1.71,0.26 -2,0.83 -0.4,0.77 -0.06,1.81 0.49,2.09 -0.07,0.22 -1.82,2.62 -2.08,2.98 -0.24,0.32 -0.42,0.71 -0.99,0.72 -0.58,0.01 -0.79,-0.38 -1.01,-0.69 -0.24,-0.35 -0.48,-0.67 -0.71,-0.99 -0.24,-0.34 -0.48,-0.66 -0.7,-0.99 -0.17,-0.24 -0.62,-0.79 -0.7,-1.03 0.55,-0.29 0.9,-1.31 0.5,-2.1 -0.83,-1.6 -3.39,-0.9 -3.16,0.99 0.1,0.83 0.69,1.31 1.5,1.47zm-4.88 4.41l2.36 5.13c0.21,-0.07 1.41,-0.89 2.98,-1.4 3.19,-1.04 7.02,-0.71 9.87,1.01 0.22,0.13 0.48,0.3 0.69,0.4l2.39 -5.13c-0.28,0.06 -0.82,0.33 -1.09,0.46 -0.37,0.18 -0.72,0.32 -1.07,0.48 -0.78,0.37 -1.52,0.75 -2.38,0.18 -0.72,-0.49 -0.75,-1.19 -0.83,-2.27 -0.08,-0.94 -0.12,-1.91 -0.25,-2.85 -0.25,0.24 -0.53,0.71 -0.75,1.01l-1.5 2.07c-0.3,0.29 -0.6,0.59 -1.26,0.59 -1.09,0.01 -1.5,-0.82 -2.04,-1.59 -0.24,-0.33 -1.32,-1.91 -1.52,-2.08 -0.1,0.93 -0.17,1.92 -0.24,2.86 -0.09,1.05 -0.13,1.78 -0.84,2.25 -0.88,0.59 -1.59,0.21 -2.38,-0.17 -0.35,-0.16 -0.7,-0.31 -1.07,-0.48 -0.27,-0.13 -0.81,-0.4 -1.07,-0.47zm2.44 7.22l1.22 2.54 10.94 0.02 1.24 -2.55c-1.57,-1.52 -4.42,-2.49 -6.68,-2.49 -1.4,-0.01 -2.7,0.28 -3.85,0.74 -1,0.4 -2.26,1.14 -2.87,1.74zm0.94 0.24l0.74 1.55 9.97 0.01c0.18,-0.14 0.68,-1.29 0.8,-1.56 -0.32,-0.42 -1.77,-1.13 -2.48,-1.38 -0.99,-0.37 -2.07,-0.59 -3.25,-0.59 -1.16,0 -2.3,0.23 -3.27,0.58 -0.71,0.25 -2.19,0.97 -2.51,1.39zm1.42 -14.43c-1.23,0.39 -0.63,2.11 0.53,1.77 1.12,-0.34 0.64,-2.14 -0.53,-1.77zm8.17 0c-1.17,0.33 -0.67,2.11 0.52,1.77 0.41,-0.12 0.8,-0.59 0.61,-1.16 -0.13,-0.41 -0.55,-0.77 -1.13,-0.61zm6.56 4.64c-1.16,0.34 -0.67,2.15 0.53,1.77 1.12,-0.36 0.63,-2.11 -0.53,-1.77zm-21.3 0.01c-1.19,0.38 -0.61,2.09 0.52,1.76 0.43,-0.12 0.8,-0.59 0.62,-1.16 -0.12,-0.42 -0.6,-0.77 -1.14,-0.6z"/>
 </g>
</svg>
