<?xml version="1.0" encoding="UTF-8"?>
<!DOCTYPE svg PUBLIC "-//W3C//DTD SVG 1.1//EN" "http://www.w3.org/Graphics/SVG/1.1/DTD/svg11.dtd">
<!-- Creator: CorelDRAW 2018 (64-Bit Evaluation Version) -->
<svg xmlns="http://www.w3.org/2000/svg" xml:space="preserve" width="13.9403mm" height="14.9324mm" version="1.1" style="shape-rendering:geometricPrecision; text-rendering:geometricPrecision; image-rendering:optimizeQuality; fill-rule:evenodd; clip-rule:evenodd"
viewBox="0 0 63.58 68.1"
 xmlns:xlink="http://www.w3.org/1999/xlink">
 <defs>
  <style type="text/css">
   <![CDATA[
    .fil0 {fill:white}
   ]]>
  </style>
 </defs>
 <g id="Слой_x0020_1">
  <metadata id="CorelCorpID_0Corel-Layer"/>
  <path class="fil0" d="M26.99 68.1l28.92 0c1.48,-0.59 2.22,-0.35 3.9,-1.31 4.46,-2.55 3.72,-7.06 3.72,-11.88l0 -41.71c0,-3.71 0.23,-6.03 -1.62,-8.87 -2.27,-3.49 -4.02,-3.25 -6.08,-4.33l-28.77 0c-0.85,0.41 -1.86,0.54 -2.78,1.03 -2.24,1.17 -4.32,3.56 -5.1,6.18 -0.48,1.61 -0.6,12.63 -0.34,14.69 0.32,2.57 3.76,2.48 4.02,-0.18 0.2,-2.06 0.01,-5.27 0.01,-7.46 0,-2.23 -0.35,-4.99 0.59,-6.82 0.71,-1.39 2.24,-2.99 4.12,-3.29 1.51,-0.24 19.58,-0.08 22.7,-0.08 2.35,0 4.87,-0.36 6.66,0.76 3.38,2.13 2.53,7.77 2.53,12.62 0,6.88 0.48,43.06 -0.48,44.67 -1.05,1.74 -3.32,1.92 -5.72,1.91l-22.35 -0c-7.98,-0 -8.05,-1.05 -8.04,-6.99 0,-2.55 -0,-5.11 0.01,-7.66 0,-1.37 -0.05,-2.43 -0.94,-2.94 -0.99,-0.58 -2.14,-0.18 -2.66,0.47 -0.93,1.13 -0.47,5.43 -0.47,7.16 0,2.06 -0.2,5.44 0.09,7.34 0.86,5.74 6.61,6.14 8.1,6.7zm13.66 -36.65c-2.29,0.27 -27.9,0.07 -32.51,0.07 -2.71,0 -9.05,-1 -8.03,2.66 0.44,1.59 2.23,1.41 3.99,1.4l38.32 -0.01 -9.99 10.43c-1.7,1.69 -0.6,4.02 1.43,3.8 1.24,-0.14 6.04,-5.36 7.16,-6.49l6.92 -6.91c1.98,-2.35 -1.45,-4.49 -4.64,-7.72 -2.34,-2.38 -4.55,-4.58 -6.91,-6.92 -0.78,-0.77 -2.5,-3.08 -4.25,-1.37 -2.08,2.04 2.32,4.67 5.08,7.56l3.42 3.5z"/>
 </g>
</svg>
