<?xml version="1.0" encoding="UTF-8"?>
<!DOCTYPE svg PUBLIC "-//W3C//DTD SVG 1.1//EN" "http://www.w3.org/Graphics/SVG/1.1/DTD/svg11.dtd">
<!-- Creator: CorelDRAW 2018 (64-Bit Evaluation Version) -->
<svg xmlns="http://www.w3.org/2000/svg" xml:space="preserve" width="129.509mm" height="129.558mm" version="1.1" style="shape-rendering:geometricPrecision; text-rendering:geometricPrecision; image-rendering:optimizeQuality; fill-rule:evenodd; clip-rule:evenodd"
viewBox="0 0 3172.79 3173.99"
 xmlns:xlink="http://www.w3.org/1999/xlink">
 <defs>
  <style type="text/css">
   <![CDATA[
    .fil0 {fill:#F80094}
   ]]>
  </style>
 </defs>
 <g id="Слой_x0020_1">
  <metadata id="CorelCorpID_0Corel-Layer"/>
  <path class="fil0" d="M3172.79 1584.15c0,-123.05 -11.48,-239.07 -40.24,-354.45 -12.43,-49.88 -23.11,-102.49 -42.32,-152.32l-122.88 -271.81c-33.78,-62.86 -78.38,-120.39 -118.92,-178.45l-88.21 -106.44c-59.62,-65.63 -60.76,-61.58 -116.71,-115.77l-5.35 -5.47c-68.21,-71.62 -233.07,-178 -323.2,-222.87l-137.58 -62.47c-74.18,-26.79 -148.34,-52.41 -225.34,-72.03 -106.57,-27.14 -249.57,-42.09 -358,-42.09 -107.83,0 -167.64,10.45 -272.56,24.81 -26.95,3.69 -37.93,2.5 -61.69,8.59 -102.79,26.37 -127.17,32.04 -228.63,68.74 -12.48,4.52 -17.32,6.94 -27.71,10.14l-79.84 33.7c-121.68,58.09 -238.95,127.47 -342.3,214.6l-134.84 124.67c-14.65,14.63 -24.5,23.5 -36.49,39.2l-38.36 42.74c-53.4,62.74 -165,219.67 -190.74,285.05 -23.54,59.78 -51.28,102.32 -79.96,179.56 -103.32,278.26 -133.43,617.77 -61.62,901.41 10.01,39.55 19.83,78.96 30,115.98 10.29,37.47 26.44,73.58 39.92,111.46 19.46,54.66 45.78,101.03 68.87,152.81 28.95,64.88 71.48,126.93 112.96,184.41l135.95 166.82c60.32,75.6 197.44,190.75 278.57,240.46 79.74,48.85 155.46,93.41 241.13,131.94l160.73 60.94c16.09,5.93 39,13.07 57.51,18.19 21.49,5.94 43.5,8.23 62.12,13.57 91.25,26.14 309.54,54.04 396.28,40.81 42.45,-6.48 99.54,-4.81 143.4,-7.99 101.04,-7.32 265.12,-50.61 362.55,-86.2 38.21,-13.95 70.11,-28.77 107.39,-44 16.67,-6.82 29.68,-13.7 47.56,-22.72l263.8 -163.33c8.71,-7.4 0.8,-1.39 11.81,-9.81l89.13 -73.07c23.9,-22.03 50.13,-39.62 69.66,-65.51l104.14 -117.53c30.7,-34.08 66.57,-89.52 92.91,-128.76 8.02,-11.96 7.59,-8.65 15.52,-22.33 5.67,-9.79 7.56,-15.16 13.38,-24.46 11.03,-17.62 18.05,-29.21 28.46,-47.24 6.13,-10.63 6.81,-10.2 13.63,-24.21 2.46,-5.06 2.69,-6.12 5.16,-11.05l54.87 -112.74c25.76,-54.57 57.45,-166.83 73.06,-224.31 12.62,-46.46 46.37,-198.56 47.8,-254.98 1.4,-54.95 5.22,-92.3 5.22,-146.17zm-2903.38 -86.5l0 16.22c52.58,0 204.43,-10.14 248.73,10.79 66.5,31.42 48.24,129.78 -43.28,129.78l-205.45 0c0,34.09 1.71,55.77 4.49,82.02 1.6,15.18 0.3,25.06 3.06,40.19l23.52 111.65c13.7,70.64 36.46,138.53 64.67,205.66 9.21,21.9 19.03,41.13 27.57,58.93 11.2,23.35 17.65,38.85 30.31,61.6 11.42,20.51 18.65,36.44 31.74,54.77 12.78,17.91 25.52,38.43 35.97,55.94l96.34 125.33c51.02,54.35 100.7,112.96 161.12,157.88 35.42,26.33 65.35,53.04 102.79,75.63l110.74 67.69c76.6,42.48 166.84,80.56 253.87,102.97l144.39 34.04c19.13,3.12 143.68,25.11 153.83,14.96 32.09,-32.08 -46.48,-297.68 64,-297.68 86.72,0 75.7,60.32 75.7,129.76 -0,56.02 -5.57,125.92 5.4,173.01 187.26,-15.58 357.33,-59.35 493.82,-127.95 34.68,-17.43 71,-32.22 103.14,-53.65 56.9,-37.91 149.02,-92.17 198.34,-142.28l67.56 -62.21c41.31,-34.51 110.09,-127.6 143.62,-169.96 29.36,-37.1 69.55,-100.1 88.82,-143.67 33.19,-75.03 72.31,-141.41 91.99,-221.6 6.38,-25.99 12,-39.07 19.11,-61.99 17.1,-55.13 41.04,-203.52 42.54,-271.04l-216.26 0c-95.76,0 -119.22,-140.57 27.03,-140.57l189.23 0c-1.76,-78.94 -19.54,-193.9 -42.54,-265.64 -24.81,-77.41 -46.92,-156.43 -83.55,-230.04l-83.72 -148.77c-10.61,-16.92 -21.03,-32.62 -32.65,-48.44l-48.64 -64.9c-7.7,-9.63 -11.7,-12.21 -20.18,-23.07 -14.34,-18.33 -20.28,-23.75 -36.18,-39.52 -16.51,-16.37 -21.81,-27.32 -37.62,-43.48l-213.4 -170.47c-13.02,-7.87 -12.08,-8.16 -22.48,-15.37 -9.99,-6.9 -17.33,-9.88 -27.56,-15.69 -151.38,-85.96 -155.76,-79.47 -330.78,-139.6 -36.65,-12.59 -90.24,-21.17 -128.94,-27.86 -39.95,-6.9 -99.15,-12.64 -140.7,-16.09 -25.28,108.48 39.48,318.99 -70.28,318.99 -20.15,0 -45.19,-14.55 -55.92,-30.58 -26.4,-39.47 -13.13,-204.45 -13.78,-256.63 -0.53,-42.53 -5.87,-34.93 -131.98,-17.2 -110.89,15.59 -119.18,28.51 -214.19,50.74 -62.62,14.66 -132.16,52.69 -189.62,80.72 -10.04,4.9 -18,7.68 -29.76,13.49l-138.73 88.35c-87.23,69.34 -106.79,83.91 -189.83,167.01 -61.49,61.53 -109.01,132.93 -157.5,204.75 -13.87,20.54 -24.21,37.11 -34.8,57.11 -88.33,166.9 -163.12,358.19 -163.12,555.97zm1324.63 10.81c-113.37,0 -57.33,50.47 -126.11,18.16l-603.84 -239.78c-41.42,-16.48 -71.14,-36.23 -110.2,-13.06 -17.54,10.41 -30.32,31.69 -30.32,56.26 0,54.84 43.54,64.57 81.18,81.02l581.28 229.72c101.75,35.83 77.5,40.41 93.94,68.26 33.16,56.21 124.86,89.66 203.78,18.88 26.48,-23.75 14.67,-28.44 31.24,-60.68 12.29,-23.92 51.51,-31.83 91.48,-49.1l577.38 -249.84c21.74,-10.84 42.99,-14.52 55.83,-36.15 28.95,-48.74 -5.8,-137 -106.79,-90.51l-635.37 273.02c-59.57,23.27 -13.93,13.58 -69.52,-2.28 -8.61,-2.46 -18.89,-3.93 -33.95,-3.93z"/>
 </g>
</svg>
