<?xml version="1.0" encoding="utf-8"?>
<!-- Generator: Adobe Illustrator 21.0.0, SVG Export Plug-In . SVG Version: 6.00 Build 0)  -->
<svg version="1.1" id="Capa_1" xmlns="http://www.w3.org/2000/svg" xmlns:xlink="http://www.w3.org/1999/xlink" x="0px" y="0px"
	 viewBox="0 0 490 490" style="enable-background:new 0 0 490 490;" xml:space="preserve">
<style type="text/css">
	.st0{fill:#FFFFFF;}
</style>
<path class="st0" d="M242.5,102c-37.2,0-67.4,25.2-67.4,56.2s30.2,56.2,67.4,56.2s67.4-25.2,67.4-56.2S279.7,102,242.5,102z"/>
<path class="st0" d="M242.5,4C139.5,4,56,73.7,56,159.6c0,14.4,2.4,28.4,6.7,41.6c1.8,5.3,3.8,10.5,6.2,15.6l5.6,10.7l167.9,258.8
	l168.1-259.2l5.2-9.7c2.5-5.3,4.7-10.7,6.6-16.2c4.4-13.2,6.7-27.2,6.7-41.6C429,73.7,345.5,4,242.5,4z M242.5,239.7
	c-53.9,0-97.7-36.6-97.7-81.5c0-45,43.9-81.5,97.7-81.5s97.7,36.6,97.7,81.5S296.4,239.7,242.5,239.7z"/>
</svg>
